SplineFontDB: 3.0
FontName: muktibold
FullName: Mukti Bold
FamilyName: Mukti
Weight: Bold
Copyright: 
Version: 2.0
ItalicAngle: 0
UnderlinePosition: -340
UnderlineWidth: 150
Ascent: 1638
Descent: 410
InvalidEm: 0
sfntRevision: 0x0000f0a4
LayerCount: 2
Layer: 0 0 "Back" 1
Layer: 1 0 "Fore" 0
XUID: [1021 267 794593233 2403498]
StyleMap: 0x0000
FSType: 0
OS2Version: 3
OS2_WeightWidthSlopeOnly: 0
OS2_UseTypoMetrics: 0
CreationTime: 1035991877
ModificationTime: 1537544126
PfmFamily: 81
TTFWeight: 700
TTFWidth: 5
LineGap: 0
VLineGap: 0
Panose: 0 0 0 0 0 0 0 0 0 0
OS2TypoAscent: 2542
OS2TypoAOffset: 0
OS2TypoDescent: 898
OS2TypoDOffset: 0
OS2TypoLinegap: 0
OS2WinAscent: 2542
OS2WinAOffset: 0
OS2WinDescent: 898
OS2WinDOffset: 0
HheadAscent: 2542
HheadAOffset: 0
HheadDescent: -898
HheadDOffset: 0
OS2SubXSize: 1434
OS2SubYSize: 1331
OS2SubXOff: 0
OS2SubYOff: 283
OS2SupXSize: 1434
OS2SupYSize: 1331
OS2SupXOff: 0
OS2SupYOff: 977
OS2StrikeYSize: 102
OS2StrikeYPos: 530
OS2CapHeight: 1100
OS2XHeight: 1484
OS2Vendor: 'fbf '
OS2CodePages: 00000000.00000000
OS2UnicodeRanges: 00018001.00000000.00000000.00000000
Lookup: 1 0 0 "'init' Initial Forms in Bengali lookup 0" { "'init' Initial Forms in Bengali lookup 0 subtable"  } ['init' ('beng' <'dflt' > ) ]
Lookup: 4 0 0 "'nukt' Nukta Forms in Bengali lookup 1" { "'nukt' Nukta Forms in Bengali lookup 1 subtable"  } ['nukt' ('beng' <'dflt' > ) ]
Lookup: 4 0 0 "'akhn' Akhand in Bengali lookup 2" { "'akhn' Akhand in Bengali lookup 2 subtable"  } ['akhn' ('beng' <'dflt' > ) ]
Lookup: 4 0 0 "'rphf' Reph Form in Bengali lookup 3" { "'rphf' Reph Form in Bengali lookup 3 subtable"  } ['rphf' ('beng' <'dflt' > ) ]
Lookup: 4 0 0 "'blwf' Below Base Forms in Bengali lookup 4" { "'blwf' Below Base Forms in Bengali lookup 4 subtable"  } ['blwf' ('beng' <'dflt' > ) ]
Lookup: 4 0 0 "'half' Half Forms in Bengali lookup 5" { "'half' Half Forms in Bengali lookup 5 subtable"  } ['half' ('beng' <'dflt' > ) ]

StartChar: .notdef
Encoding: 65536 -1 0
Width: 884
GlyphClass: 2
Flags: W
HStem: 0 68<135 682> 1296 68<135 682>
VStem: 68 67<68 1296> 682 68<68 1296>
LayerCount: 2
Fore
SplineSet
68 0 m 1
 68 1364 l 1
 750 1364 l 1
 750 0 l 1
 68 0 l 1
135 68 m 1
 682 68 l 1
 682 1296 l 1
 135 1296 l 1
 135 68 l 1
EndSplineSet
Validated: 1
EndChar

StartChar: exclam
Encoding: 33 33 4
Width: 681
GlyphClass: 2
Flags: W
HStem: 0 299<229 537>
VStem: 229 308<0 299 951.48 1487>
LayerCount: 2
Fore
SplineSet
537 1487 m 1
 537 1057 l 1
 451 424 l 1
 313 424 l 1
 229 1057 l 1
 229 1487 l 1
 537 1487 l 1
537 299 m 1
 537 0 l 1
 229 0 l 1
 229 299 l 1
 537 299 l 1
EndSplineSet
Validated: 1
EndChar

StartChar: quotedbl
Encoding: 34 34 5
Width: 970
GlyphClass: 2
Flags: W
HStem: 963 530<184 299 668 782>
VStem: 102 283<1182.99 1493> 586 282<1182.99 1493>
LayerCount: 2
Fore
SplineSet
385 1493 m 1
 385 1227 l 1
 299 963 l 1
 184 963 l 1
 102 1227 l 1
 102 1493 l 1
 385 1493 l 1
868 1493 m 1
 868 1227 l 1
 782 963 l 1
 668 963 l 1
 586 1227 l 1
 586 1493 l 1
 868 1493 l 1
EndSplineSet
Validated: 1
EndChar

StartChar: numbersign
Encoding: 35 35 6
Width: 1138
GlyphClass: 2
Flags: W
HStem: 352 203<6 164 420 592 846 1051> 868 203<63 266 522 692 948 1133>
LayerCount: 2
Fore
SplineSet
299 -66 m 1
 82 -66 l 1
 164 352 l 1
 6 352 l 1
 6 555 l 1
 205 555 l 1
 266 868 l 1
 63 868 l 1
 63 1071 l 1
 307 1071 l 1
 377 1427 l 1
 592 1427 l 1
 522 1071 l 1
 733 1071 l 1
 803 1427 l 1
 1018 1427 l 1
 948 1071 l 1
 1133 1071 l 1
 1133 868 l 1
 909 868 l 1
 846 555 l 1
 1051 555 l 1
 1051 352 l 1
 807 352 l 1
 725 -66 l 1
 510 -66 l 1
 592 352 l 1
 381 352 l 1
 299 -66 l 1
420 555 m 1
 631 555 l 1
 692 868 l 1
 481 868 l 1
 420 555 l 1
EndSplineSet
Validated: 1
EndChar

StartChar: dollar
Encoding: 36 36 7
Width: 1138
GlyphClass: 2
Flags: W
HStem: -43 219<398.762 498 637 732.586> 1245 207<395.124 498 637 730.48>
VStem: 45 268<266.367 424> 80 252<946.043 1182.23> 498 139<-258 -38.0312 176 578 874 1245 1448.68 1563> 797 262<1020 1182.08> 809 270<247.17 500.988>
LayerCount: 2
Fore
SplineSet
1059 1020 m 1xdc
 797 1020 l 1xdc
 801 1126.66666667 765.333333333 1197 690 1231 c 0
 674 1237.66666667 656.333333333 1242.33333333 637 1245 c 1
 637 834 l 1
 845.666666667 776.666666667 978 696 1034 592 c 0
 1064 540 1079 475.666666667 1079 399 c 0
 1079 257 1032.66666667 146.666666667 940 68 c 1
 903 41 l 1
 833.666666667 -3 745 -31 637 -43 c 1
 637 -258 l 1
 498 -258 l 1
 498 -43 l 1
 386 -32.3333333333 293.666666667 -1 221 51 c 0
 105 134.333333333 46.3333333333 252.666666667 45 406 c 2
 45 424 l 1
 313 424 l 1xea
 320.333333333 279.333333333 382 196.666666667 498 176 c 1
 498 612 l 1
 220.666666667 676.666666667 81.3333333333 822.333333333 80 1049 c 0
 80 1213.66666667 151.666666667 1330.33333333 295 1399 c 0
 352.333333333 1427.66666667 420 1445.33333333 498 1452 c 1
 498 1563 l 1
 637 1563 l 1
 637 1452 l 1
 813 1442.66666667 936.666666667 1371.66666667 1008 1239 c 0
 1008 1237.66666667 1008.66666667 1236.33333333 1010 1235 c 2
 1010 1233 l 1
 1041.33333333 1171.66666667 1057.66666667 1100.66666667 1059 1020 c 1xdc
498 874 m 1
 498 1245 l 1
 388.666666667 1223 333.333333333 1160.33333333 332 1057 c 0
 332 975 381 916.333333333 479 881 c 0
 484.333333333 879.666666667 490.666666667 877.333333333 498 874 c 1
637 578 m 1
 637 176 l 1
 750.333333333 204.666666667 807.666666667 271 809 375 c 0xca
 809 474.333333333 751.666666667 542 637 578 c 1
EndSplineSet
Validated: 33
EndChar

StartChar: percent
Encoding: 37 37 8
Width: 1820
GlyphClass: 2
Flags: W
HStem: -27 201<1290.62 1507.09> 518 203<1273.9 1493.3> 690 201<303.545 538.19> 1233 203<305.352 539.545> 1432 20G<1230.14 1397>
VStem: 45 203<947.479 1175.41> 596 203<949.999 1135> 1014 203<230.149 461.482> 1565 202<232.303 461.321>
LayerCount: 2
Fore
SplineSet
422 1436 m 0xb780
 543.333333333 1436 641.666666667 1389.33333333 717 1296 c 0
 755 1248.66666667 779.666666667 1195 791 1135 c 1
 799 1059 l 1
 799 947 754 853.333333333 664 778 c 0
 592.666666667 719.333333333 512 690 422 690 c 0
 304.666666667 690 208.333333333 735 133 825 c 0
 74.3333333333 893.666666667 45 973 45 1063 c 0
 45 1179 90.6666666667 1274.66666667 182 1350 c 0
 252 1407.33333333 332 1436 422 1436 c 0xb780
422 1233 m 0
 356.666666667 1233 306.666666667 1205 272 1149 c 0
 256 1123 248 1094.33333333 248 1063 c 0
 248 999 276 949.666666667 332 915 c 0
 359.333333333 899 389.333333333 891 422 891 c 0
 486 891 535.666666667 919 571 975 c 0
 587.666666667 1001 596 1029.66666667 596 1061 c 0
 596 1127.66666667 566.666666667 1177.33333333 508 1210 c 0
 482 1225.33333333 453.333333333 1233 422 1233 c 0
1241 1452 m 1x8f80
 1397 1452 l 1
 588 -41 l 1
 430 -41 l 1
 1241 1452 l 1x8f80
1391 721 m 0xc780
 1513.66666667 721 1612 674 1686 580 c 0
 1740 511.333333333 1767 432 1767 342 c 0
 1767 230 1722 136.333333333 1632 61 c 0
 1561.33333333 2.33333333333 1481 -27 1391 -27 c 0
 1273 -27 1176.66666667 18.3333333333 1102 109 c 0
 1043.33333333 177 1014 256.666666667 1014 348 c 0
 1014 464 1059.66666667 559.666666667 1151 635 c 0
 1220.33333333 692.333333333 1300.33333333 721 1391 721 c 0xc780
1391 518 m 0
 1325 518 1275 490 1241 434 c 0
 1226.33333333 408 1218.33333333 378.666666667 1217 346 c 0
 1217 282 1244.66666667 233 1300 199 c 1
 1303 199 l 1
 1329.66666667 182.333333333 1359 174 1391 174 c 0
 1455 174 1504.66666667 202 1540 258 c 0
 1556.66666667 284 1565 312.666666667 1565 344 c 0
 1565 409.333333333 1537 459.333333333 1481 494 c 1
 1479 494 l 1
 1451.66666667 510 1422.33333333 518 1391 518 c 0
EndSplineSet
Validated: 1
EndChar

StartChar: ampersand
Encoding: 38 38 9
Width: 1478
GlyphClass: 2
Flags: W
HStem: -47 237<487.989 688> 0 21G<1075.48 1421> 1257 224<553.406 749.28>
VStem: 113 272<292.069 555.686> 266 271<1056.18 1214.68> 772 246<1024.24 1233.44> 1077 232<545.467 764>
LayerCount: 2
Fore
SplineSet
1077 764 m 1xae
 1309 764 l 1
 1309 741 l 1
 1309 731 l 1
 1305 585 1268.66666667 460 1200 356 c 1
 1169 315 l 1
 1421 0 l 1
 1092 0 l 1x6e
 997 115 l 1
 878.333333333 25 775.333333333 -27 688 -41 c 1
 598 -47 l 1
 420.666666667 -47 287.666666667 11 199 127 c 0
 141.666666667 201 113 290.333333333 113 395 c 0xb6
 113 517 154 615.333333333 236 690 c 0
 282 732.666666667 348 776.333333333 434 821 c 1
 422 837.666666667 414 848 410 852 c 2
 352 922 l 2
 294.666666667 988.666666667 266 1061 266 1139 c 0
 266 1251 314 1340.33333333 410 1407 c 0
 479.333333333 1456.33333333 560.333333333 1481 653 1481 c 0
 799 1481 904.333333333 1433 969 1337 c 1
 969 1335 l 1
 1001.66666667 1286.33333333 1018 1229 1018 1163 c 0
 1018 1066.33333333 983.666666667 983 915 913 c 0
 882.333333333 880.333333333 836.666666667 843.666666667 778 803 c 1
 1016 508 l 1
 1056.66666667 586 1077 664.333333333 1077 743 c 2
 1077 764 l 1xae
569 653 m 1
 473 594 l 2
 415.666666667 556 386.333333333 501.333333333 385 430 c 0
 385 354.666666667 415.666666667 291.333333333 477 240 c 0
 517 206.666666667 558.666666667 190 602 190 c 0xb6
 667.333333333 190 749.333333333 227.666666667 848 303 c 1
 569 653 l 1
649 963 m 1
 729.666666667 1007.66666667 770.666666667 1066.33333333 772 1139 c 0
 772 1209.66666667 733 1249 655 1257 c 1
 596.333333333 1257 559 1235.33333333 543 1192 c 1
 537 1159 537 1159 537 1159 c 1x2e
 537 1127.66666667 549.666666667 1093.66666667 575 1057 c 1
 578 1057 l 1
 649 963 l 1
EndSplineSet
Validated: 1
EndChar

StartChar: quotesingle
Encoding: 39 39 10
Width: 487
GlyphClass: 2
Flags: W
HStem: 963 530<184 299>
VStem: 102 283<1182.99 1493>
LayerCount: 2
Fore
SplineSet
385 1493 m 1
 385 1227 l 1
 299 963 l 1
 184 963 l 1
 102 1227 l 1
 102 1493 l 1
 385 1493 l 1
EndSplineSet
Validated: 1
EndChar

StartChar: parenleft
Encoding: 40 40 11
Width: 681
GlyphClass: 2
Flags: W
HStem: 1473 20G<395.333 621>
VStem: 82 252<197.628 880.341>
LayerCount: 2
Fore
SplineSet
416 1493 m 1
 621 1493 l 1
 473 1209 384 976.333333333 354 795 c 0
 340.666666667 717 334 633 334 543 c 0
 334 346.333333333 373.666666667 148.333333333 453 -51 c 0
 492.333333333 -151 548.333333333 -270.666666667 621 -410 c 1
 416 -410 l 1
 227.333333333 -126 118.666666667 137.666666667 90 381 c 0
 84.6666666667 433 82 487 82 543 c 0
 82 795.666666667 156.333333333 1052.33333333 305 1313 c 0
 337.666666667 1370.33333333 374.666666667 1430.33333333 416 1493 c 1
EndSplineSet
Validated: 1
EndChar

StartChar: parenright
Encoding: 41 41 12
Width: 681
GlyphClass: 2
Flags: W
HStem: 1473 20G<45 344>
VStem: 332 252<203.515 879.938>
LayerCount: 2
Fore
SplineSet
250 -410 m 1
 45 -410 l 1
 192.333333333 -126 281 107 311 289 c 0
 325 367 332 451 332 541 c 0
 332 737.666666667 292.333333333 935.666666667 213 1135 c 0
 173.666666667 1234.33333333 117.666666667 1353.66666667 45 1493 c 1
 250 1493 l 1
 438 1209 546.333333333 945.333333333 575 702 c 0
 581 650.666666667 584 597 584 541 c 0
 584 288.333333333 509.333333333 31.6666666667 360 -229 c 0
 327.333333333 -286.333333333 290.666666667 -346.666666667 250 -410 c 1
EndSplineSet
Validated: 1
EndChar

StartChar: asterisk
Encoding: 42 42 13
Width: 796
GlyphClass: 2
Flags: W
HStem: 834 659
VStem: 315 148<1255 1493>
LayerCount: 2
Fore
SplineSet
270 1114 m 1
 47 1188 l 1
 92 1329 l 1
 315 1255 l 1
 315 1493 l 1
 463 1493 l 1
 463 1255 l 1
 686 1329 l 1
 731 1186 l 1
 508 1114 l 1
 645 922 l 1
 526 834 l 1
 389 1026 l 1
 252 834 l 1
 133 922 l 1
 270 1114 l 1
EndSplineSet
Validated: 1
EndChar

StartChar: plus
Encoding: 43 43 14
Width: 1196
GlyphClass: 2
Flags: W
HStem: 352 244<102 475 719 1092>
VStem: 475 244<-20 352 596 969>
LayerCount: 2
Fore
SplineSet
1092 596 m 1
 1092 352 l 1
 719 352 l 1
 719 -20 l 1
 475 -20 l 1
 475 352 l 1
 102 352 l 1
 102 596 l 1
 475 596 l 1
 475 969 l 1
 719 969 l 1
 719 596 l 1
 1092 596 l 1
EndSplineSet
Validated: 1
EndChar

StartChar: comma
Encoding: 44 44 15
Width: 569
GlyphClass: 2
Flags: W
HStem: -356 114<131 229.434> 0 299<131 307>
VStem: 131 307<0.98291 299> 307 131<-165.957 0>
LayerCount: 2
Fore
SplineSet
131 299 m 1xe0
 438 299 l 1
 438 18 l 2
 438 -104.666666667 415 -192 369 -244 c 0
 356.333333333 -256 342.666666667 -268.333333333 328 -281 c 0
 274.666666667 -321.666666667 209 -346.666666667 131 -356 c 1
 131 -242 l 1xe0
 235 -220 293 -157 305 -53 c 0
 307 -6 307 -6 307 -6 c 1
 307 0 l 1xd0
 131 0 l 1
 131 299 l 1xe0
EndSplineSet
Validated: 1
EndChar

StartChar: hyphen
Encoding: 45 45 16
AltUni2: 0000ad.ffffffff.0
Width: 681
GlyphClass: 2
Flags: W
HStem: 424 276<53 610>
VStem: 53 557<424 700>
LayerCount: 2
Fore
SplineSet
610 700 m 1
 610 424 l 1
 53 424 l 1
 53 700 l 1
 610 700 l 1
EndSplineSet
Validated: 1
EndChar

StartChar: period
Encoding: 46 46 17
Width: 569
GlyphClass: 2
Flags: W
HStem: 0 299<131 438>
VStem: 131 307<0 299>
LayerCount: 2
Fore
SplineSet
438 299 m 1
 438 0 l 1
 131 0 l 1
 131 299 l 1
 438 299 l 1
EndSplineSet
Validated: 1
EndChar

StartChar: slash
Encoding: 47 47 18
AltUni2: 002044.ffffffff.0
Width: 569
GlyphClass: 2
Flags: W
VStem: 4 559
LayerCount: 2
Fore
SplineSet
426 1462 m 1
 563 1462 l 1
 141 -29 l 1
 4 -29 l 1
 426 1462 l 1
EndSplineSet
Validated: 1
EndChar

StartChar: zero
Encoding: 48 48 19
Width: 1138
GlyphClass: 2
Flags: W
HStem: -47 246<440.766 679.016> 1251 232<443.238 674.188>
VStem: 59 287<313.639 1124.18> 772 287<314.524 1127.88>
LayerCount: 2
Fore
SplineSet
559 1483 m 0
 729.666666667 1483 859.333333333 1415.33333333 948 1280 c 1
 950 1278 l 1
 956 1268 l 2
 1024.66666667 1157.33333333 1059 971 1059 709 c 0
 1059 439.666666667 1018 249.666666667 936 139 c 0
 844.666666667 15 719 -47 559 -47 c 0
 393.666666667 -47 266 17.6666666667 176 147 c 0
 170.666666667 154.333333333 166 161.333333333 162 168 c 0
 93.3333333333 280 59 463 59 717 c 0
 59 994.333333333 100 1187.33333333 182 1296 c 1
 272 1420.66666667 397.666666667 1483 559 1483 c 0
559 1251 m 0
 475.666666667 1251 417 1205.33333333 383 1114 c 0
 358.333333333 1043.33333333 346 911.666666667 346 719 c 0
 346 511.666666667 361 375.666666667 391 311 c 0
 426.333333333 237.666666667 482.333333333 200.333333333 559 199 c 0
 642.333333333 199 701 243.333333333 735 332 c 0
 759.666666667 400 772 527.666666667 772 715 c 0
 772 930.333333333 757 1070.33333333 727 1135 c 0
 691.666666667 1212.33333333 635.666666667 1251 559 1251 c 0
EndSplineSet
Validated: 1
EndChar

StartChar: one
Encoding: 49 49 20
Width: 1138
GlyphClass: 2
Flags: W
HStem: 0 21G<487 774> 1001 191<139 394.315> 1432 20G<561.333 774>
VStem: 487 287<0 1001> 584 190<1350.69 1452>
LayerCount: 2
Fore
SplineSet
487 1001 m 1xf0
 139 1001 l 1
 139 1192 l 1
 390.333333333 1192 538.666666667 1278.66666667 584 1452 c 1
 774 1452 l 1xe8
 774 0 l 1
 487 0 l 1
 487 1001 l 1xf0
EndSplineSet
Validated: 1
EndChar

StartChar: two
Encoding: 50 50 21
Width: 1138
GlyphClass: 2
Flags: W
HStem: 0 256<434 1049> 1249 234<430.667 692.801>
VStem: 82 274<946 1167.89> 768 281<843.025 1174.94>
LayerCount: 2
Fore
SplineSet
1049 256 m 1
 1049 0 l 1
 61 0 l 1
 69.6666666667 158.666666667 108.666666667 283 178 373 c 0
 224.666666667 433 297.666666667 497 397 565 c 0
 567.666666667 687 674.333333333 776.666666667 717 834 c 0
 751 881.333333333 768 942 768 1016 c 0
 768 1130.66666667 726.333333333 1203.66666667 643 1235 c 0
 618.333333333 1244.33333333 591.666666667 1249 563 1249 c 0
 459.666666667 1249 394.333333333 1196.66666667 367 1092 c 0
 359.666666667 1063.33333333 356 1030.33333333 356 993 c 2
 356 946 l 1
 82 946 l 1
 80 997 l 1
 80 1209 155.666666667 1353.33333333 307 1430 c 0
 378.333333333 1465.33333333 461.666666667 1483 557 1483 c 0
 748.333333333 1483 888.333333333 1419.33333333 977 1292 c 0
 1029 1218.66666667 1055 1128.66666667 1055 1022 c 0
 1055 906 1020.66666667 807.666666667 952 727 c 0
 906 671 831.666666667 605.333333333 729 530 c 0
 587 426.666666667 500.333333333 354.333333333 469 313 c 0
 457 297 445.333333333 278 434 256 c 1
 1049 256 l 1
EndSplineSet
Validated: 1
EndChar

StartChar: three
Encoding: 51 51 22
Width: 1138
GlyphClass: 2
Flags: W
HStem: -47 246<414.846 689.218> 649 193<444 646.044> 1251 232<407.992 592>
VStem: 59 279<274.87 426> 78 266<995 1185.5> 723 287<918.611 1199.32> 770 287<281.652 559.4>
LayerCount: 2
Fore
SplineSet
444 649 m 1xf2
 444 842 l 1
 469 842 l 2
 637 842 721.666666667 915 723 1061 c 0
 723 1166.33333333 679.333333333 1228.33333333 592 1247 c 1
 543 1251 l 1
 459.666666667 1251 402.333333333 1220.33333333 371 1159 c 1
 367 1149 l 2
 353 1115 345.333333333 1063.66666667 344 995 c 1
 78 995 l 1
 78 1020 l 2
 78 1149.33333333 106 1249 162 1319 c 0
 246.666666667 1428.33333333 375.666666667 1483 549 1483 c 0
 731.666666667 1483 863.333333333 1425.66666667 944 1311 c 0
 988 1249.66666667 1010 1175 1010 1087 c 0xec
 1010 972.333333333 960.666666667 879 862 807 c 1
 860 805 l 1
 819 778 l 1
 959.666666667 710 1037.66666667 609 1053 475 c 0
 1055.66666667 457.666666667 1057 438.666666667 1057 418 c 0
 1057 246 991.333333333 118.333333333 860 35 c 1
 858 33 l 1
 773.333333333 -20.3333333333 670.333333333 -47 549 -47 c 0
 360.333333333 -47 223 17.6666666667 137 147 c 0
 86.3333333333 223.666666667 60.3333333333 316.666666667 59 426 c 1
 338 426 l 1
 346 274.666666667 418.333333333 199 555 199 c 0
 638.333333333 199 699.666666667 233 739 301 c 0
 759.666666667 335 770 374 770 418 c 0
 770 508 734.666666667 573.333333333 664 614 c 1
 612 635 l 1
 574 644.333333333 518 649 444 649 c 1xf2
EndSplineSet
Validated: 1
EndChar

StartChar: four
Encoding: 52 52 23
Width: 1138
GlyphClass: 2
Flags: W
HStem: 0 21G<631 918> 322 237<252 631 918 1069> 1432 20G<568.054 918>
VStem: 631 287<0 322 559 1180>
LayerCount: 2
Fore
SplineSet
1069 559 m 1
 1069 322 l 1
 918 322 l 1
 918 0 l 1
 631 0 l 1
 631 322 l 1
 49 322 l 1
 49 563 l 1
 580 1452 l 1
 918 1452 l 1
 918 559 l 1
 1069 559 l 1
631 559 m 1
 631 1180 l 1
 252 559 l 1
 631 559 l 1
EndSplineSet
Validated: 1
EndChar

StartChar: five
Encoding: 53 53 24
Width: 1138
GlyphClass: 2
Flags: W
HStem: -47 246<398.512 679.651> 754 227<424.403 653.115> 1196 256<401 1001>
VStem: 772 287<298.881 655.148>
LayerCount: 2
Fore
SplineSet
1001 1452 m 1
 1001 1196 l 1
 401 1196 l 1
 354 893 l 1
 432 951.666666667 516 981 606 981 c 0
 762 981 882.333333333 920.333333333 967 799 c 0
 1028.33333333 711.666666667 1059 605 1059 479 c 0
 1059 299 996 159.666666667 870 61 c 0
 778.666666667 -11 667 -47 535 -47 c 0
 361 -47 229.666666667 9.66666666667 141 123 c 0
 86.3333333333 193.666666667 57.6666666667 279 55 379 c 1
 338 379 l 1
 343.333333333 265.666666667 410.333333333 205.666666667 539 199 c 1
 642.333333333 199 712.666666667 246.666666667 750 342 c 0
 764.666666667 380 772 423.666666667 772 473 c 0
 772 609.666666667 725.666666667 697 633 735 c 1
 631 737 l 1
 603.666666667 748.333333333 573 754 539 754 c 0
 447 754 385.333333333 717 354 643 c 1
 96 643 l 1
 225 1452 l 1
 1001 1452 l 1
EndSplineSet
Validated: 1
EndChar

StartChar: six
Encoding: 54 54 25
Width: 1138
GlyphClass: 2
Flags: W
HStem: -47 246<437.847 696.242> 731 223<457.932 701.1> 1122 21G<757 1038> 1251 232<459.341 716.177>
VStem: 66 282<304.055 1076.51> 791 272<302.344 640.754>
LayerCount: 2
Fore
SplineSet
1038 1122 m 1
 772 1122 l 1
 742 1196 697 1237.66666667 637 1247 c 0
 624.333333333 1249.66666667 610 1251 594 1251 c 0
 495.333333333 1251 427 1202 389 1104 c 0
 382.333333333 1087.33333333 377 1069.66666667 373 1051 c 0
 371.666666667 1048.33333333 371 1045.33333333 371 1042 c 0
 362.333333333 1001.33333333 356 929.666666667 352 827 c 1
 426 905 508.666666667 947.333333333 600 954 c 0
 602 954 602 954 604 954 c 1
 615.333333333 955.333333333 627.666666667 956 641 956 c 0
 788.333333333 956 901 898 979 782 c 0
 1035 700 1063 601 1063 485 c 0
 1063 299.666666667 1003.66666667 157.666666667 885 59 c 0
 800.333333333 -11.6666666667 698 -47 578 -47 c 0
 426 -47 304.333333333 5.66666666667 213 111 c 1
 170 168 l 1
 100.666666667 277.333333333 66 451.333333333 66 690 c 0
 66 920.666666667 100 1099 168 1225 c 2
 186 1257 l 1
 272 1399 401 1474.33333333 573 1483 c 1
 602 1483 l 2
 754.666666667 1483 872 1433.66666667 954 1335 c 1
 954 1335 954 1335 956 1333 c 2
 958 1331 l 2
 958 1329.66666667 959 1328.33333333 961 1327 c 0
 963.666666667 1324.33333333 966.333333333 1321 969 1317 c 0
 1003 1267.66666667 1026 1202.66666667 1038 1122 c 1
571 731 m 0
 481 731 416.333333333 688.666666667 377 604 c 0
 357.666666667 563.333333333 348 515.666666667 348 461 c 0
 348 353 384.333333333 275.666666667 457 229 c 0
 491 209 528.333333333 199 569 199 c 0
 651 199 713.333333333 238.333333333 756 317 c 0
 779.333333333 359.666666667 791 409.666666667 791 467 c 0
 791 584.333333333 752 664.333333333 674 707 c 0
 644 723 609.666666667 731 571 731 c 0
EndSplineSet
Validated: 5
EndChar

StartChar: seven
Encoding: 55 55 26
Width: 1138
GlyphClass: 2
Flags: W
HStem: 0 21G<272 565> 1196 256<59 782>
VStem: 272 289<0 264.448>
LayerCount: 2
Fore
SplineSet
1081 1452 m 1
 1081 1227 l 1
 846.333333333 943 693 665 621 393 c 0
 589 271.666666667 569 140.666666667 561 0 c 1
 272 0 l 1
 305.333333333 262 360 480.333333333 436 655 c 1
 463 711 l 2
 511 815.666666667 589.333333333 943.333333333 698 1094 c 1
 732.666666667 1137.33333333 760.666666667 1171.33333333 782 1196 c 1
 59 1196 l 1
 59 1452 l 1
 1081 1452 l 1
EndSplineSet
Validated: 1
EndChar

StartChar: eight
Encoding: 56 56 27
Width: 1138
GlyphClass: 2
Flags: W
HStem: -47 246<416.146 705.733> 676 194<417.957 702.626> 1251 232<413.969 708.199>
VStem: 45 287<281.662 589.294> 94 252<939.418 1182.62> 778 248<939.961 1184.93> 788 287<280.339 589.771>
LayerCount: 2
Fore
SplineSet
838 791 m 1xec
 968.666666667 721 1045 628 1067 512 c 0
 1072.33333333 484.666666667 1075 453.333333333 1075 418 c 0
 1075 260.666666667 1013.66666667 138.333333333 891 51 c 0
 801 -14.3333333333 691 -47 561 -47 c 0
 381 -47 243 11 147 127 c 0
 79 206.333333333 45 303.333333333 45 418 c 0xf2
 45 557.333333333 98.3333333333 665.666666667 205 743 c 1
 283 791 l 1
 172.333333333 849.666666667 110 931.333333333 96 1036 c 1
 94.6666666667 1052.66666667 94 1069.66666667 94 1087 c 0
 94 1218.33333333 149.333333333 1321.66666667 260 1397 c 0
 344.666666667 1454.33333333 445 1483 561 1483 c 0
 721 1483 845.333333333 1433 934 1333 c 1
 936 1331 l 1
 996 1263 1026 1182.66666667 1026 1090 c 0
 1026 990 994.666666667 910.666666667 932 852 c 0
 912.666666667 834 881.333333333 813.666666667 838 791 c 1xec
563 1251 m 0
 469 1251 403.666666667 1217.66666667 367 1151 c 0
 353 1125 346 1095.66666667 346 1063 c 0
 346 983.666666667 382.333333333 927 455 893 c 0
 487.666666667 877.666666667 523.666666667 870 563 870 c 0
 651.666666667 870 715.333333333 902.333333333 754 967 c 0
 770 994.333333333 778 1025.66666667 778 1061 c 0xec
 778 1140.33333333 742 1196.33333333 670 1229 c 0
 640 1243.66666667 604.333333333 1251 563 1251 c 0
559 676 m 0
 459.666666667 676 391.333333333 634.333333333 354 551 c 0
 339.333333333 517 332 478 332 434 c 0
 332 327.333333333 373 255.666666667 455 219 c 0
 486.333333333 205.666666667 521 199 559 199 c 0
 659 199 728 238.333333333 766 317 c 0
 780.666666667 350.333333333 788 388 788 430 c 0xf2
 788 544.666666667 745 620.333333333 659 657 c 0
 629 669.666666667 595.666666667 676 559 676 c 0
EndSplineSet
Validated: 1
EndChar

StartChar: nine
Encoding: 57 57 28
Width: 1138
GlyphClass: 2
Flags: W
HStem: -49 246<401.141 657.389> 467 238<415.883 667.265> 1249 234<413.05 672.373>
VStem: 57 273<795.611 1129.71> 764 293<370.734 1113.04>
LayerCount: 2
Fore
SplineSet
78 338 m 1
 354 338 l 1
 359.333333333 271.333333333 395.666666667 227.666666667 463 207 c 0
 483.666666667 200.333333333 506 197 530 197 c 0
 688.666666667 197 768.666666667 334.666666667 770 610 c 1
 728 562.666666667 698 532.666666667 680 520 c 0
 630.666666667 484.666666667 568 467 492 467 c 0
 341.333333333 467 225.666666667 528.333333333 145 651 c 0
 86.3333333333 738.333333333 57 845 57 971 c 0
 57 1148.33333333 117.333333333 1284.66666667 238 1380 c 0
 322.666666667 1448.66666667 425.666666667 1483 547 1483 c 0
 725.666666667 1483 862 1403.66666667 956 1245 c 0
 1023.33333333 1134.33333333 1057 972 1057 758 c 0
 1057 520 1020 332.333333333 946 195 c 0
 943.333333333 187.666666667 940 181.333333333 936 176 c 0
 848.666666667 26 710.666666667 -49 522 -49 c 0
 373.333333333 -49 256 0 170 98 c 0
 111.333333333 166.666666667 80.6666666667 246.666666667 78 338 c 1
539 1249 m 0
 448.333333333 1249 386 1202.66666667 352 1110 c 1
 352 1110 352 1110 350 1108 c 0
 336.666666667 1070 330 1025.66666667 330 975 c 0
 330 847.666666667 371 764.333333333 453 725 c 0
 480.333333333 711.666666667 510.333333333 705 543 705 c 0
 631.666666667 705 695.666666667 746.333333333 735 829 c 0
 754.333333333 869 764 916.333333333 764 971 c 0
 764 1097.66666667 722.333333333 1183 639 1227 c 0
 609 1241.66666667 575.666666667 1249 539 1249 c 0
EndSplineSet
Validated: 1
EndChar

StartChar: colon
Encoding: 58 58 29
Width: 681
GlyphClass: 2
Flags: W
HStem: 0 299<231 539> 766 299<231 539>
VStem: 231 308<0 299 766 1065>
LayerCount: 2
Fore
SplineSet
539 299 m 1
 539 0 l 1
 231 0 l 1
 231 299 l 1
 539 299 l 1
539 1065 m 1
 539 766 l 1
 231 766 l 1
 231 1065 l 1
 539 1065 l 1
EndSplineSet
Validated: 1
EndChar

StartChar: semicolon
Encoding: 59 59 30
Width: 681
GlyphClass: 2
Flags: W
HStem: -356 114<231 331.97> 0 299<231 408> 766 299<231 539>
VStem: 231 308<0.98291 299 766 1065> 408 131<-163.131 0>
LayerCount: 2
Fore
SplineSet
231 299 m 1xf0
 539 299 l 1
 539 18 l 2
 539 -104.666666667 515.666666667 -192 469 -244 c 0
 457 -256 443.333333333 -268.333333333 428 -281 c 0
 374.666666667 -321.666666667 309 -346.666666667 231 -356 c 1
 231 -242 l 1xf0
 335 -220 393.333333333 -157 406 -53 c 0
 408 -6 408 -6 408 -6 c 1
 408 0 l 1xe8
 231 0 l 1
 231 299 l 1xf0
539 1065 m 1
 539 766 l 1
 231 766 l 1
 231 1065 l 1
 539 1065 l 1
EndSplineSet
Validated: 1
EndChar

StartChar: less
Encoding: 60 60 31
Width: 1196
GlyphClass: 2
Flags: W
LayerCount: 2
Fore
SplineSet
1083 971 m 1
 1083 748 l 1
 301 475 l 1
 1083 207 l 1
 1083 -20 l 1
 82 352 l 1
 82 600 l 1
 1083 971 l 1
EndSplineSet
Validated: 1
EndChar

StartChar: equal
Encoding: 61 61 32
Width: 1196
GlyphClass: 2
Flags: W
HStem: 106 244<102 1094> 598 244<102 1094>
LayerCount: 2
Fore
SplineSet
1094 842 m 1
 1094 598 l 1
 102 598 l 1
 102 842 l 1
 1094 842 l 1
1094 350 m 1
 1094 106 l 1
 102 106 l 1
 102 350 l 1
 1094 350 l 1
EndSplineSet
Validated: 1
EndChar

StartChar: greater
Encoding: 62 62 33
Width: 1196
GlyphClass: 2
Flags: W
LayerCount: 2
Fore
SplineSet
82 -20 m 1
 82 203 l 1
 864 475 l 1
 82 743 l 1
 82 971 l 1
 1083 598 l 1
 1083 350 l 1
 82 -20 l 1
EndSplineSet
Validated: 1
EndChar

StartChar: question
Encoding: 63 63 34
Width: 1251
GlyphClass: 2
Flags: W
HStem: 0 299<481 788> 1282 242<507.842 761.872>
VStem: 131 279<985 1175.16> 481 307<0 299> 502 254<412 543.768> 850 289<942.843 1193.89>
LayerCount: 2
Fore
SplineSet
756 412 m 1xec
 502 412 l 1
 498 524 524 616 580 688 c 0
 608.666666667 726 650.333333333 769 705 817 c 0
 781 879.666666667 826 930.333333333 840 969 c 1
 846.666666667 989 850 1015 850 1047 c 0
 850 1137 816.666666667 1203.66666667 750 1247 c 0
 715.333333333 1270.33333333 677 1282 635 1282 c 0
 551.666666667 1282 488.666666667 1242.33333333 446 1163 c 0
 419.333333333 1112.33333333 407.333333333 1054.33333333 410 989 c 1
 410 985 l 1
 131 985 l 1
 132.333333333 1132.33333333 161 1245.66666667 217 1325 c 0
 219.666666667 1330.33333333 223 1335.66666667 227 1341 c 0
 315.666666667 1463 449.666666667 1524 629 1524 c 0
 806.333333333 1524 942.666666667 1466 1038 1350 c 0
 1038 1348.66666667 1038.66666667 1347.33333333 1040 1346 c 0
 1098.66666667 1273.33333333 1131 1187 1137 1087 c 0
 1138.33333333 1076.33333333 1139 1065 1139 1053 c 0
 1139 946.333333333 1109.66666667 859 1051 791 c 0
 1035.66666667 773 1017.66666667 755 997 737 c 0
 973 715.666666667 944.333333333 693.333333333 911 670 c 1
 893 655 l 1
 827.666666667 609 788 572.333333333 774 545 c 0
 762 519 756 474.666666667 756 412 c 1xec
788 299 m 1xf4
 788 0 l 1
 481 0 l 1
 481 299 l 1
 788 299 l 1xf4
EndSplineSet
Validated: 33
EndChar

StartChar: at
Encoding: 64 64 35
Width: 1996
GlyphClass: 2
Flags: W
HStem: -283 160<722.392 1310.54> 115 166<796.803 1033.64 1340.26 1548.55> 905 156<900.125 1174.27> 1368 158<779.841 1312.09>
VStem: 55 199<306.849 816.357> 528 199<354.083 691.23> 1757 182<533.578 971.355>
LayerCount: 2
Fore
SplineSet
1319 1040 m 1
 1503 1040 l 1
 1343 467 l 2
 1332.33333333 426.333333333 1327 397.666666667 1327 381 c 0
 1327 325 1352.33333333 292.333333333 1403 283 c 0
 1409.66666667 281.666666667 1417.66666667 281 1427 281 c 0
 1497 281 1567.33333333 324 1638 410 c 2
 1653 428 l 1
 1722.33333333 524.666666667 1757 634.666666667 1757 758 c 0
 1757 918.666666667 1690 1059.33333333 1556 1180 c 0
 1414 1305.33333333 1244.33333333 1368 1047 1368 c 0
 807.666666667 1368 613.666666667 1282 465 1110 c 0
 339 964 269.333333333 794 256 600 c 1
 254 545 l 1
 254 337 334.666666667 169.666666667 496 43 c 0
 638 -67.6666666667 804.333333333 -123 995 -123 c 0
 1152.33333333 -123 1293.66666667 -95 1419 -39 c 1
 1477 -188 l 1
 1339 -251.333333333 1177 -283 991 -283 c 0
 738.333333333 -283 529.666666667 -218 365 -88 c 0
 203.666666667 37.3333333333 104.666666667 199 68 397 c 0
 59.3333333333 443.666666667 55 491.666666667 55 541 c 0
 55 727.666666667 113.666666667 909 231 1085 c 0
 267 1138.33333333 306 1187 348 1231 c 0
 538 1427.66666667 774.333333333 1526 1057 1526 c 0
 1316.33333333 1526 1534.66666667 1440.66666667 1712 1270 c 0
 1863.33333333 1122.66666667 1939 941.666666667 1939 727 c 0
 1939 561.666666667 1883.33333333 415 1772 287 c 0
 1669.33333333 172.333333333 1554.33333333 115 1427 115 c 0
 1357.66666667 115 1297 132.666666667 1245 168 c 0
 1211 192.666666667 1187.33333333 223.333333333 1174 260 c 0
 1174 262.666666667 1173 265.333333333 1171 268 c 1
 1093.66666667 174 999.666666667 123 889 115 c 0
 877 115 877 115 864 115 c 0
 756 115 668.666666667 158.666666667 602 246 c 0
 552.666666667 308.666666667 528 381.666666667 528 465 c 0
 528 599 571 726 657 846 c 1
 680 874 l 2
 762 976.666666667 865 1037.66666667 989 1057 c 0
 1009.66666667 1059.66666667 1031 1061 1053 1061 c 0
 1155 1061 1229.33333333 1018 1276 932 c 2
 1286 913 l 1
 1319 1040 l 1
1047 915 m 0
 963.666666667 915 888.333333333 869.333333333 821 778 c 0
 758.333333333 693.333333333 727 600.666666667 727 500 c 0
 727 415.333333333 756.333333333 352.333333333 815 311 c 0
 843.666666667 291 875 281 909 281 c 0
 969 281 1026.33333333 309.666666667 1081 367 c 2
 1090 377 l 2
 1156.66666667 455 1198 546.333333333 1214 651 c 0
 1216 666.333333333 1217.66666667 685 1219 707 c 0
 1219 811.666666667 1182.66666667 877.666666667 1110 905 c 1
 1108 905 l 1
 1106 905 l 1
 1088 911.666666667 1068.33333333 915 1047 915 c 0
EndSplineSet
Validated: 1
EndChar

StartChar: A
Encoding: 65 65 36
Width: 1478
GlyphClass: 2
Flags: W
HStem: 0 21G<53 373.645 1117.49 1440> 301 256<553 942> 1473 20G<576.887 930.912>
LayerCount: 2
Fore
SplineSet
1026 301 m 1
 467 301 l 1
 367 0 l 1
 53 0 l 1
 584 1493 l 1
 924 1493 l 1
 1440 0 l 1
 1124 0 l 1
 1026 301 l 1
942 557 m 1
 748 1141 l 1
 553 557 l 1
 942 557 l 1
EndSplineSet
Validated: 1
EndChar

StartChar: B
Encoding: 66 66 37
Width: 1478
GlyphClass: 2
Flags: W
HStem: 0 256<475 1002.42> 643 256<475 966.529> 1237 256<475 971.105>
VStem: 168 307<256 643 899 1237> 1026 295<955.15 1184.04> 1069 295<319.553 579.669>
LayerCount: 2
Fore
SplineSet
168 0 m 1xf4
 168 1493 l 1
 834 1493 l 2
 984 1493 1101.33333333 1456.66666667 1186 1384 c 0
 1268 1313.33333333 1313 1226.66666667 1321 1124 c 1
 1321 1100 l 2xf8
 1321 1001.33333333 1278 916.666666667 1192 846 c 1
 1190 846 l 1
 1116 793 l 1
 1280 697 1362.66666667 576 1364 430 c 0
 1364 322 1327 227 1253 145 c 1
 1225 117 l 1
 1217 109 l 1
 1130.33333333 36.3333333333 1004.66666667 0 840 0 c 2
 168 0 l 1xf4
475 1237 m 1
 475 899 l 1
 809 899 l 2
 947 899 1019.33333333 955 1026 1067 c 1
 1026 1173.66666667 961 1230.33333333 831 1237 c 0
 821 1237 821 1237 809 1237 c 2
 475 1237 l 1
475 643 m 1
 475 256 l 1
 842 256 l 2
 990.666666667 256 1066.33333333 320.333333333 1069 449 c 1xf4
 1069 578.333333333 993.333333333 643 842 643 c 2
 475 643 l 1
EndSplineSet
Validated: 1
EndChar

StartChar: C
Encoding: 67 67 38
Width: 1478
GlyphClass: 2
Flags: W
HStem: -47 258<599.058 958.22> 1255 263<604.317 960.198>
VStem: 90 307<451.632 1000.23> 1104 299<362.117 510 987 1108.9>
LayerCount: 2
Fore
SplineSet
1397 987 m 1
 1104 987 l 1
 1087.33333333 1058.33333333 1064.66666667 1111.66666667 1036 1147 c 0
 978.666666667 1219 894.666666667 1255 784 1255 c 0
 627.333333333 1255 516.333333333 1179.33333333 451 1028 c 0
 425 966.666666667 408.333333333 895 401 813 c 1
 397 729 l 1
 397 495.666666667 461.333333333 339.333333333 590 260 c 0
 643.333333333 227.333333333 704.666666667 211 774 211 c 0
 925.333333333 211 1026.33333333 272.333333333 1077 395 c 0
 1091 429 1100 467.333333333 1104 510 c 1
 1403 510 l 1
 1391.66666667 308 1308.33333333 156.333333333 1153 55 c 0
 1046.33333333 -13 917.333333333 -47 766 -47 c 0
 531.333333333 -47 353 40.3333333333 231 215 c 0
 137 350.333333333 90 523 90 733 c 0
 90 1017 172 1228.66666667 336 1368 c 0
 453.333333333 1468 599.333333333 1518 774 1518 c 0
 994 1518 1163.33333333 1445.33333333 1282 1300 c 1
 1296 1282 l 2
 1353.33333333 1206.66666667 1387 1108.33333333 1397 987 c 1
EndSplineSet
Validated: 1
EndChar

StartChar: D
Encoding: 68 68 39
Width: 1478
GlyphClass: 2
Flags: W
HStem: 0 256<465 915.009> 1237 256<465 913.402>
VStem: 158 307<256 1237> 1087 308<463.524 1034.48>
LayerCount: 2
Fore
SplineSet
158 0 m 1
 158 1493 l 1
 741 1493 l 2
 941.666666667 1493 1088.66666667 1446.66666667 1182 1354 c 1
 1212 1321 l 1
 1334 1177.66666667 1395 986.666666667 1395 748 c 0
 1395 507.333333333 1334 316 1212 174 c 1
 1122 64.6666666667 980.666666667 6.66666666667 788 0 c 1
 741 0 l 1
 158 0 l 1
465 256 m 1
 741 256 l 2
 970.333333333 256 1085.66666667 419 1087 745 c 0
 1087 1073 971.666666667 1237 741 1237 c 2
 465 1237 l 1
 465 256 l 1
EndSplineSet
Validated: 1
EndChar

StartChar: E
Encoding: 69 69 40
Width: 1366
GlyphClass: 2
Flags: W
HStem: 0 256<469 1278> 643 256<469 1184> 1237 256<469 1241>
VStem: 162 307<256 643 899 1237>
LayerCount: 2
Fore
SplineSet
469 643 m 1
 469 256 l 1
 1278 256 l 1
 1278 0 l 1
 162 0 l 1
 162 1493 l 1
 1241 1493 l 1
 1241 1237 l 1
 469 1237 l 1
 469 899 l 1
 1184 899 l 1
 1184 643 l 1
 469 643 l 1
EndSplineSet
Validated: 1
EndChar

StartChar: F
Encoding: 70 70 41
Width: 1251
GlyphClass: 2
Flags: W
HStem: 0 21G<152 459> 643 256<459 1112> 1237 256<459 1200>
VStem: 152 307<0 643 899 1237>
LayerCount: 2
Fore
SplineSet
459 643 m 1
 459 0 l 1
 152 0 l 1
 152 1493 l 1
 1200 1493 l 1
 1200 1237 l 1
 459 1237 l 1
 459 899 l 1
 1112 899 l 1
 1112 643 l 1
 459 643 l 1
EndSplineSet
Validated: 1
EndChar

StartChar: G
Encoding: 71 71 42
Width: 1593
GlyphClass: 2
Flags: W
HStem: -47 262<637.294 1003.03> 547 256<858 1198> 1255 263<616.968 1007.41>
VStem: 86 307<489.863 996.476> 1272 184<-4 72.3295>
LayerCount: 2
Fore
SplineSet
1456 803 m 1
 1456 -4 l 1
 1272 -4 l 1
 1235 193 l 1
 1142.33333333 56.3333333333 1023.66666667 -21.6666666667 879 -41 c 0
 849 -45 817.333333333 -47 784 -47 c 0
 580.666666667 -47 413.666666667 27.3333333333 283 176 c 0
 151.666666667 323.333333333 86 509.666666667 86 735 c 0
 86 985 161.666666667 1182.33333333 313 1327 c 0
 444.333333333 1454.33333333 609.666666667 1518 809 1518 c 0
 1035.66666667 1518 1208.33333333 1449.66666667 1327 1313 c 0
 1399.66666667 1231 1442.66666667 1132 1456 1016 c 1
 1167 1016 l 1
 1144.33333333 1081.33333333 1113.66666667 1131 1075 1165 c 0
 1007 1225 919 1255 811 1255 c 0
 643 1255 523.666666667 1181.33333333 453 1034 c 0
 413 953.333333333 393 855 393 739 c 0
 393 557.666666667 447 417 555 317 c 0
 629 249 717 215 819 215 c 0
 937.666666667 215 1036.66666667 259.333333333 1116 348 c 0
 1118.66666667 350.666666667 1121.33333333 354 1124 358 c 0
 1166.66666667 407.333333333 1191.33333333 470.333333333 1198 547 c 1
 858 547 l 1
 858 803 l 1
 1456 803 l 1
EndSplineSet
Validated: 1
EndChar

StartChar: H
Encoding: 72 72 43
Width: 1478
GlyphClass: 2
Flags: W
HStem: 0 21G<139 446 1038 1346> 678 256<446 1036> 1473 20G<139 446 1036 1346>
VStem: 139 307<0 678 934 1493> 1038 308<0 678 934 1493>
LayerCount: 2
Fore
SplineSet
1038 678 m 1
 446 678 l 1
 446 0 l 1
 139 0 l 1
 139 1493 l 1
 446 1493 l 1
 446 934 l 1
 1036 934 l 1
 1036 1493 l 1
 1346 1493 l 1
 1346 0 l 1
 1038 0 l 1
 1038 678 l 1
EndSplineSet
Validated: 1
EndChar

StartChar: I
Encoding: 73 73 44
Width: 569
GlyphClass: 2
Flags: W
HStem: 0 21G<129 436> 1473 20G<129 436>
VStem: 129 307<0 1493>
LayerCount: 2
Fore
SplineSet
436 1493 m 1
 436 0 l 1
 129 0 l 1
 129 1493 l 1
 436 1493 l 1
EndSplineSet
Validated: 1
EndChar

StartChar: J
Encoding: 74 74 45
Width: 1138
GlyphClass: 2
Flags: W
HStem: -47 262<401.5 645.784> 1473 20G<688 995>
VStem: 49 307<259.297 553> 688 307<358 1493>
LayerCount: 2
Fore
SplineSet
688 1493 m 1
 995 1493 l 1
 995 389 l 2
 995 189.666666667 914 58 752 -6 c 0
 684.666666667 -33.3333333333 606 -47 516 -47 c 0
 375.333333333 -47 261.333333333 -7.33333333333 174 72 c 0
 96 144 54.3333333333 243 49 369 c 1
 49 406 l 1
 49 553 l 1
 356 553 l 1
 356 410 l 2
 356 300.666666667 393 237.666666667 467 221 c 0
 483.666666667 217 502 215 522 215 c 0
 622 215 676.666666667 262.666666667 686 358 c 1
 688 389 l 1
 688 1493 l 1
EndSplineSet
Validated: 1
EndChar

StartChar: K
Encoding: 75 75 46
Width: 1478
GlyphClass: 2
Flags: W
HStem: 0 21G<152 459 1087.13 1468> 1473 20G<152 459 1024.2 1405>
VStem: 152 307<0 500 838 1493>
LayerCount: 2
Fore
SplineSet
459 500 m 1
 459 0 l 1
 152 0 l 1
 152 1493 l 1
 459 1493 l 1
 459 838 l 1
 1042 1493 l 1
 1405 1493 l 1
 809 850 l 1
 1468 0 l 1
 1102 0 l 1
 612 659 l 1
 459 500 l 1
EndSplineSet
Validated: 1
EndChar

StartChar: L
Encoding: 76 76 47
Width: 1251
GlyphClass: 2
Flags: W
HStem: 0 256<471 1186> 1473 20G<164 471>
VStem: 164 307<256 1493>
LayerCount: 2
Fore
SplineSet
471 1493 m 1
 471 256 l 1
 1186 256 l 1
 1186 0 l 1
 164 0 l 1
 164 1493 l 1
 471 1493 l 1
EndSplineSet
Validated: 1
EndChar

StartChar: M
Encoding: 77 77 48
Width: 1705
GlyphClass: 2
Flags: W
HStem: 0 21G<135 442 706.374 1022.54 1282 1589> 1473 20G<135 598.545 1121.59 1589>
VStem: 135 307<0 1163> 1282 307<0 1163>
LayerCount: 2
Fore
SplineSet
442 1163 m 1
 442 0 l 1
 135 0 l 1
 135 1493 l 1
 594 1493 l 1
 864 305 l 1
 1126 1493 l 1
 1589 1493 l 1
 1589 0 l 1
 1282 0 l 1
 1282 1163 l 1
 1018 0 l 1
 711 0 l 1
 442 1163 l 1
EndSplineSet
Validated: 1
EndChar

StartChar: N
Encoding: 78 78 49
Width: 1478
GlyphClass: 2
Flags: W
HStem: 0 21G<139 446 1035.35 1354> 1473 20G<139 466.654 1047 1354>
VStem: 139 307<0 1032> 1047 307<477 1493>
LayerCount: 2
Fore
SplineSet
1047 0 m 1
 446 1032 l 1
 446 0 l 1
 139 0 l 1
 139 1493 l 1
 455 1493 l 1
 1047 477 l 1
 1047 1493 l 1
 1354 1493 l 1
 1354 0 l 1
 1047 0 l 1
EndSplineSet
Validated: 1
EndChar

StartChar: O
Encoding: 79 79 50
Width: 1593
GlyphClass: 2
Flags: W
HStem: -47 262<616.047 986.3> 1255 263<612.498 986.05>
VStem: 84 305<474.836 988.712> 1212 308<477.358 991.859>
LayerCount: 2
Fore
SplineSet
799 1518 m 0
 1011.66666667 1518 1182.33333333 1449 1311 1311 c 0
 1444.33333333 1167.66666667 1514 981.333333333 1520 752 c 1
 1520 725 l 2
 1520 543.666666667 1471.33333333 382 1374 240 c 0
 1355.33333333 211.333333333 1334.33333333 184.666666667 1311 160 c 0
 1182.33333333 22 1012.33333333 -47 801 -47 c 0
 589 -47 419 22 291 160 c 0
 167.666666667 290.666666667 98.6666666667 459.333333333 84 666 c 1
 82 735 l 1
 82 949.666666667 142 1130.66666667 262 1278 c 1
 264 1280 l 1
 266 1282 l 1
 266 1282 266 1282 268 1284 c 0
 275.333333333 1292 283 1301 291 1311 c 0
 417.666666667 1449 587 1518 799 1518 c 0
801 1255 m 0
 653.666666667 1255 542.333333333 1191 467 1063 c 1
 467 1061 l 1
 415 972.333333333 389 863.666666667 389 735 c 0
 389 538.333333333 445 393 557 299 c 0
 625 243 706.333333333 215 801 215 c 0
 944.333333333 215 1054 277.666666667 1130 403 c 0
 1184.66666667 491 1212 599 1212 727 c 0
 1212 937 1152.66666667 1088 1034 1180 c 0
 968.666666667 1230 891 1255 801 1255 c 0
EndSplineSet
Validated: 1
EndChar

StartChar: P
Encoding: 80 80 51
Width: 1366
GlyphClass: 2
Flags: W
HStem: 0 21G<156 463> 532 256<463 913.14> 1237 256<463 911.735>
VStem: 156 307<0 532 788 1237> 989 307<981 1162.98>
LayerCount: 2
Fore
SplineSet
463 532 m 1
 463 0 l 1
 156 0 l 1
 156 1493 l 1
 815 1493 l 2
 1057 1493 1208.66666667 1401 1270 1217 c 0
 1270 1214 1270 1214 1270 1212 c 0
 1287.33333333 1159.33333333 1296 1098.66666667 1296 1030 c 0
 1296 838.666666667 1234 699.333333333 1110 612 c 1
 1110 610 l 1
 1108 608 l 1
 1034 557.333333333 946.666666667 532 846 532 c 2
 463 532 l 1
463 788 m 1
 750 788 l 2
 898.666666667 788 977.666666667 852.333333333 987 981 c 2
 989 1012 l 1
 989 1148.66666667 923.666666667 1223 793 1235 c 1
 750 1237 l 1
 463 1237 l 1
 463 788 l 1
EndSplineSet
Validated: 1
EndChar

StartChar: Q
Encoding: 81 81 52
Width: 1593
GlyphClass: 2
Flags: W
HStem: -47 262<626.539 982.204> 1255 263<619.4 993.57>
VStem: 88 307<474.997 989.736> 1219 307<466.511 995.25>
LayerCount: 2
Fore
SplineSet
1362 211 m 1
 1526 55 l 1
 1370 -111 l 1
 1194 55 l 1
 1080.66666667 -13 951.666666667 -47 807 -47 c 0
 595 -47 425 22 297 160 c 0
 177 289.333333333 108.666666667 455 92 657 c 0
 89.3333333333 681.666666667 88 707.666666667 88 735 c 0
 88 941 144.666666667 1118 258 1266 c 1
 297 1311 l 1
 425 1449 595 1518 807 1518 c 0
 1018.33333333 1518 1188.33333333 1449 1317 1311 c 0
 1435.66666667 1182.33333333 1504 1019.66666667 1522 823 c 0
 1526 739 1526 739 1526 739 c 1
 1526 560.333333333 1485.66666667 404.666666667 1405 272 c 1
 1362 211 l 1
983 569 m 1
 1151 410 l 1
 1196.33333333 500 1219 607.666666667 1219 733 c 0
 1219 935 1161.66666667 1082.66666667 1047 1176 c 0
 979.666666667 1228.66666667 899.666666667 1255 807 1255 c 0
 659.666666667 1255 548.333333333 1191 473 1063 c 1
 473 1061 l 1
 421 972.333333333 395 863.666666667 395 735 c 0
 395 538.333333333 451 393 563 299 c 0
 631.666666667 243 712.333333333 215 805 215 c 0
 875.666666667 215 935.666666667 228 985 254 c 1
 827 403 l 1
 983 569 l 1
EndSplineSet
Validated: 1
EndChar

StartChar: R
Encoding: 82 82 53
Width: 1478
GlyphClass: 2
Flags: W
HStem: 0 21G<164 471 1042.67 1386> 592 256<471 967.583> 1237 256<471 1005.07>
VStem: 164 307<0 592 848 1237> 1010 311<71.8638 549.237> 1059 307<898.218 1185.42>
LayerCount: 2
Fore
SplineSet
471 592 m 1xf8
 471 0 l 1
 164 0 l 1
 164 1493 l 1
 965 1493 l 2
 1090.33333333 1493 1186.33333333 1459 1253 1391 c 0
 1328.33333333 1314.33333333 1366 1214 1366 1090 c 0xf4
 1366 909.333333333 1282 786.333333333 1114 721 c 1
 1192 687 1242 655.666666667 1264 627 c 0
 1294 585.666666667 1311.66666667 496.666666667 1317 360 c 0
 1318.33333333 319.333333333 1319.66666667 258.666666667 1321 178 c 0
 1321 123.333333333 1340 84.3333333333 1378 61 c 1
 1380 59 l 1
 1386 55 l 1
 1386 0 l 1
 1057 0 l 1
 1028.33333333 52 1012.66666667 115.333333333 1010 190 c 1
 1010 256 l 1
 1012 354 l 1
 1014 414 l 1
 1014 513.333333333 972.333333333 570.666666667 889 586 c 0
 869.666666667 590 847.666666667 592 823 592 c 2
 471 592 l 1xf8
471 848 m 1
 842 848 l 2
 919.333333333 848 973.333333333 861 1004 887 c 0
 1040.66666667 918.333333333 1059 971.666666667 1059 1047 c 0
 1059 1116.33333333 1040.66666667 1166.66666667 1004 1198 c 0
 973.333333333 1222.66666667 919.333333333 1235.66666667 842 1237 c 2
 471 1237 l 1
 471 848 l 1
EndSplineSet
Validated: 1
EndChar

StartChar: S
Encoding: 83 83 54
Width: 1366
GlyphClass: 2
Flags: W
HStem: -47 246<604 904.676> 1272 246<461.229 844.148>
VStem: 92 293<978.228 1177.01> 1001 295<285.685 519.541>
LayerCount: 2
Fore
SplineSet
1243 1038 m 1
 956 1038 l 1
 946.666666667 1176 861.333333333 1253.33333333 700 1270 c 1
 643 1272 l 1
 520.333333333 1272 440.333333333 1235.66666667 403 1163 c 0
 401 1161 401 1161 401 1161 c 1
 390.333333333 1139 385 1114.33333333 385 1087 c 0
 385 1024.33333333 413.666666667 978.666666667 471 950 c 0
 502.333333333 934 546 919.666666667 602 907 c 0
 603.333333333 907 604.666666667 906.333333333 606 905 c 2
 668 893 l 1
 901 848 l 2
 1099 810 1222 728.666666667 1270 604 c 0
 1287.33333333 558 1296 502 1296 436 c 0
 1296 245.333333333 1213 109 1047 27 c 0
 948.333333333 -22.3333333333 827.333333333 -47 684 -47 c 0
 390.666666667 -47 200.333333333 50 113 244 c 0
 85.6666666667 302.666666667 70 370 66 446 c 1
 365 446 l 1
 373 310 452.666666667 229.666666667 604 205 c 1
 700 199 l 1
 848 199 942.333333333 240 983 322 c 0
 995 344.666666667 1001 370.333333333 1001 399 c 0
 1001 478.333333333 961.666666667 535.666666667 883 571 c 0
 843 589 789 604 721 616 c 2
 512 657 l 2
 315.333333333 694.333333333 189.666666667 762.666666667 135 862 c 1
 133 864 l 1
 133 866 l 1
 133 866 133 866 131 868 c 0
 105 918.666666667 92 982.333333333 92 1059 c 0
 92 1254.33333333 177.333333333 1388.66666667 348 1462 c 0
 434 1499.33333333 537 1518 657 1518 c 0
 874.333333333 1518 1035 1461.33333333 1139 1348 c 0
 1208.33333333 1271.33333333 1243 1168 1243 1038 c 1
EndSplineSet
Validated: 1
EndChar

StartChar: T
Encoding: 84 84 55
Width: 1251
GlyphClass: 2
Flags: W
HStem: 0 21G<481 788> 1237 256<29 481 788 1225>
VStem: 481 307<0 1237>
LayerCount: 2
Fore
SplineSet
788 1237 m 1
 788 0 l 1
 481 0 l 1
 481 1237 l 1
 29 1237 l 1
 29 1493 l 1
 1225 1493 l 1
 1225 1237 l 1
 788 1237 l 1
EndSplineSet
Validated: 1
EndChar

StartChar: U
Encoding: 85 85 56
Width: 1478
GlyphClass: 2
Flags: W
HStem: -47 262<569.068 927.524> 1473 20G<156 463 1032 1339>
VStem: 156 307<318.119 1493> 1032 307<319.5 1493>
LayerCount: 2
Fore
SplineSet
1032 1493 m 1
 1339 1493 l 1
 1339 481 l 2
 1339 317.666666667 1290.66666667 192 1194 104 c 0
 1083.33333333 3.33333333333 934.666666667 -47 748 -47 c 0
 562 -47 413 3.33333333333 301 104 c 0
 204.333333333 190 156 315.666666667 156 481 c 2
 156 1493 l 1
 463 1493 l 1
 463 481 l 2
 463 309 558 220.333333333 748 215 c 1
 932 215 1026.66666667 303.666666667 1032 481 c 1
 1032 1493 l 1
EndSplineSet
Validated: 1
EndChar

StartChar: V
Encoding: 86 86 57
Width: 1366
GlyphClass: 2
Flags: W
HStem: 0 21G<546.248 819.859> 1473 20G<49 363.907 1010.2 1325>
LayerCount: 2
Fore
SplineSet
813 0 m 1
 553 0 l 1
 49 1493 l 1
 358 1493 l 1
 690 369 l 1
 1016 1493 l 1
 1325 1493 l 1
 813 0 l 1
EndSplineSet
Validated: 1
EndChar

StartChar: W
Encoding: 87 87 58
Width: 1933
GlyphClass: 2
Flags: W
HStem: 0 21G<443.347 729.189 1214.71 1500.55> 1473 20G<27 356.15 810.868 1122.32 1579.02 1909>
LayerCount: 2
Fore
SplineSet
1495 0 m 1
 1219 0 l 1
 969 1165 l 1
 725 0 l 1
 449 0 l 1
 27 1493 l 1
 352 1493 l 1
 584 375 l 1
 815 1493 l 1
 1118 1493 l 1
 1360 373 l 1
 1583 1493 l 1
 1909 1493 l 1
 1495 0 l 1
EndSplineSet
Validated: 1
EndChar

StartChar: X
Encoding: 88 88 59
Width: 1366
GlyphClass: 2
Flags: W
HStem: 0 21G<45 412.004 961.919 1337> 1473 20G<61 436.65 951.821 1319>
LayerCount: 2
Fore
SplineSet
858 762 m 1
 1337 0 l 1
 973 0 l 1
 686 518 l 1
 401 0 l 1
 45 0 l 1
 516 752 l 1
 61 1493 l 1
 426 1493 l 1
 688 1001 l 1
 963 1493 l 1
 1319 1493 l 1
 858 762 l 1
EndSplineSet
Validated: 1
EndChar

StartChar: Y
Encoding: 89 89 60
Width: 1366
GlyphClass: 2
Flags: W
HStem: 0 21G<551 858> 1473 20G<55 406.256 978.351 1331>
VStem: 551 307<0 553>
LayerCount: 2
Fore
SplineSet
858 553 m 1
 858 0 l 1
 551 0 l 1
 551 553 l 1
 55 1493 l 1
 397 1493 l 1
 702 834 l 1
 987 1493 l 1
 1331 1493 l 1
 858 553 l 1
EndSplineSet
Validated: 1
EndChar

StartChar: Z
Encoding: 90 90 61
Width: 1251
GlyphClass: 2
Flags: W
HStem: 0 256<422 1184> 1237 256<61 825>
LayerCount: 2
Fore
SplineSet
1184 1493 m 1
 1184 1237 l 1
 422 256 l 1
 1184 256 l 1
 1184 0 l 1
 61 0 l 1
 61 256 l 1
 825 1237 l 1
 61 1237 l 1
 61 1493 l 1
 1184 1493 l 1
EndSplineSet
Validated: 1
EndChar

StartChar: bracketleft
Encoding: 91 91 62
Width: 681
GlyphClass: 2
Flags: W
HStem: -410 209<401 631> 1284 209<401 631>
VStem: 135 496<-410 -201 1284 1493> 135 266<-201 1284>
LayerCount: 2
Fore
SplineSet
631 1493 m 1xe0
 631 1284 l 1xe0
 401 1284 l 1
 401 -201 l 1xd0
 631 -201 l 1
 631 -410 l 1
 135 -410 l 1
 135 1493 l 1
 631 1493 l 1xe0
EndSplineSet
Validated: 1
EndChar

StartChar: backslash
Encoding: 92 92 63
Width: 569
GlyphClass: 2
Flags: W
VStem: -25 617
LayerCount: 2
Fore
SplineSet
113 1462 m 1
 592 -29 l 1
 455 -29 l 1
 -25 1462 l 1
 113 1462 l 1
EndSplineSet
Validated: 1
EndChar

StartChar: bracketright
Encoding: 93 93 64
Width: 681
GlyphClass: 2
Flags: W
HStem: -410 209<37 266> 1284 209<37 266>
VStem: 37 495<-410 -201 1284 1493> 266 266<-201 1284>
LayerCount: 2
Fore
SplineSet
37 -410 m 1xe0
 37 -201 l 1xe0
 266 -201 l 1
 266 1284 l 1xd0
 37 1284 l 1
 37 1493 l 1
 532 1493 l 1
 532 -410 l 1
 37 -410 l 1xe0
EndSplineSet
Validated: 1
EndChar

StartChar: asciicircum
Encoding: 94 94 65
Width: 1196
GlyphClass: 2
Flags: W
LayerCount: 2
Fore
SplineSet
1069 553 m 1
 838 553 l 1
 590 1167 l 1
 354 553 l 1
 125 553 l 1
 463 1423 l 1
 719 1423 l 1
 1069 553 l 1
EndSplineSet
Validated: 1
EndChar

StartChar: underscore
Encoding: 95 95 66
Width: 1138
GlyphClass: 2
Flags: W
HStem: -387 141<-45 1184>
LayerCount: 2
Fore
SplineSet
1184 -246 m 1
 1184 -387 l 1
 -45 -387 l 1
 -45 -246 l 1
 1184 -246 l 1
EndSplineSet
Validated: 1
EndChar

StartChar: grave
Encoding: 96 96 67
Width: 681
GlyphClass: 2
Flags: W
HStem: 1243 307
VStem: 34 401
LayerCount: 2
Fore
SplineSet
34 1550 m 1
 292 1550 l 1
 435 1243 l 1
 292 1243 l 1
 34 1550 l 1
EndSplineSet
Validated: 1
EndChar

StartChar: a
Encoding: 97 97 68
Width: 1138
GlyphClass: 2
Flags: W
HStem: -47 231<377.022 580.14> 0 21G<751 1073> 893 231<401.811 700.212>
VStem: 57 287<217.188 416.625> 727 281<56.1233 111 271.822 522 698.423 863.688>
LayerCount: 2
Fore
SplineSet
1073 35 m 1xb8
 1073 0 l 1
 762 0 l 1x78
 740 26 729 63 729 111 c 1
 628.333333333 5.66666666667 516.333333333 -47 393 -47 c 0
 288.333333333 -47 202.333333333 -12.3333333333 135 57 c 0
 83 113 57 189 57 285 c 0
 57 480.333333333 165.666666667 596.333333333 383 633 c 2
 498 653 l 2
 590.666666667 668.333333333 647.333333333 680.666666667 668 690 c 2
 678 696 l 2
 709.333333333 712.666666667 725.666666667 741.333333333 727 782 c 0
 727 856 671.666666667 893 561 893 c 0
 468.333333333 893 409 871 383 827 c 1
 383 825 l 1
 371 805 362.666666667 777 358 741 c 1
 82 741 l 1
 100 993.666666667 257.666666667 1121.33333333 555 1124 c 1
 855.666666667 1124 1006.66666667 1010.66666667 1008 784 c 2
 1008 170 l 2
 1008 123.333333333 1025.66666667 82.3333333333 1061 47 c 2
 1073 35 l 1xb8
727 444 m 2
 727 522 l 1
 701 510 660.666666667 498.333333333 606 487 c 2
 508 469 l 1
 418 449.666666667 365.333333333 415.666666667 350 367 c 1
 350 365 l 1
 346 352.333333333 344 336.333333333 344 317 c 0
 344 250.333333333 377.333333333 208 444 190 c 0
 460.666666667 186 479.333333333 184 500 184 c 0xb8
 618.666666667 184 691 240.666666667 717 354 c 0
 723.666666667 381.333333333 727 411.333333333 727 444 c 2
EndSplineSet
Validated: 5
EndChar

StartChar: b
Encoding: 98 98 69
Width: 1251
GlyphClass: 2
Flags: W
HStem: -47 240<527.363 775.871> 0 21G<120 407> 885 239<528.052 772.677> 1473 20G<120 407>
VStem: 120 287<0 113 324.945 752.367 963 1493> 890 287<329.152 752.867>
LayerCount: 2
Fore
SplineSet
120 1493 m 1x7c
 407 1493 l 1
 407 963 l 1
 475 1070.33333333 576.666666667 1124 712 1124 c 0
 828 1124 927.666666667 1083 1011 1001 c 0
 1028.33333333 983.666666667 1044 965.333333333 1058 946 c 0
 1137.33333333 832.666666667 1177 697 1177 539 c 0
 1177 351.666666667 1123 200.666666667 1015 86 c 0
 929 -2.66666666667 828 -47 712 -47 c 0xbc
 576.666666667 -47 475 6.33333333333 407 113 c 1
 407 0 l 1
 120 0 l 1
 120 1493 l 1x7c
648 885 m 0
 558 885 490.333333333 836.333333333 445 739 c 1
 419.666666667 683 407 617.666666667 407 543 c 0
 407 393.666666667 447.666666667 289.666666667 529 231 c 0
 563.666666667 205.666666667 603.333333333 193 648 193 c 0
 735.333333333 193 802.333333333 240 849 334 c 0
 876.333333333 391.333333333 890 459 890 537 c 0
 890 675.666666667 851.666666667 776.666666667 775 840 c 0
 737 870 694.666666667 885 648 885 c 0
EndSplineSet
Validated: 1
EndChar

StartChar: c
Encoding: 99 99 70
Width: 1138
GlyphClass: 2
Flags: W
HStem: -47 231<463.19 715.656> 881 243<440.25 729.735>
VStem: 69 286<305.526 775.065> 794 274<302.097 383 692 774>
LayerCount: 2
Fore
SplineSet
1068 692 m 1
 794 692 l 1
 770.666666667 797.333333333 729 860.333333333 669 881 c 1
 667 881 l 1
 645 889 619 893 589 893 c 0
 504.333333333 893 445 861.666666667 411 799 c 0
 373.666666667 730.333333333 355 640.666666667 355 530 c 0
 355 364 400.333333333 257 491 209 c 0
 521 192.333333333 553.666666667 184 589 184 c 0
 671 184 729.666666667 221.666666667 765 297 c 1
 765 299 l 1
 767 301 l 1
 776.333333333 324.333333333 785.333333333 351.666666667 794 383 c 1
 1068 383 l 1
 1050 213.666666667 975.666666667 91.3333333333 845 16 c 0
 769.666666667 -26 683.666666667 -47 587 -47 c 0
 371 -47 220.666666667 37.6666666667 136 207 c 0
 91.3333333333 295.666666667 69 403.333333333 69 530 c 0
 69 785.333333333 150 961 312 1057 c 0
 390 1101.66666667 483 1124 591 1124 c 0
 779 1124 914.666666667 1057.33333333 998 924 c 0
 1024 878.666666667 1043.33333333 828.666666667 1056 774 c 1
 1068 692 l 1
EndSplineSet
Validated: 1
EndChar

StartChar: d
Encoding: 100 100 71
Width: 1251
GlyphClass: 2
Flags: W
HStem: -47 240<462.047 705.871> 0 21G<829 1116> 885 239<460.351 707.241> 1473 20G<829 1116>
VStem: 59 287<323.584 745.101> 829 287<0 113 324.725 755.241 963 1493>
LayerCount: 2
Fore
SplineSet
829 0 m 1x7c
 829 113 l 1
 758.333333333 6.33333333333 656.666666667 -47 524 -47 c 0xbc
 409.333333333 -47 309.666666667 -6.66666666667 225 74 c 0
 207.666666667 91.3333333333 192 109.666666667 178 129 c 0
 98.6666666667 242.333333333 59 378.333333333 59 537 c 0
 59 723.666666667 113 874.333333333 221 989 c 0
 305.666666667 1079 406.666666667 1124 524 1124 c 0
 658 1124 759.666666667 1070.33333333 829 963 c 1
 829 1493 l 1
 1116 1493 l 1
 1116 0 l 1
 829 0 l 1x7c
588 885 m 0
 498 885 431 836.333333333 387 739 c 0
 359.666666667 681.666666667 346 614.333333333 346 537 c 0
 346 396.333333333 385 296 463 236 c 0
 499.666666667 207.333333333 541.333333333 193 588 193 c 0
 679.333333333 193 747 241.333333333 791 338 c 0
 816.333333333 392.666666667 829 457.333333333 829 532 c 0
 829 681.333333333 789 786 709 846 c 0
 674.333333333 872 634 885 588 885 c 0
EndSplineSet
Validated: 1
EndChar

StartChar: e
Encoding: 101 101 72
Width: 1138
GlyphClass: 2
Flags: W
HStem: -47 219<422.146 710.939> 463 190<336 776> 905 219<422.71 685.357>
VStem: 45 287<262.375 463 653 796.344> 780 283<243.182 311 653 805.695>
LayerCount: 2
Fore
SplineSet
1073 463 m 1
 332 463 l 1
 336 370.333333333 349.666666667 305.333333333 373 268 c 0
 415 204 477.666666667 172 561 172 c 0
 663.666666667 172 734.666666667 213.666666667 774 297 c 0
 776.666666667 301 778.666666667 305.666666667 780 311 c 1
 1063 311 l 1
 1023.66666667 173 937.666666667 72.6666666667 805 10 c 0
 728.333333333 -28 643.666666667 -47 551 -47 c 0
 357 -47 215.666666667 28 127 178 c 0
 72.3333333333 272 45 387.333333333 45 524 c 0
 45 760.666666667 116 930.666666667 258 1034 c 0
 340 1094 439.666666667 1124 557 1124 c 0
 727.666666667 1124 860.666666667 1062.66666667 956 940 c 0
 984.666666667 903.333333333 1008 862.333333333 1026 817 c 0
 1028.66666667 811.666666667 1030.66666667 807 1032 803 c 0
 1060.66666667 719.666666667 1075 622.666666667 1075 512 c 1
 1073 463 l 1
336 653 m 1
 776 653 l 1
 770.666666667 721.666666667 755.666666667 775 731 813 c 0
 687.666666667 873 628.333333333 903.666666667 553 905 c 0
 427.666666667 905 355.333333333 821 336 653 c 1
EndSplineSet
Validated: 1
EndChar

StartChar: f
Encoding: 102 102 73
Width: 681
GlyphClass: 2
Flags: W
HStem: 0 21G<184 471> 893 190<29 184 471 641> 1272 215<476.72 631>
VStem: 184 287<0 893 1083 1266.32>
LayerCount: 2
Fore
SplineSet
641 1083 m 1
 641 893 l 1
 471 893 l 1
 471 0 l 1
 184 0 l 1
 184 893 l 1
 29 893 l 1
 29 1083 l 1
 184 1083 l 1
 184 1217 l 2
 184 1401 278.333333333 1493 467 1493 c 1
 631 1487 l 1
 631 1272 l 1
 549 1278 l 1
 499.666666667 1278 473.666666667 1249.33333333 471 1192 c 1
 471 1083 l 1
 641 1083 l 1
EndSplineSet
Validated: 1
EndChar

StartChar: g
Encoding: 103 103 74
Width: 1251
GlyphClass: 2
Flags: W
HStem: -442 180<444.051 746.766> -47 240<465.233 701.561> 885 239<465.16 692.893> 1086 20G<836 1108>
VStem: 70 286<316.86 749.055> 836 272<-173.16 113 322.908 750.315 936 1106>
LayerCount: 2
Fore
SplineSet
836 1106 m 1xdc
 1108 1106 l 1xdc
 1108 -37 l 2
 1108 -214.333333333 1024.66666667 -335.666666667 858 -401 c 0
 806 -421.666666667 747.333333333 -435.333333333 682 -442 c 1
 582 -446 l 1
 415.333333333 -446 288.333333333 -410.666666667 201 -340 c 0
 131 -281.333333333 94.6666666667 -212.333333333 92 -133 c 1
 389 -133 l 1
 412.333333333 -217.666666667 480 -260.666666667 592 -262 c 0
 692.666666667 -262 764.333333333 -224.666666667 807 -150 c 0
 826.333333333 -116.666666667 836 -79 836 -37 c 2
 836 113 l 1
 760.666666667 27 686 -23.6666666667 612 -39 c 0
 586 -44.3333333333 556 -47 522 -47 c 0
 365.333333333 -47 245.333333333 20.6666666667 162 156 c 0
 100.666666667 255.333333333 70 378.666666667 70 526 c 0
 70 718.666666667 123.666666667 873 231 989 c 0
 314.333333333 1079 413.333333333 1124 528 1124 c 0xec
 647.333333333 1124 747 1065.33333333 827 948 c 1
 836 936 l 1
 836 1106 l 1xdc
590 885 m 0xec
 501.333333333 885 435.666666667 835 393 735 c 0
 368.333333333 677.666666667 356 609.333333333 356 530 c 0
 356 391.333333333 393.666666667 292.333333333 469 233 c 0
 504.333333333 206.333333333 543.333333333 193 586 193 c 0
 681.333333333 193 752.333333333 240.666666667 799 336 c 0
 826.333333333 390.666666667 840 455.333333333 840 530 c 0
 840 664 802.333333333 764.333333333 727 831 c 0
 686.333333333 867 640.666666667 885 590 885 c 0xec
EndSplineSet
Validated: 1
EndChar

StartChar: h
Encoding: 104 104 75
Width: 1251
GlyphClass: 2
Flags: W
HStem: 0 21G<137 424 821 1108> 881 243<564.544 767.117> 1473 20G<137 424>
VStem: 137 287<0 799.078 946 1493> 821 287<0 825.376>
LayerCount: 2
Fore
SplineSet
137 1493 m 1
 424 1493 l 1
 424 946 l 1
 503.333333333 1064.66666667 611.333333333 1124 748 1124 c 0
 846 1124 928.333333333 1096 995 1040 c 0
 1070.33333333 977.333333333 1108 877.666666667 1108 741 c 2
 1108 0 l 1
 821 0 l 1
 821 676 l 2
 821 734.666666667 810 780.333333333 788 813 c 0
 755.333333333 858.333333333 707.666666667 881 645 881 c 0
 555 881 490.333333333 845.333333333 451 774 c 0
 433 741.333333333 424 704.666666667 424 664 c 2
 424 0 l 1
 137 0 l 1
 137 1493 l 1
EndSplineSet
Validated: 1
EndChar

StartChar: i
Encoding: 105 105 76
Width: 569
GlyphClass: 2
Flags: W
HStem: 0 21G<137 424> 1086 20G<137 424> 1237 256<137 424>
VStem: 137 287<0 1106 1237 1493>
LayerCount: 2
Fore
SplineSet
424 1106 m 1
 424 0 l 1
 137 0 l 1
 137 1106 l 1
 424 1106 l 1
424 1493 m 1
 424 1237 l 1
 137 1237 l 1
 137 1493 l 1
 424 1493 l 1
EndSplineSet
Validated: 1
EndChar

StartChar: j
Encoding: 106 106 77
Width: 569
GlyphClass: 2
Flags: W
HStem: -446 21G<8 202> 1086 20G<143 430> 1237 256<143 430>
VStem: 143 287<-204.978 1106 1237 1493>
LayerCount: 2
Fore
SplineSet
430 1106 m 1
 430 -193 l 2
 430 -322.333333333 386.333333333 -401.333333333 299 -430 c 0
 266.333333333 -440.666666667 226 -446 178 -446 c 1
 8 -436 l 1
 8 -207 l 1
 57 -215 l 1
 59 -215 l 2
 107 -215 134.333333333 -197.333333333 141 -162 c 0
 141 -160 141 -160 141 -160 c 1
 143 -129 l 1
 143 1106 l 1
 430 1106 l 1
430 1493 m 1
 430 1237 l 1
 143 1237 l 1
 143 1493 l 1
 430 1493 l 1
EndSplineSet
Validated: 1
EndChar

StartChar: k
Encoding: 107 107 78
Width: 1138
GlyphClass: 2
Flags: W
HStem: 0 21G<121 408 775.158 1122> 1086 20G<753.163 1096> 1473 20G<121 408>
VStem: 121 287<0 362 676 1493>
LayerCount: 2
Fore
SplineSet
408 676 m 1
 770 1106 l 1
 1096 1106 l 1
 719 688 l 1
 1122 0 l 1
 786 0 l 1
 522 487 l 1
 408 362 l 1
 408 0 l 1
 121 0 l 1
 121 1493 l 1
 408 1493 l 1
 408 676 l 1
EndSplineSet
Validated: 1
EndChar

StartChar: l
Encoding: 108 108 79
Width: 569
GlyphClass: 2
Flags: W
HStem: 0 21G<137 424> 1473 20G<137 424>
VStem: 137 287<0 1493>
LayerCount: 2
Fore
SplineSet
424 1493 m 1
 424 0 l 1
 137 0 l 1
 137 1493 l 1
 424 1493 l 1
EndSplineSet
Validated: 1
EndChar

StartChar: m
Encoding: 109 109 80
Width: 1820
GlyphClass: 2
Flags: W
HStem: 0 21G<123 410 762 1049 1401 1688> 881 243<645 723.145 1151.92 1365.93> 1086 20G<123 408>
VStem: 123 287<0 813.325 969 1106> 762 287<0 813.325> 1401 287<0 845.179>
CounterMasks: 1 1c
LayerCount: 2
Fore
SplineSet
123 1106 m 1xbc
 408 1106 l 1xbc
 408 969 l 1
 481.333333333 1057.66666667 560.333333333 1108 645 1120 c 1
 711 1124 l 1
 841.666666667 1124 936.333333333 1078.33333333 995 987 c 1
 997 985 l 2
 1003 978.333333333 1008 970.333333333 1012 961 c 1
 1090.66666667 1065.66666667 1198.33333333 1120 1335 1124 c 1
 1496.33333333 1124 1603.66666667 1064 1657 944 c 0
 1677.66666667 897.333333333 1688 843.333333333 1688 782 c 2
 1688 0 l 1
 1401 0 l 1
 1401 737 l 2
 1401 809.666666667 1367.33333333 855.333333333 1300 874 c 0
 1284 878.666666667 1265.66666667 881 1245 881 c 0
 1149.66666667 881 1088.33333333 837.333333333 1061 750 c 0
 1053 725.333333333 1049 696.666666667 1049 664 c 2
 1049 0 l 1
 762 0 l 1
 762 737 l 2
 762 809.666666667 728.666666667 855.333333333 662 874 c 0
 645.333333333 878.666666667 626.666666667 881 606 881 c 0xdc
 510.666666667 881 449.333333333 837.333333333 422 750 c 0
 414 725.333333333 410 696.666666667 410 664 c 2
 410 0 l 1
 123 0 l 1
 123 1106 l 1xbc
EndSplineSet
Validated: 1
EndChar

StartChar: n
Encoding: 110 110 81
Width: 1251
GlyphClass: 2
Flags: W
HStem: 0 21G<129 416 831 1118> 881 243<557.919 779.07> 1086 20G<129 416>
VStem: 129 287<0 802.134 946 1106> 831 287<0 828.092>
LayerCount: 2
Fore
SplineSet
129 1106 m 1xb8
 416 1106 l 1xb8
 416 946 l 1
 490.666666667 1058 592.333333333 1117.33333333 721 1124 c 0
 733 1124 733 1124 748 1124 c 0
 921.333333333 1124 1035.33333333 1055.33333333 1090 918 c 0
 1108.66666667 867.333333333 1118 808.333333333 1118 741 c 2
 1118 0 l 1
 831 0 l 1
 831 682 l 2
 831 814.666666667 769.666666667 881 647 881 c 0xd8
 546.333333333 881 476.666666667 842.666666667 438 766 c 0
 423.333333333 736 416 702 416 664 c 2
 416 0 l 1
 129 0 l 1
 129 1106 l 1xb8
EndSplineSet
Validated: 1
EndChar

StartChar: o
Encoding: 111 111 82
Width: 1251
GlyphClass: 2
Flags: W
HStem: -47 231<484.984 752.906> 893 231<481.14 755.182>
VStem: 72 286<324.698 743.852> 879 286<331.574 754.806>
LayerCount: 2
Fore
SplineSet
616 1124 m 0
 841.333333333 1124 1000 1038.66666667 1092 868 c 0
 1140.66666667 775.333333333 1165 662.666666667 1165 530 c 0
 1165 313.333333333 1094 153.666666667 952 51 c 0
 860.666666667 -14.3333333333 749.333333333 -47 618 -47 c 0
 405.333333333 -47 252 31.3333333333 158 188 c 0
 100.666666667 282.666666667 72 399.666666667 72 539 c 0
 72 765.666666667 145 930 291 1032 c 0
 379.666666667 1093.33333333 488 1124 616 1124 c 0
618 893 m 1
 518.666666667 893 445.666666667 842.333333333 399 741 c 0
 371.666666667 683.666666667 358 616.333333333 358 539 c 0
 358 394.333333333 399.666666667 290.333333333 483 227 c 0
 523 198.333333333 568 184 618 184 c 0
 714 184 786 232 834 328 c 0
 864 386.666666667 879 455.666666667 879 535 c 0
 879 689 835.333333333 795.333333333 748 854 c 0
 714.666666667 877.333333333 671.333333333 890.333333333 618 893 c 1
EndSplineSet
Validated: 1
EndChar

StartChar: p
Encoding: 112 112 83
Width: 1251
GlyphClass: 2
Flags: W
HStem: -446 21G<119 406> -49 239<534.173 773.741> 885 239<537.997 774.662> 1086 20G<119 406>
VStem: 119 287<-446 131 319.586 750.55 942 1106> 889 287<326.007 755.244>
LayerCount: 2
Fore
SplineSet
406 1106 m 1xdc
 406 942 l 1
 474 1063.33333333 576.333333333 1124 713 1124 c 0xec
 823.666666667 1124 921.333333333 1086 1006 1010 c 0
 1024.66666667 990.666666667 1041.66666667 970.666666667 1057 950 c 0
 1131.66666667 845.333333333 1171.33333333 707.666666667 1176 537 c 1
 1176 347 1122 195.333333333 1014 82 c 0
 929.333333333 -5.33333333333 829 -49 713 -49 c 0
 576.333333333 -49 474 11 406 131 c 1
 406 -446 l 1
 119 -446 l 1
 119 1106 l 1
 406 1106 l 1xdc
647 885 m 0
 555.666666667 885 488 835.666666667 444 737 c 0
 418.666666667 681 406 614.333333333 406 537 c 0
 406 391.666666667 445.333333333 289.666666667 524 231 c 0
 561.333333333 203.666666667 602.333333333 190 647 190 c 0
 735.666666667 190 802.666666667 237.333333333 848 332 c 0
 875.333333333 389.333333333 889 456 889 532 c 0
 889 681.333333333 848.666666667 786 768 846 c 0
 734 872 693.666666667 885 647 885 c 0
EndSplineSet
Validated: 1
EndChar

StartChar: q
Encoding: 113 113 84
Width: 1251
GlyphClass: 2
Flags: W
HStem: -446 21G<827 1114> -49 239<458.591 699.184> 885 239<456.932 695.808> 1086 20G<827 1114>
VStem: 57 287<319.586 742.737> 827 287<-446 131 327.018 754.029 942 1106>
LayerCount: 2
Fore
SplineSet
827 1106 m 1xdc
 1114 1106 l 1xdc
 1114 -446 l 1
 827 -446 l 1
 827 131 l 1
 760.333333333 11 657.333333333 -49 518 -49 c 0
 408.666666667 -49 312.333333333 -11.6666666667 229 63 c 0
 209 82.3333333333 191.333333333 103 176 125 c 0
 100.666666667 227.666666667 61 358 57 516 c 0
 57 524 57 524 57 537 c 0
 57 727.666666667 111.666666667 879.666666667 221 993 c 0
 304.333333333 1080.33333333 404 1124 520 1124 c 0xec
 656.666666667 1124 759 1063.33333333 827 942 c 1
 827 1106 l 1xdc
586 885 m 0xec
 494.666666667 885 427 835.666666667 383 737 c 0
 357 681 344 614.333333333 344 537 c 0
 344 391.666666667 383.666666667 289.666666667 463 231 c 0
 499.666666667 203.666666667 540.666666667 190 586 190 c 0
 677.333333333 190 744.666666667 238.666666667 788 336 c 0
 814 390.666666667 827 455.333333333 827 530 c 0
 827 684.666666667 785.333333333 790.666666667 702 848 c 0
 668 872.666666667 629.333333333 885 586 885 c 0xec
EndSplineSet
Validated: 1
EndChar

StartChar: r
Encoding: 114 114 85
Width: 796
GlyphClass: 2
Flags: W
HStem: 0 21G<129 416> 840 284<569.809 758> 1086 20G<129 416>
VStem: 129 287<0 755.774 889 1106>
LayerCount: 2
Fore
SplineSet
129 1106 m 1xb0
 416 1106 l 1xb0
 416 889 l 1
 466.666666667 1011.66666667 544.333333333 1086.66666667 649 1114 c 0
 673.666666667 1120.66666667 698.333333333 1124 723 1124 c 2
 758 1122 l 1
 758 831 l 1
 668 840 l 1xd0
 500 840 416 756 416 588 c 2
 416 0 l 1
 129 0 l 1
 129 1106 l 1xb0
EndSplineSet
Validated: 1
EndChar

StartChar: s
Encoding: 115 115 86
Width: 1138
GlyphClass: 2
Flags: W
HStem: -47 225<395.678 746.248> 899 225<408.524 712.056>
VStem: 98 293<731.82 876.026> 778 287<211.836 355.393>
LayerCount: 2
Fore
SplineSet
1034 750 m 1
 758 750 l 1
 756.666666667 848 687.666666667 897.666666667 551 899 c 0
 463.666666667 899 410.333333333 875 391 827 c 0
 391 825 391 825 391 825 c 1
 385 797 l 1
 385 767 401.333333333 744.333333333 434 729 c 1
 436 729 l 1
 485 711 l 1
 848 606 l 2
 991.333333333 564 1063.66666667 471.333333333 1065 328 c 0
 1065 217.333333333 1024 127 942 57 c 0
 939.333333333 54.3333333333 936.666666667 52.3333333333 934 51 c 0
 852 -14.3333333333 734.666666667 -47 582 -47 c 0
 264.666666667 -47 91.6666666667 60 63 274 c 0
 60.3333333333 289.333333333 59 305.333333333 59 322 c 1
 340 322 l 1
 350.666666667 272.666666667 369 237.666666667 395 217 c 1
 435 191 491.666666667 178 565 178 c 0
 688.333333333 178 758 206.666666667 774 264 c 0
 776.666666667 270.666666667 778 278.333333333 778 287 c 0
 778 322.333333333 757 348.333333333 715 365 c 0
 705 369 694 373 682 377 c 2
 340 483 l 2
 255.333333333 510.333333333 197.333333333 539 166 569 c 2
 160 575 l 1
 118.666666667 620.333333333 98 680.666666667 98 756 c 0
 98 903.333333333 163.666666667 1008.33333333 295 1071 c 0
 365.666666667 1106.33333333 451.666666667 1124 553 1124 c 0
 760.333333333 1124 903 1062 981 938 c 0
 1015 884.666666667 1032.66666667 822 1034 750 c 1
EndSplineSet
Validated: 1
EndChar

StartChar: t
Encoding: 116 116 87
Width: 681
GlyphClass: 2
Flags: W
HStem: -47 225<464.597 613.837> 893 190<29 170 457 616>
VStem: 170 287<181.516 893 1083 1380>
LayerCount: 2
Fore
SplineSet
616 1083 m 1
 616 893 l 1
 457 893 l 1
 457 291 l 2
 457 228.333333333 469.333333333 190.666666667 494 178 c 1
 496 178 l 1
 508 172.666666667 526.333333333 170 551 170 c 2
 616 176 l 1
 616 -25 l 1
 570 -39.6666666667 515 -47 451 -47 c 0
 265 -47 171.333333333 39.6666666667 170 213 c 2
 170 893 l 1
 29 893 l 1
 29 1083 l 1
 170 1083 l 1
 170 1380 l 1
 457 1380 l 1
 457 1083 l 1
 616 1083 l 1
EndSplineSet
Validated: 1
EndChar

StartChar: u
Encoding: 117 117 88
Width: 1251
GlyphClass: 2
Flags: W
HStem: -47 244<457.93 677.984> 0 21G<821 1108> 1086 20G<119 406 821 1108>
VStem: 119 287<250.303 1106> 821 287<0 131 276.734 1106>
LayerCount: 2
Fore
SplineSet
1108 0 m 1x78
 821 0 l 1x78
 821 131 l 1
 746.333333333 19 644.666666667 -40.3333333333 516 -47 c 1
 489 -47 l 2
 315.666666667 -47 201.666666667 22 147 160 c 0
 128.333333333 210.666666667 119 269.333333333 119 336 c 2
 119 1106 l 1
 406 1106 l 1
 406 395 l 2
 406 263 467.333333333 197 590 197 c 0xb8
 689.333333333 197 758.333333333 234.333333333 797 309 c 0
 813 339 821 374 821 414 c 2
 821 1106 l 1
 1108 1106 l 1
 1108 0 l 1x78
EndSplineSet
Validated: 1
EndChar

StartChar: v
Encoding: 118 118 89
Width: 1138
GlyphClass: 2
Flags: W
HStem: 0 21G<409.002 723.89> 1086 20G<29 337.909 789.462 1098>
LayerCount: 2
Fore
SplineSet
717 0 m 1
 416 0 l 1
 29 1106 l 1
 332 1106 l 1
 571 297 l 1
 795 1106 l 1
 1098 1106 l 1
 717 0 l 1
EndSplineSet
Validated: 1
EndChar

StartChar: w
Encoding: 119 119 90
Width: 1593
GlyphClass: 2
Flags: W
HStem: 0 21G<316.358 620.538 953.769 1260.68> 1086 20G<10 311.548 646.659 942.289 1267.66 1569>
LayerCount: 2
Fore
SplineSet
1255 0 m 1
 958 0 l 1
 793 780 l 1
 616 0 l 1
 322 0 l 1
 10 1106 l 1
 307 1106 l 1
 483 332 l 1
 651 1106 l 1
 938 1106 l 1
 1104 332 l 1
 1272 1106 l 1
 1569 1106 l 1
 1255 0 l 1
EndSplineSet
Validated: 1
EndChar

StartChar: x
Encoding: 120 120 91
Width: 1138
GlyphClass: 2
Flags: W
HStem: 0 21G<32 386.93 740.128 1095> 1086 20G<40 394.778 731.341 1086>
LayerCount: 2
Fore
SplineSet
726 557 m 1
 1095 0 l 1
 751 0 l 1
 564 344 l 1
 376 0 l 1
 32 0 l 1
 400 557 l 1
 40 1106 l 1
 384 1106 l 1
 564 772 l 1
 742 1106 l 1
 1086 1106 l 1
 726 557 l 1
EndSplineSet
Validated: 1
EndChar

StartChar: y
Encoding: 121 121 92
Width: 1138
GlyphClass: 2
Flags: W
HStem: -449 211<176 370.51> 1086 20G<18 340.062 801.311 1102>
LayerCount: 2
Fore
SplineSet
807 1106 m 1
 1102 1106 l 1
 647 -203 l 2
 613 -297 575.666666667 -358.333333333 535 -387 c 1
 485 -414 l 1
 430.333333333 -437.333333333 361.666666667 -449 279 -449 c 0
 248.333333333 -449 214 -446 176 -440 c 1
 176 -225 l 1
 206 -233.666666667 231.333333333 -238 252 -238 c 0
 321.333333333 -238 372.666666667 -207.666666667 406 -147 c 0
 422 -119.666666667 430 -88.3333333333 430 -53 c 2
 430 -47 l 1
 430 -45 l 1
 18 1106 l 1
 334 1106 l 1
 578 301 l 1
 807 1106 l 1
EndSplineSet
Validated: 1
EndChar

StartChar: z
Encoding: 122 122 93
Width: 1024
GlyphClass: 2
Flags: W
HStem: 0 231<397 958> 874 232<80 590>
LayerCount: 2
Fore
SplineSet
940 1106 m 1
 940 874 l 1
 397 231 l 1
 958 231 l 1
 958 0 l 1
 43 0 l 1
 43 231 l 1
 590 874 l 1
 80 874 l 1
 80 1106 l 1
 940 1106 l 1
EndSplineSet
Validated: 1
EndChar

StartChar: braceleft
Encoding: 123 123 94
Width: 796
GlyphClass: 2
Flags: W
HStem: -410 203<532 649> 455 190<76 192.953> 1290 203<497.895 649>
VStem: 242 239<-196.354 433.493 752 1275.97>
LayerCount: 2
Fore
SplineSet
649 1493 m 1
 649 1290 l 1
 573 1290 l 2
 515.666666667 1290 485 1251.33333333 481 1174 c 1
 481 774 l 2
 481 681.333333333 458 620 412 590 c 0
 410 590 410 590 410 590 c 1
 382.666666667 572 340.333333333 559 283 551 c 1
 377 535.666666667 435.666666667 503.666666667 459 455 c 1
 461 455 l 1
 471.666666667 431.666666667 477.666666667 400.666666667 479 362 c 2
 481 326 l 1
 481 -74 l 2
 481 -147.333333333 498 -189.666666667 532 -201 c 1
 573 -207 l 1
 649 -207 l 1
 649 -410 l 1
 494 -410 l 2
 398 -410 327 -367.666666667 281 -283 c 0
 255 -237.666666667 242 -184.333333333 242 -123 c 2
 242 307 l 2
 242 373 226.333333333 416 195 436 c 1
 193 436 l 1
 190 438 l 1
 178 444 l 2
 159.333333333 451.333333333 128 455 84 455 c 1
 76 457 l 1
 76 645 l 1
 84 645 l 1
 109 645 l 2
 190.333333333 646.333333333 234 682 240 752 c 0
 242 774 242 774 242 774 c 1
 242 1206 l 2
 242 1319.33333333 281.333333333 1402 360 1454 c 0
 398.666666667 1480 443.333333333 1493 494 1493 c 2
 649 1493 l 1
EndSplineSet
Validated: 1
EndChar

StartChar: bar
Encoding: 124 124 95
Width: 573
GlyphClass: 2
Flags: W
HStem: 1473 20G<205 369>
VStem: 205 164<-410 1493>
LayerCount: 2
Fore
SplineSet
369 1493 m 1
 369 -410 l 1
 205 -410 l 1
 205 1493 l 1
 369 1493 l 1
EndSplineSet
Validated: 1
EndChar

StartChar: braceright
Encoding: 125 125 96
Width: 796
GlyphClass: 2
Flags: W
HStem: -410 203<147 298.105> 438 191<577.602 721> 1290 203<147 264>
VStem: 315 240<-192.973 332 649.87 1279.35>
LayerCount: 2
Fore
SplineSet
147 -410 m 1
 147 -207 l 1
 223 -207 l 2
 280.333333333 -207 311 -168 315 -90 c 1
 315 309 l 2
 315 402.333333333 338.333333333 464 385 494 c 0
 387 494 387 494 387 494 c 1
 414.333333333 511.333333333 456.666666667 524 514 532 c 1
 420 547.333333333 361.333333333 579.666666667 338 629 c 0
 322.666666667 657.666666667 315 700.666666667 315 758 c 2
 315 1157 l 2
 315 1231 298 1273.33333333 264 1284 c 1
 223 1290 l 1
 147 1290 l 1
 147 1493 l 1
 303 1493 l 2
 398.333333333 1493 469.333333333 1450.66666667 516 1366 c 0
 542 1320.66666667 555 1267.33333333 555 1206 c 2
 555 776 l 2
 555 710.666666667 570.666666667 667.666666667 602 647 c 1
 618 639 l 1
 637.333333333 632.333333333 669 629 713 629 c 1
 721 627 l 1
 721 438 l 1
 713 438 l 1
 688 438 l 2
 606 436.666666667 562.333333333 401.333333333 557 332 c 0
 555 309 555 309 555 309 c 1
 555 -123 l 2
 555 -236.333333333 515.333333333 -319 436 -371 c 0
 398 -397 353.666666667 -410 303 -410 c 2
 147 -410 l 1
EndSplineSet
Validated: 1
EndChar

StartChar: asciitilde
Encoding: 126 126 97
Width: 1196
GlyphClass: 2
Flags: W
HStem: 291 164<679.56 886.264> 479 164<298.877 509.776>
VStem: 123 160<346 461.726> 903 160<473.495 590>
LayerCount: 2
Fore
SplineSet
903 590 m 1
 1063 590 l 1
 1050.33333333 390.666666667 963.666666667 291 803 291 c 0
 741.666666667 291 685 308.666666667 633 344 c 2
 516 430 l 2
 472.666666667 462.666666667 431 479 391 479 c 0
 341.666666667 479 309 460.666666667 293 424 c 0
 287.666666667 408.666666667 284.333333333 382.666666667 283 346 c 1
 123 346 l 1
 132.333333333 544 219 643 383 643 c 0
 447 643 503.666666667 626 553 592 c 2
 670 506 l 2
 716 472 757.666666667 455 795 455 c 0
 843.666666667 455 876.333333333 473.333333333 893 510 c 0
 898.333333333 524.666666667 901.666666667 551.333333333 903 590 c 1
EndSplineSet
Validated: 1
EndChar

StartChar: danda
Encoding: 2404 2404 98
Width: 1110
GlyphClass: 2
Flags: W
VStem: 799 168<92.3186 1403.6>
LayerCount: 2
Fore
SplineSet
967 139 m 2
 967 105 938.333333333 88 881 88 c 0
 826.333333333 88 799 104.333333333 799 137 c 2
 799 1364 l 2
 799 1392.66666667 827.666666667 1407 885 1407 c 0
 939.666666667 1407 967 1392.66666667 967 1364 c 2
 967 139 l 2
EndSplineSet
Validated: 1
EndChar

StartChar: doubledanda
Encoding: 2405 2405 99
Width: 870
GlyphClass: 2
Flags: W
VStem: 225 403
LayerCount: 2
Fore
SplineSet
526 998 m 1
 519 32 l 1
 619 144 l 1
 628 1116 l 1
 526 998 l 1
226 978 m 1
 225 22 l 1
 324 124 l 1
 320 1096 l 1
 226 978 l 1
EndSplineSet
Validated: 9
EndChar

StartChar: u0981
Encoding: 2433 2433 100
Width: 12
GlyphClass: 4
Flags: W
HStem: 1724 189<-271.638 -140.362>
VStem: -544 148<1746.02 1859.58> -300 188<1752.88 1884.64> -17 159<1761.34 1861.12>
AnchorPoint: "Anchor-0" -390 1410 mark 0
LayerCount: 2
Fore
SplineSet
142 1819 m 1
 120.666666667 1672.33333333 26 1578.66666667 -142 1538 c 1
 -264 1530 -361.5 1552.16666667 -434.5 1604.5 c 0
 -507.5 1656.83333333 -544 1727.66666667 -544 1817 c 1
 -519.333333333 1851 -496 1868 -474 1868 c 0
 -454.666666667 1868 -428.666666667 1857 -396 1835 c 1
 -388 1791 -366.666666667 1754.66666667 -332 1726 c 0
 -297.333333333 1697.33333333 -260.666666667 1684 -222 1686 c 0
 -159.333333333 1688.66666667 -113 1705 -83 1735 c 0
 -62.3333333333 1753.66666667 -40.3333333333 1792.33333333 -17 1851 c 1
 8.33333333333 1865 32 1872 54 1872 c 0
 89.3333333333 1872 118.666666667 1854.33333333 142 1819 c 1
-206 1913 m 256
 -180 1913 -157.833333333 1903.83333333 -139.5 1885.5 c 0
 -121.166666667 1867.16666667 -112 1845 -112 1819 c 256
 -112 1793 -121.166666667 1770.66666667 -139.5 1752 c 0
 -157.833333333 1733.33333333 -180 1724 -206 1724 c 256
 -232 1724 -254.166666667 1733.33333333 -272.5 1752 c 0
 -290.833333333 1770.66666667 -300 1793 -300 1819 c 256
 -300 1845 -290.833333333 1867.16666667 -272.5 1885.5 c 0
 -254.166666667 1903.83333333 -232 1913 -206 1913 c 256
EndSplineSet
Validated: 33
EndChar

StartChar: u0982
Encoding: 2434 2434 101
Width: 964
GlyphClass: 2
Flags: W
HStem: 1219 155<400.743 544.26>
VStem: 206 164<1009.01 1190.77> 548 160<1064.66 1215.25>
LayerCount: 2
Fore
SplineSet
704 1087 m 0
 695.333333333 1024.33333333 662.333333333 968.5 605 919.5 c 0
 547.666666667 870.5 487 846 423 846 c 0
 361.666666667 846 310.166666667 868.5 268.5 913.5 c 0
 226.833333333 958.5 206 1013 206 1077 c 0
 206 1099 208.666666667 1121 214 1143 c 0
 253.333333333 1297 341.333333333 1374 478 1374 c 0
 631.333333333 1374 708 1299 708 1149 c 0
 708 1128.33333333 706.666666667 1107.66666667 704 1087 c 0
931 184 m 2
 941.666666667 172 947 159 947 145 c 0
 947 126.333333333 937.5 109.5 918.5 94.5 c 0
 899.5 79.5 877.666666667 72 853 72 c 0
 831 72 812.666666667 79.3333333333 798 94 c 2
 239 678 l 1
 229 697.333333333 224 715 224 731 c 0
 224 779 247.333333333 803 294 803 c 0
 316 803 337 795.333333333 357 780 c 1
 931 184 l 2
538 1087 m 1
 544.666666667 1109 548 1129 548 1147 c 0
 548 1196.33333333 524.666666667 1220.33333333 478 1219 c 0
 433.333333333 1217.66666667 401.333333333 1192.33333333 382 1143 c 0
 374 1122.33333333 370 1101.66666667 370 1081 c 0
 370 1022.33333333 397.333333333 998 452 1008 c 1
 487.333333333 1020 516 1046.33333333 538 1087 c 1
EndSplineSet
Validated: 33
EndChar

StartChar: u0983
Encoding: 2435 2435 102
Width: 897
GlyphClass: 2
Flags: W
HStem: 68 168<397.761 559.952> 498 170<435.776 606.574> 768 168<369.124 536.581> 1196 166<413.766 581.146>
VStem: 206 155<943.795 1142.69> 591 162<991.37 1185.43>
LayerCount: 2
Fore
SplineSet
742 1036 m 1
 734 978.666666667 709.666666667 926.333333333 669 879 c 0
 623.666666667 824.333333333 567 789.333333333 499 774 c 0
 478.333333333 770 457.666666667 768 437 768 c 0
 370.333333333 768 315.166666667 791.5 271.5 838.5 c 0
 227.833333333 885.5 206 945.333333333 206 1018 c 0
 206 1044 208.666666667 1070.66666667 214 1098 c 0
 230.666666667 1172.66666667 263.833333333 1235 313.5 1285 c 0
 363.166666667 1335 421.333333333 1360.66666667 488 1362 c 0
 571.333333333 1363.33333333 637.666666667 1338 687 1286 c 0
 731 1238 753 1180 753 1112 c 0
 753 1086 749.333333333 1060.66666667 742 1036 c 1
773 365 m 1
 745.666666667 223 663.666666667 125.333333333 527 72 c 1
 509.666666667 69.3333333333 492.666666667 68 476 68 c 0
 404 68 346.166666667 91.5 302.5 138.5 c 0
 258.833333333 185.5 234.666666667 250.666666667 230 334 c 1
 234.666666667 421.333333333 265 498.833333333 321 566.5 c 0
 377 634.166666667 447 668 531 668 c 0
 599.666666667 668 657.333333333 644.666666667 704 598 c 0
 758 542 781 464.333333333 773 365 c 1
501 1196 m 1
 461 1193.33333333 427.666666667 1174.16666667 401 1138.5 c 0
 374.333333333 1102.83333333 361 1064.66666667 361 1024 c 0
 361 965.333333333 390 936 448 936 c 0
 486 936 520 955.666666667 550 995 c 0
 577.333333333 1031 591 1068.66666667 591 1108 c 0
 591 1164 561 1193.33333333 501 1196 c 1
521 498 m 1
 446.333333333 485.333333333 402 433.333333333 388 342 c 1
 386.666666667 271.333333333 413.333333333 236 468 236 c 0
 476 236 484.333333333 237.333333333 493 240 c 0
 524.333333333 244 552.5 264 577.5 300 c 0
 602.5 336 615 372.666666667 615 410 c 0
 615 468.666666667 583.666666667 498 521 498 c 1
EndSplineSet
Validated: 33
EndChar

StartChar: u0985
Encoding: 2437 2437 103
Width: 1716
GlyphClass: 2
Flags: W
HStem: 186 166<675.513 997.565> 1208 170<-12 629 864 1407 1577 1729>
VStem: 59 152<931.123 1131.69> 602 166<773.152 979.78> 1126 162<524.194 886.888> 1407 168<365 1208>
LayerCount: 2
Fore
SplineSet
1729 1208 m 1
 1577 1208 l 1
 1575 164 l 1
 1565.66666667 109.333333333 1535 82 1483 82 c 0
 1458.33333333 82 1437.66666667 91.6666666667 1421 111 c 2
 1190 377 l 1
 1109.33333333 249.666666667 997.333333333 186 854 186 c 0
 786 186 712.333333333 201 633 231 c 0
 483 288.333333333 354.666666667 402.333333333 248 573 c 0
 155.333333333 722.333333333 92.3333333333 889.666666667 59 1075 c 1
 78.3333333333 1119 105 1141 139 1141 c 0
 162.333333333 1141 186.333333333 1129.33333333 211 1106 c 1
 242.333333333 936.666666667 301 787 387 657 c 0
 487 505.666666667 610.666666667 408.333333333 758 365 c 0
 788 356.333333333 818.666666667 352 850 352 c 0
 918 352 971.333333333 370 1010 406 c 0
 1087.33333333 479.333333333 1126 577.333333333 1126 700 c 0
 1126 845.333333333 1071 944.333333333 961 997 c 1
 937.666666667 999.666666667 917 1001 899 1001 c 0
 811.666666667 1001 768 961 768 881 c 0
 768 853.666666667 772.666666667 822 782 786 c 1
 766 741.333333333 738.666666667 719 700 719 c 0
 674.666666667 719 649.666666667 731.333333333 625 756 c 1
 609.666666667 812 602 859.666666667 602 899 c 0
 602 991.666666667 643 1064 725 1116 c 1
 629 1208 l 1
 -12 1208 l 1
 -12 1378 l 1
 1729 1378 l 1
 1729 1208 l 1
1407 365 m 1
 1407 1208 l 1
 864 1208 l 1
 911 1165 l 1
 987.666666667 1145 1045 1124.66666667 1083 1104 c 0
 1136.33333333 1075.33333333 1174.66666667 1035.66666667 1198 985 c 1
 1258 896.333333333 1288 798.666666667 1288 692 c 0
 1288 638.666666667 1280 589 1264 543 c 1
 1407 365 l 1
EndSplineSet
Validated: 1
EndChar

StartChar: u0988
Encoding: 2440 2440 106
Width: 1292
GlyphClass: 2
Flags: W
HStem: 991 160<405.602 554.518> 1208 170<-12 172 369 1049 1198 1305> 1505 158<361.141 1023.09>
VStem: 131 145<1745.97 1922.74> 145 150<766.779 926.406> 614 148<829 930.144> 928 153<8.4364 643.558> 1049 149<1378 1472.98>
LayerCount: 2
Fore
SplineSet
1305 1208 m 1xf5
 369 1208 l 1
 428 1149 l 1
 440 1150.33333333 452.333333333 1151 465 1151 c 0
 549.666666667 1151 619.333333333 1119.33333333 674 1056 c 0
 728.666666667 992.666666667 758 917 762 829 c 1
 934 989 1063 1070.33333333 1149 1073 c 0
 1206.33333333 1074.33333333 1235 1052.66666667 1235 1008 c 0
 1235 995.333333333 1233 983.666666667 1229 973 c 0
 1130.33333333 711 1081 492.333333333 1081 317 c 0
 1081 181 1105.66666667 47.3333333333 1155 -84 c 1
 1147 -130.666666667 1118.33333333 -154 1069 -154 c 0
 1048.33333333 -154 1028.66666667 -147.666666667 1010 -135 c 1
 955.333333333 16.3333333333 928 172 928 332 c 0
 928 500 958 672 1018 848 c 1
 959.333333333 810 870 726.666666667 750 598 c 0
 640.666666667 480.666666667 553 405.666666667 487 373 c 0
 387.666666667 322.333333333 287.333333333 329.666666667 186 395 c 1
 176.666666667 407.666666667 172 422.666666667 172 440 c 0
 172 490.666666667 200.666666667 520.666666667 258 530 c 1
 297.333333333 507.333333333 334.333333333 496 369 496 c 0
 427.666666667 496 492.333333333 539.666666667 563 627 c 1
 597 684.333333333 614 742.333333333 614 801 c 0
 614 866.333333333 591.666666667 917.333333333 547 954 c 0
 517 978.666666667 485.666666667 991 453 991 c 0
 410.333333333 991 373 971.166666667 341 931.5 c 0
 309 891.833333333 293.666666667 846.333333333 295 795 c 1
 278.333333333 773 254.333333333 762 223 762 c 0
 189 762 163 774.333333333 145 799 c 1xee
 139.666666667 923 183.333333333 1018.33333333 276 1085 c 1
 172 1208 l 1
 -12 1208 l 1
 -12 1378 l 1
 1049 1378 l 1
 1058.33333333 1454.66666667 1005 1497 889 1505 c 0
 859 1507.66666667 781.666666667 1507.66666667 657 1505 c 0
 563 1503.66666667 486.666666667 1510 428 1524 c 0
 325.333333333 1547.33333333 255 1578 217 1616 c 0
 170.333333333 1664 141.666666667 1749.33333333 131 1872 c 1
 137.666666667 1910 159.666666667 1929 197 1929 c 0
 228.333333333 1929 254.666666667 1915.33333333 276 1888 c 1
 280.666666667 1792.66666667 315 1728.66666667 379 1696 c 0
 423.666666667 1674 499.333333333 1663 606 1663 c 0
 623 1663 623 1663 657.5 1663 c 0
 692 1663 692 1663 709 1663 c 0
 851 1663 958 1649.33333333 1030 1622 c 0
 1144.66666667 1576.66666667 1200.66666667 1495.33333333 1198 1378 c 1
 1305 1378 l 1
 1305 1208 l 1xf5
EndSplineSet
Validated: 33
EndChar

StartChar: u098a
Encoding: 2442 2442 108
Width: 1593
GlyphClass: 2
Flags: W
HStem: 72 164<795.323 1131.15> 539 153<801 962.109> 1208 170<-20 676 846 1120 1296 1612> 1511 156<447.332 1078.69>
VStem: 59 152<934.594 1158.26> 195 157<1758.4 1929.55> 262 152<857.113 1117.64> 676 170<692.008 1208> 1120 176<1378 1466.88> 1292 160<420.341 770.583>
LayerCount: 2
Fore
SplineSet
1612 1208 m 1xf580
 846 1208 l 1
 846 723 l 1
 855.333333333 702.333333333 868.333333333 692 885 692 c 0
 917.666666667 692 965.333333333 729.666666667 1028 805 c 0
 1029.33333333 807.666666667 1069 861.666666667 1147 967 c 1
 1159 993 1181.33333333 1006 1214 1006 c 0
 1236 1006 1256 999.666666667 1274 987 c 0
 1399.33333333 880.333333333 1458.66666667 742.333333333 1452 573 c 0
 1446.66666667 446.333333333 1403 334 1321 236 c 0
 1231 126.666666667 1118.33333333 72 983 72 c 0
 865.666666667 72 742.5 106.833333333 613.5 176.5 c 0
 484.5 246.166666667 383 333.333333333 309 438 c 0
 179.666666667 622.666666667 96.3333333333 842 59 1096 c 1
 65 1142 89.6666666667 1165 133 1165 c 0
 163 1165 189 1151.33333333 211 1124 c 1
 253 922 299.333333333 773.333333333 350 678 c 1
 305.333333333 804.666666667 276 934.333333333 262 1067 c 1
 278.666666667 1106.33333333 303.333333333 1126 336 1126 c 0
 363.333333333 1126 389.333333333 1110.33333333 414 1079 c 1
 441.333333333 883.666666667 493 703.666666667 569 539 c 0
 600.333333333 470.333333333 642.666666667 409.333333333 696 356 c 0
 757.333333333 294.666666667 822.333333333 257.333333333 891 244 c 0
 919.666666667 238.666666667 947 236 973 236 c 0
 1128.33333333 236 1231.33333333 328 1282 512 c 0
 1288.66666667 539.333333333 1292 568 1292 598 c 0xfb40
 1292 681.333333333 1269.66666667 750.333333333 1225 805 c 1
 1063.66666667 627.666666667 934.666666667 539 838 539 c 0
 764 539 710 589.333333333 676 690 c 1
 676 1208 l 1
 -20 1208 l 1
 -20 1378 l 1
 1120 1378 l 1
 1126.66666667 1431.33333333 1096 1468.33333333 1028 1489 c 0
 973.333333333 1505 887.333333333 1512.33333333 770 1511 c 0
 599.333333333 1508.33333333 473 1526.33333333 391 1565 c 0
 264.333333333 1622.33333333 199 1732.66666667 195 1896 c 1
 222.333333333 1924.66666667 250.333333333 1939 279 1939 c 0
 304.333333333 1939 328.666666667 1927.66666667 352 1905 c 1
 349.333333333 1807.66666667 385.666666667 1740.66666667 461 1704 c 0
 515.666666667 1678 602.333333333 1665 721 1665 c 0
 741.666666667 1665 771.666666667 1665.66666667 811 1667 c 0
 872 1667 872 1667 901 1667 c 0
 979 1667 1038.33333333 1661.66666667 1079 1651 c 0
 1153 1630.33333333 1209.66666667 1592 1249 1536 c 0
 1283 1486.66666667 1298.66666667 1434 1296 1378 c 1
 1612 1378 l 1
 1612 1208 l 1xf580
EndSplineSet
Validated: 33
EndChar

StartChar: u098b
Encoding: 2443 2443 109
Width: 1480
GlyphClass: 2
Flags: W
HStem: 1008 166<264.501 482.229>
VStem: 835 165<319 504 756 961 1157 1405.03> 1168 168<563 1405.44>
LayerCount: 2
Fore
SplineSet
1336 346 m 2
 1336 325.333333333 1325.5 308.5 1304.5 295.5 c 0
 1283.5 282.5 1260 276 1234 276 c 0
 1205.33333333 276 1185 283.666666667 1173 299 c 2
 1000 504 l 1
 998 135 l 2
 998 114.333333333 987.166666667 97.1666666667 965.5 83.5 c 0
 943.833333333 69.8333333333 920 63 894 63 c 0
 870.666666667 63 852.333333333 69.3333333333 839 82 c 2
 226 662 l 2
 212.666666667 674 206 689.666666667 206 709 c 0
 206 740.333333333 218.333333333 765.333333333 243 784 c 2
 661 1053 l 1
 607 1112 l 1
 541.666666667 1042.66666667 465.333333333 1008 378 1008 c 0
 256.666666667 1008 158.333333333 1064.66666667 83 1178 c 0
 80.3333333333 1186 79 1194 79 1202 c 0
 79 1225.33333333 88.5 1244.83333333 107.5 1260.5 c 0
 126.5 1276.16666667 150.333333333 1284 179 1284 c 0
 190.333333333 1284 202 1282.66666667 214 1280 c 1
 254.666666667 1209.33333333 308.666666667 1174 376 1174 c 0
 441.333333333 1174 489 1207.33333333 519 1274 c 1
 551.666666667 1306.66666667 593.333333333 1315.33333333 644 1300 c 1
 679.333333333 1263.33333333 731.333333333 1208.33333333 800 1135 c 1
 835 1157 l 1
 835 1360 l 2
 835 1392.66666667 863.666666667 1409 921 1409 c 0
 973.666666667 1409 1000 1394 1000 1364 c 2
 1000 756 l 1
 1168 563 l 1
 1168 1364 l 2
 1168 1394 1196 1409 1252 1409 c 256
 1308 1409 1336 1394 1336 1364 c 2
 1336 346 l 2
835 319 m 1
 835 961 l 1
 419 700 l 1
 835 319 l 1
EndSplineSet
Validated: 33
EndChar

StartChar: u098c
Encoding: 2444 2444 110
Width: 1314
GlyphClass: 2
Flags: W
HStem: 563 156<343.248 561.917>
VStem: 76 158<1248.59 1381.89> 129 160<217.112 512.93> 619 157<261.013 505.753> 1008 162<397.151 712.928>
LayerCount: 2
Fore
SplineSet
1149 416 m 1xd8
 1112.33333333 317.333333333 1043.33333333 236.666666667 942 174 c 1
 848 112.666666667 746.333333333 78.6666666667 637 72 c 1
 575.666666667 82.6666666667 545 102.333333333 545 131 c 0
 545 145 551 162.666666667 563 184 c 1
 575.666666667 215.333333333 588.166666667 247.5 600.5 280.5 c 0
 612.833333333 313.5 619 343 619 369 c 0
 619 400.333333333 611.333333333 435 596 473 c 1
 563.333333333 533 513.666666667 563 447 563 c 0
 408.333333333 563 374 550 344 524 c 0
 307.333333333 492.666666667 289 449 289 393 c 0
 289 348.333333333 300 302 322 254 c 0
 323.333333333 247.333333333 324 240.333333333 324 233 c 0
 324 188.333333333 295.333333333 166 238 166 c 0
 206.666666667 166 186 175.666666667 176 195 c 0
 144.666666667 257.666666667 129 322.333333333 129 389 c 0xb8
 129 467 149.666666667 533.333333333 191 588 c 0
 255 675.333333333 341 719 449 719 c 0
 511.666666667 719 570 702.166666667 624 668.5 c 0
 678 634.833333333 718.666666667 588 746 528 c 1
 766 468 776 411.333333333 776 358 c 0
 776 325.333333333 772 292.666666667 764 260 c 1
 926.666666667 314.666666667 1008 411 1008 549 c 0
 1008 572.333333333 1005.33333333 596.333333333 1000 621 c 0
 976.666666667 720.333333333 911 802 803 866 c 0
 747 900.666666667 646.666666667 943 502 993 c 0
 349.333333333 1046.33333333 250.333333333 1086.66666667 205 1114 c 0
 115 1168.66666667 72 1236.33333333 76 1317 c 0
 78.6666666667 1365 102 1389 146 1389 c 0
 198.666666667 1389 228 1367 234 1323 c 1
 231.333333333 1283.66666667 262.666666667 1249 328 1219 c 0
 340 1211.66666667 416.333333333 1184.33333333 557 1137 c 0
 965.666666667 997.666666667 1170 805 1170 559 c 0
 1170 514.333333333 1163 466.666666667 1149 416 c 1xd8
EndSplineSet
Validated: 33
EndChar

StartChar: u098f
Encoding: 2447 2447 111
Width: 1388
GlyphClass: 2
Flags: W
HStem: 207 153<314.08 782.08> 250 151<440.172 955.807> 1200 166<872.352 1067.8>
VStem: 63 158<455.98 794.559> 530 166<671.639 1038.99> 1081 168<305 1191.27>
LayerCount: 2
Fore
SplineSet
1249 137 m 2x7c
 1249 121 1235.33333333 106.5 1208 93.5 c 0
 1180.66666667 80.5 1154 74 1128 74 c 0
 1105.33333333 74 1090.33333333 79.3333333333 1083 90 c 0
 1004.33333333 196.666666667 904.666666667 250 784 250 c 0x7c
 746 250 687 242.833333333 607 228.5 c 0
 527 214.166666667 466.666666667 207 426 207 c 0
 393.333333333 207 362 210.333333333 332 217 c 1
 232 252.333333333 161 306.333333333 119 379 c 0
 81.6666666667 443 63 527.666666667 63 633 c 0
 63 673.666666667 66 720 72 772 c 1
 99.3333333333 794 125.333333333 805 150 805 c 0
 176.666666667 805 203 790.666666667 229 762 c 1
 223.666666667 676 221 629 221 621 c 0
 221 519.666666667 255.333333333 445 324 397 c 0
 358 372.333333333 400.333333333 360 451 360 c 0xbc
 481 360 533.166666667 366.833333333 607.5 380.5 c 0
 681.833333333 394.166666667 740.666666667 401 784 401 c 0
 892 401 991 369 1081 305 c 1
 1081 1081 l 2
 1081 1160.33333333 1054.33333333 1200 1001 1200 c 0
 969.666666667 1200 929 1186.33333333 879 1159 c 0
 757 1096.33333333 696 1004.33333333 696 883 c 0
 696 828.333333333 708.333333333 764 733 690 c 1
 727.666666667 640.666666667 697.666666667 616 643 616 c 0
 617 616 595.333333333 625 578 643 c 1
 546 715.666666667 530 789.333333333 530 864 c 0
 530 977.333333333 563.5 1078.83333333 630.5 1168.5 c 0
 697.5 1258.16666667 788.333333333 1318 903 1348 c 1
 934.333333333 1360 965 1366 995 1366 c 0
 1055 1366 1112.33333333 1342.16666667 1167 1294.5 c 0
 1221.66666667 1246.83333333 1249 1178.66666667 1249 1090 c 2
 1249 137 l 2x7c
EndSplineSet
Validated: 1
EndChar

StartChar: u0993
Encoding: 2451 2451 113
Width: 1540
GlyphClass: 2
Flags: W
HStem: 102 160<832.85 1215.48> 1204 170<883.502 1134.19>
VStem: 80 154<1098.46 1301.31> 641 172<844.751 1131.25> 1229 166<869.455 1110.53> 1292 164<334.6 608.408>
LayerCount: 2
Fore
SplineSet
1319 774 m 1xf8
 1410.33333333 696 1456 597.666666667 1456 479 c 0
 1456 387.666666667 1427.33333333 308 1370 240 c 0
 1307.33333333 167.333333333 1221.33333333 123.666666667 1112 109 c 0
 1086 104.333333333 1059.33333333 102 1032 102 c 0
 898.666666667 102 766.333333333 145.666666667 635 233 c 0
 524.333333333 309.666666667 428 407.333333333 346 526 c 0
 222 708 133.333333333 942.333333333 80 1229 c 1
 77.3333333333 1283.66666667 100.666666667 1311 150 1311 c 0
 180 1311 208 1296 234 1266 c 1
 312.666666667 905.333333333 433.333333333 643 596 479 c 0
 739.333333333 334.333333333 884.666666667 262 1032 262 c 0
 1059.33333333 262 1086 264 1112 268 c 0
 1232 288.666666667 1292 355 1292 467 c 0xf4
 1292 510.333333333 1280.83333333 551.5 1258.5 590.5 c 0
 1236.16666667 629.5 1205.66666667 658.666666667 1167 678 c 0
 1121 701.333333333 1098 727.333333333 1098 756 c 0
 1098 777.333333333 1111 800.333333333 1137 825 c 1
 1198.33333333 869 1229 923 1229 987 c 0
 1229 1033.66666667 1212.66666667 1076.83333333 1180 1116.5 c 0
 1147.33333333 1156.16666667 1106.33333333 1182.66666667 1057 1196 c 0
 1037.66666667 1201.33333333 1019.33333333 1204 1002 1204 c 0
 946 1204 900.5 1183.16666667 865.5 1141.5 c 0
 830.5 1099.83333333 813 1049.66666667 813 991 c 0
 813 949 822.666666667 908.666666667 842 870 c 1
 830.666666667 820 795.666666667 795 737 795 c 0
 714.333333333 795 694.666666667 801.666666667 678 815 c 1
 653.333333333 872.333333333 641 929.666666667 641 987 c 0
 641 1087 673.166666667 1173.5 737.5 1246.5 c 0
 801.833333333 1319.5 885 1362 987 1374 c 1
 1104.33333333 1371.33333333 1201.66666667 1333.16666667 1279 1259.5 c 0
 1356.33333333 1185.83333333 1395 1099 1395 999 c 0
 1395 920.333333333 1369.66666667 845.333333333 1319 774 c 1xf8
EndSplineSet
Validated: 33
EndChar

StartChar: u0995
Encoding: 2453 2453 115
Width: 1449
GlyphClass: 2
Flags: W
HStem: 459 153<968.756 1102.25> 1014 162<877 1030.88> 1208 170<-14 709 877 1456>
VStem: 709 168<313 958 1170.74 1208> 1141 151<646.502 912.612>
AnchorPoint: "Anchor-2" 855 0 basechar 0
AnchorPoint: "Anchor-1" 810 60 basechar 0
AnchorPoint: "Anchor-0" 735 1365 basechar 0
LayerCount: 2
Fore
SplineSet
1456 1208 m 1
 877 1208 l 1
 877 1176 l 1
 1044.33333333 1156.66666667 1162.33333333 1097.66666667 1231 999 c 0
 1271.66666667 941.666666667 1292 870 1292 784 c 0
 1292 695.333333333 1271 619.666666667 1229 557 c 0
 1183.66666667 489 1123.66666667 456.333333333 1049 459 c 1
 990.333333333 452.333333333 961 475.333333333 961 528 c 0
 961 569.333333333 980.666666667 597.333333333 1020 612 c 1
 1054 608 1082.66666667 623.5 1106 658.5 c 0
 1129.33333333 693.5 1141 734.666666667 1141 782 c 0
 1141 834 1126 877.666666667 1096 913 c 0
 1042.66666667 976.333333333 969.666666667 1010 877 1014 c 1
 877 131 l 2
 877 91.6666666667 855 72 811 72 c 0
 773 72 741 83.3333333333 715 106 c 2
 94 655 l 1
 68 671.666666667 55 691.666666667 55 715 c 0
 55 741 71.3333333333 763.333333333 104 782 c 2
 709 1147 l 1
 709 1208 l 1
 -14 1208 l 1
 -14 1378 l 1
 1456 1378 l 1
 1456 1208 l 1
709 313 m 1
 709 958 l 1
 283 696 l 1
 709 313 l 1
EndSplineSet
Validated: 33
EndChar

StartChar: u0996
Encoding: 2454 2454 116
Width: 1277
GlyphClass: 2
Flags: W
HStem: 938 164<180.617 451.929> 1208 170<1141 1294>
VStem: 631 155<877.5 1098.98> 973 168<305 1208>
AnchorPoint: "Anchor-2" 1005 60 basechar 0
AnchorPoint: "Anchor-1" 1065 75 basechar 0
AnchorPoint: "Anchor-0" 1020 1395 basechar 0
LayerCount: 2
Fore
SplineSet
1294 1208 m 1
 1141 1208 l 1
 1141 150 l 2
 1141 132 1130 115.833333333 1108 101.5 c 0
 1086 87.1666666667 1061.33333333 80 1034 80 c 0
 1014 80 996.333333333 85.3333333333 981 96 c 2
 305 598 l 1
 291.666666667 620 285 641.333333333 285 662 c 0
 285 682 290.666666667 699.166666667 302 713.5 c 0
 313.333333333 727.833333333 327.333333333 735 344 735 c 0
 418 745 484.333333333 776.166666667 543 828.5 c 0
 601.666666667 880.833333333 631 942 631 1012 c 0
 631 1042 624.666666667 1072 612 1102 c 1
 550.666666667 992.666666667 462 938 346 938 c 0
 268 938 184 962.666666667 94 1012 c 1
 72 1029.33333333 61 1051 61 1077 c 0
 61 1099 69 1118.5 85 1135.5 c 0
 101 1152.5 119 1161 139 1161 c 0
 147.666666667 1161 156.666666667 1159 166 1155 c 0
 228.666666667 1119.66666667 285.333333333 1102 336 1102 c 0
 435.333333333 1102 491.333333333 1161.33333333 504 1280 c 1
 501.333333333 1334.66666667 523.666666667 1362 571 1362 c 0
 589 1362 606.333333333 1356.66666667 623 1346 c 0
 739 1269.33333333 793.333333333 1152.33333333 786 995 c 0
 779.333333333 827 692.666666667 704.333333333 526 627 c 1
 973 305 l 1
 973 1245 l 2
 973 1333.66666667 1016 1378 1102 1378 c 2
 1294 1378 l 1
 1294 1208 l 1
EndSplineSet
Validated: 33
EndChar

StartChar: u0997
Encoding: 2455 2455 117
Width: 1261
GlyphClass: 2
Flags: W
HStem: 846 158<292.75 425.75> 1149 160<401.138 749.9> 1206 172<1124 1278>
VStem: 498 161<520.498 773.723> 956 322<1206 1378> 956 168<65.9043 954.423 1157 1206>
AnchorPoint: "Anchor-2" 1020 -30 basechar 0
AnchorPoint: "Anchor-1" 1020 45 basechar 0
AnchorPoint: "Anchor-0" 975 1380 basechar 0
LayerCount: 2
Fore
SplineSet
1278 1206 m 1xb8
 1124 1206 l 1xb4
 1124 123 l 2
 1124 81.6666666667 1096 61 1040 61 c 256
 984 61 956 81.6666666667 956 123 c 2
 956 778 l 2
 956 858.666666667 935 926.333333333 893 981 c 0
 805.666666667 1093 698.333333333 1149 571 1149 c 0
 455 1149 361.666666667 1100.66666667 291 1004 c 1
 403 1005.33333333 493.666666667 969 563 895 c 0
 627 827 659 744.333333333 659 647 c 0
 659 502.333333333 593 393 461 319 c 0
 451 316.333333333 440.666666667 315 430 315 c 0
 406.666666667 315 385.833333333 322.5 367.5 337.5 c 0
 349.166666667 352.5 340 370.333333333 340 391 c 0
 340 413 350.333333333 433.666666667 371 453 c 1
 455.666666667 500.333333333 498 565 498 647 c 0
 498 700.333333333 479.5 746.833333333 442.5 786.5 c 0
 405.5 826.166666667 360.333333333 846 307 846 c 0
 269 846 231 834.333333333 193 811 c 0
 168.333333333 795.666666667 145 788 123 788 c 0
 83 788 63 810 63 854 c 0
 63 866 65.3333333333 879 70 893 c 0
 100 1009 149 1099.66666667 217 1165 c 0
 278.333333333 1223.66666667 364.333333333 1268 475 1298 c 1
 516.333333333 1305.33333333 556 1309 594 1309 c 0
 732 1309 852.666666667 1258.33333333 956 1157 c 1xd4
 956 1378 l 1
 1278 1378 l 1
 1278 1206 l 1xb8
EndSplineSet
Validated: 33
EndChar

StartChar: u0998
Encoding: 2456 2456 118
Width: 1101
GlyphClass: 2
Flags: W
HStem: 1208 170<-18 78 231.5 797 965 1118>
VStem: 55 160<1021.74 1192.57> 797 168<305 1208>
AnchorPoint: "Anchor-2" 930 0 basechar 0
AnchorPoint: "Anchor-1" 930 60 basechar 0
AnchorPoint: "Anchor-0" 930 1395 basechar 0
LayerCount: 2
Fore
SplineSet
1118 1208 m 1
 965 1208 l 1
 965 145 l 2
 965 127.666666667 954.333333333 112.5 933 99.5 c 0
 911.666666667 86.5 888.666666667 80 864 80 c 0
 840.666666667 80 821 85.3333333333 805 96 c 2
 139 571 l 1
 111.666666667 583.666666667 98 603 98 629 c 0
 98 647.666666667 106.333333333 666.666666667 123 686 c 2
 254 842 l 1
 196.666666667 858 149.166666667 889.333333333 111.5 936 c 0
 73.8333333333 982.666666667 55 1036.66666667 55 1098 c 0
 55 1134.66666667 62.6666666667 1171.33333333 78 1208 c 1
 -18 1208 l 1
 -18 1378 l 1
 1118 1378 l 1
 1118 1208 l 1
797 305 m 1
 797 1208 l 1
 281 1208 l 1
 237 1182 215 1148.66666667 215 1108 c 0
 215 1076.66666667 228 1049.33333333 254 1026 c 0
 280 1002.66666667 311.333333333 991 348 991 c 0
 359.333333333 991 373.833333333 993.5 391.5 998.5 c 0
 409.166666667 1003.5 422.666666667 1006 432 1006 c 0
 455.333333333 1006 474.5 998 489.5 982 c 0
 504.5 966 512 947.333333333 512 926 c 0
 512 905.333333333 505.333333333 886.666666667 492 870 c 2
 305 651 l 1
 797 305 l 1
EndSplineSet
Validated: 1
EndChar

StartChar: u0999
Encoding: 2457 2457 119
Width: 1309
GlyphClass: 2
Flags: W
HStem: 78 155<631.928 944.392> 866 160<658.201 870.965> 1088 20G<110.667 146.667>
VStem: 61 148<863.655 1100.97> 461 155<727.437 902.393> 1094 157<371.215 646.476>
AnchorPoint: "Anchor-2" 735 0 basechar 0
AnchorPoint: "Anchor-1" 645 75 basechar 0 {} {11-11 -7}
AnchorPoint: "Anchor-0" 735 1350 basechar 0
LayerCount: 2
Fore
SplineSet
1053 1241 m 1
 1063.66666667 1212.33333333 1069 1183 1069 1153 c 0
 1069 1089 1046.83333333 1030.33333333 1002.5 977 c 0
 958.166666667 923.666666667 906 890.333333333 846 877 c 0
 816 869.666666667 784.666666667 866 752 866 c 0
 698.666666667 866 648 875.666666667 600 895 c 0
 594.666666667 895 597.333333333 897.666666667 608 903 c 0
 612 904.333333333 616.333333333 905 621 905 c 1
 617.666666667 849 616 817.666666667 616 811 c 0
 619.333333333 779.666666667 630.333333333 751 649 725 c 1
 911 852 l 1
 942.333333333 879.333333333 984 886 1036 872 c 1
 1179.33333333 768.666666667 1251 647.333333333 1251 508 c 0
 1251 393.333333333 1205.66666667 293 1115 207 c 0
 1024.33333333 121 919 78 799 78 c 0
 670.333333333 78 546.666666667 127 428 225 c 0
 325.333333333 309.666666667 249 408.666666667 199 522 c 0
 151 630 105 801.333333333 61 1036 c 1
 67 1084 90.3333333333 1108 131 1108 c 0
 162.333333333 1108 188.333333333 1092.33333333 209 1061 c 1
 248.333333333 852.333333333 294.666666667 694 348 586 c 0
 393.333333333 491.333333333 454.666666667 411.333333333 532 346 c 0
 620 270.666666667 707.666666667 233 795 233 c 0
 856.333333333 233 914.333333333 253 969 293 c 0
 1052.33333333 353 1094 424.666666667 1094 508 c 0
 1094 586 1057.66666667 655.666666667 985 717 c 1
 629 524 l 1
 517 608.666666667 461 701 461 801 c 0
 461 815.666666667 462.333333333 830.666666667 465 846 c 1
 462.333333333 874.666666667 465 906 473 940 c 1
 487 933.333333333 491 930 485 930 c 0
 313 1009.33333333 196.333333333 1123.33333333 135 1272 c 0
 133.666666667 1280 133 1287.33333333 133 1294 c 0
 133 1339.33333333 159 1362 211 1362 c 0
 230.333333333 1362 248 1356.66666667 264 1346 c 1
 336.666666667 1221.33333333 417.333333333 1136 506 1090 c 1
 530.666666667 1156.66666667 571.666666667 1218 629 1274 c 0
 691.666666667 1334 753.666666667 1367.33333333 815 1374 c 0
 909 1384 988.333333333 1339.66666667 1053 1241 c 1
913 1133 m 1
 917.666666667 1157 908.333333333 1177.33333333 885 1194 c 0
 865.666666667 1206 843 1211.33333333 817 1210 c 1
 743.666666667 1195.33333333 690.333333333 1138 657 1038 c 1
 698.333333333 1030 731.333333333 1026 756 1026 c 0
 829.333333333 1026 881.666666667 1061.66666667 913 1133 c 1
EndSplineSet
Validated: 37
EndChar

StartChar: u099a
Encoding: 2458 2458 120
Width: 1040
GlyphClass: 2
Flags: W
HStem: 65 163<375.245 514.21> 1205 170<-7 200 372 1040>
VStem: 208 164<229.227 897 1088.06 1205> 738 152<506.946 744.529>
AnchorPoint: "Anchor-2" 585 120 basechar 0
AnchorPoint: "Anchor-1" 405 75 basechar 0
AnchorPoint: "Anchor-0" 270 1365 basechar 0
LayerCount: 2
Fore
SplineSet
732 727 m 1
 714.666666667 757 662.333333333 785.666666667 575 813 c 0
 472.333333333 843 404.666666667 871 372 897 c 1
 372 301 l 2
 372 252.333333333 389 228 423 228 c 0
 438.333333333 228 456.666666667 234 478 246 c 0
 535.333333333 280 592 339.333333333 648 424 c 0
 708 518 738 602 738 676 c 0
 738 694 736 711 732 727 c 1
1040 1205 m 1
 372 1205 l 1
 372 1152 l 1
 410 1082.66666667 471.333333333 1026.66666667 556 984 c 1
 624.666666667 955.333333333 693.666666667 926.666666667 763 898 c 1
 832.333333333 865.333333333 872.666666667 821 884 765 c 0
 888 741.666666667 890 717 890 691 c 0
 890 567 845 440.166666667 755 310.5 c 0
 665 180.833333333 566 100.333333333 458 69 c 0
 448.666666667 66.3333333333 438.333333333 65 427 65 c 0
 376.333333333 65 329.333333333 82.6666666667 286 118 c 0
 234 160 208 215.333333333 208 284 c 2
 208 1217 l 1
 200 1208 l 1
 -7 1208 l 1
 -7 1378 l 1
 200 1378 l 1
 208 1375 l 1
 1040 1375 l 1
 1040 1205 l 1
EndSplineSet
Validated: 1
EndChar

StartChar: u099b
Encoding: 2459 2459 121
Width: 1312
GlyphClass: 2
Flags: W
HStem: 184 154<396.597 662.735> 504 114<372 573.66> 1098 20G<825 889.667> 1206 172<-5 260 434 1317>
VStem: 260 168<620.602 1012> 1016 149<645.842 901.449>
AnchorPoint: "Anchor-2" 900 15 basechar 0
AnchorPoint: "Anchor-1" 945 120 basechar 0
AnchorPoint: "Anchor-0" 225 1395 basechar 0
LayerCount: 2
Fore
SplineSet
754 891 m 0
 746.666666667 933 704.333333333 959.666666667 627 971 c 0
 519 985.666666667 452.666666667 999.333333333 428 1012 c 1
 428 662 l 2
 428 632.666666667 441 618 467 618 c 0
 511.666666667 618 572.333333333 653.166666667 649 723.5 c 0
 725.666666667 793.833333333 760.666666667 849.666666667 754 891 c 0
1395 70 m 1
 1405.66666667 46.6666666667 1411 26 1411 8 c 0
 1411 -44 1377 -65.6666666667 1309 -57 c 1
 1099.66666667 87.6666666667 805.333333333 168 426 184 c 1
 401.333333333 207.333333333 389 237.333333333 389 274 c 0
 389 306 401.333333333 327.333333333 426 338 c 1
 528.666666667 350 597 361 631 371 c 0
 699 388.333333333 759.666666667 419 813 463 c 1
 865 498.333333333 910.666666667 546.666666667 950 608 c 0
 994 675.333333333 1016 737 1016 793 c 0
 1016 863.666666667 980.333333333 912.666666667 909 940 c 1
 914.333333333 822.666666667 860.333333333 718.333333333 747 627 c 0
 643.666666667 545 537.333333333 504 428 504 c 0
 316 504 260 553 260 651 c 2
 260 1212 l 1
 234 1210 l 1
 -5 1208 l 1
 -5 1378 l 1
 326 1378 l 2
 332 1378 332 1378 403 1378 c 2
 1317 1378 l 1
 1317 1206 l 1
 434 1206 l 1
 448 1174.66666667 489.666666667 1150.33333333 559 1133 c 0
 616.333333333 1119 679 1112 747 1112 c 0
 784.333333333 1112 814 1114 836 1118 c 1
 943.333333333 1111.33333333 1026.33333333 1076.66666667 1085 1014 c 0
 1138.33333333 955.333333333 1165 881.666666667 1165 793 c 0
 1165 686.333333333 1130.16666667 584.833333333 1060.5 488.5 c 0
 990.833333333 392.166666667 917.333333333 328.333333333 840 297 c 1
 1044.66666667 263 1229.66666667 187.333333333 1395 70 c 1
EndSplineSet
Validated: 33
EndChar

StartChar: u099c
Encoding: 2460 2460 122
Width: 1708
GlyphClass: 2
Flags: W
HStem: 156 157<639.368 972.35> 1208 170<-22 619 1183 1721>
VStem: 60 150<851.237 1116.07> 505 153<799.641 1041.51> 1121 156<445.962 711.14> 1330 158<220.945 693.766>
AnchorPoint: "Anchor-2" 1215 180 basechar 0
AnchorPoint: "Anchor-1" 1500 30 basechar 0
AnchorPoint: "Anchor-0" 735 1380 basechar 0
LayerCount: 2
Fore
SplineSet
1721 1208 m 1
 1183 1208 l 1
 1562 975 l 1
 1593.33333333 965.666666667 1609 943.666666667 1609 909 c 0
 1609 895.666666667 1605.33333333 882 1598 868 c 0
 1524.66666667 700 1488 562.333333333 1488 455 c 0
 1488 337.666666667 1525.33333333 207 1600 63 c 1
 1600 -2.33333333333 1571.33333333 -35 1514 -35 c 0
 1499.33333333 -35 1483.66666667 -31.6666666667 1467 -25 c 1
 1375.66666667 155.666666667 1330 315 1330 453 c 0
 1330 567.666666667 1362.66666667 706 1428 868 c 1
 880 1212 l 1
 819.333333333 1178 767.166666667 1131.33333333 723.5 1072 c 0
 679.833333333 1012.66666667 658 956.333333333 658 903 c 0
 658 851 680 810.666666667 724 782 c 1
 786.666666667 806.666666667 850 830.666666667 914 854 c 0
 989.333333333 882.666666667 1053 896.333333333 1105 895 c 1
 1219.66666667 811.666666667 1277 703.666666667 1277 571 c 0
 1277 421 1207.33333333 307 1068 229 c 0
 979.333333333 180.333333333 890.666666667 156 802 156 c 0
 596 156 409.666666667 277.333333333 243 520 c 1
 208.333333333 556.666666667 172.666666667 625.666666667 136 727 c 0
 98 833.666666667 72.6666666667 938.666666667 60 1042 c 1
 60 1098 81.3333333333 1126 124 1126 c 0
 154 1126 182.666666667 1111 210 1081 c 1
 226 889 288 720.333333333 396 575 c 0
 526 400.333333333 664.666666667 313 812 313 c 0
 895.333333333 313 973 346 1045 412 c 0
 1095.66666667 456.666666667 1121 511 1121 575 c 0
 1121 638.333333333 1098 694.333333333 1052 743 c 1
 1034 737.666666667 973.666666667 714.666666667 871 674 c 0
 799 644 740.333333333 627.666666667 695 625 c 1
 568.333333333 678.333333333 505 770.333333333 505 901 c 0
 505 1005 543 1107.33333333 619 1208 c 1
 -22 1208 l 1
 -24 1378 l 1
 1721 1378 l 1
 1721 1208 l 1
EndSplineSet
Validated: 37
EndChar

StartChar: u099d
Encoding: 2461 2461 123
Width: 1419
GlyphClass: 2
Flags: W
HStem: 1208 170<-12 688 1274 1434>
VStem: 688 168<315 514 727 954 1147 1208> 1104 168<539 1208>
AnchorPoint: "Anchor-2" 855 60 basechar 0
AnchorPoint: "Anchor-1" 780 45 basechar 0
AnchorPoint: "Anchor-0" 1155 1380 basechar 0
LayerCount: 2
Fore
SplineSet
1434 1208 m 1
 1274 1208 l 1
 1272 344 l 2
 1272 304.666666667 1240.66666667 285 1178 285 c 0
 1148 285 1125.33333333 292.333333333 1110 307 c 2
 856 514 l 1
 856 135 l 2
 856 113 846.166666667 95.1666666667 826.5 81.5 c 0
 806.833333333 67.8333333333 784 61 758 61 c 256
 732 61 710.666666667 68.6666666667 694 84 c 2
 76 653 l 2
 64.6666666667 664.333333333 59 683 59 709 c 0
 59 743 70.6666666667 767.333333333 94 782 c 2
 688 1147 l 1
 688 1208 l 1
 -12 1208 l 1
 -12 1378 l 1
 711 1378 l 2
 807.666666667 1378 856 1329 856 1231 c 2
 856 727 l 1
 1104 539 l 1
 1104 1231 l 2
 1104 1329 1152.33333333 1378 1249 1378 c 2
 1434 1378 l 1
 1434 1208 l 1
688 315 m 1
 688 954 l 1
 270 696 l 1
 688 315 l 1
EndSplineSet
Validated: 1
EndChar

StartChar: u099e
Encoding: 2462 2462 124
Width: 1919
GlyphClass: 2
Flags: W
HStem: 207 153<314.08 782.08> 250 151<440.172 955.807> 696 158<1526.23 1658.66> 1200 166<872.352 1067.8>
VStem: 63 158<455.98 794.559> 530 166<671.639 1038.99> 1081 188<305 721> 1081 168<305 438.811 891 1191.27> 1699 178<894.41 1045.41> 1725 174<515.323 657.91>
AnchorPoint: "Anchor-2" 1170 75 basechar 0
AnchorPoint: "Anchor-1" 1170 90 basechar 0
AnchorPoint: "Anchor-0" 1065 1320 basechar 0
LayerCount: 2
Fore
SplineSet
1682 514 m 1x3c80
 1710.66666667 533.333333333 1725 556 1725 582 c 0x3c40
 1725 610.666666667 1709.33333333 636.833333333 1678 660.5 c 0
 1646.66666667 684.166666667 1613.33333333 696 1578 696 c 1
 1536.66666667 718 1516 744.666666667 1516 776 c 0
 1516 806 1533 832 1567 854 c 1
 1605.66666667 859.333333333 1637.33333333 875 1662 901 c 0
 1686.66666667 927 1699 953.666666667 1699 981 c 0
 1699 1030.33333333 1666.66666667 1054.33333333 1602 1053 c 0
 1558.66666667 1051.66666667 1515.66666667 1019.66666667 1473 957 c 0
 1461 937.666666667 1432.33333333 883 1387 793 c 1
 1415.66666667 717.666666667 1454.66666667 653.333333333 1504 600 c 0
 1564 533.333333333 1623.33333333 504.666666667 1682 514 c 1x3c80
1249 137 m 2x7d
 1249 121 1235.33333333 106.5 1208 93.5 c 0
 1180.66666667 80.5 1154 74 1128 74 c 0
 1105.33333333 74 1090.33333333 79.3333333333 1083 90 c 0
 1004.33333333 196.666666667 904.666666667 250 784 250 c 0x7d
 746 250 687 242.833333333 607 228.5 c 0
 527 214.166666667 466.666666667 207 426 207 c 0
 393.333333333 207 362 210.333333333 332 217 c 1
 232 252.333333333 161 306.333333333 119 379 c 0
 81.6666666667 443 63 527.666666667 63 633 c 0
 63 673.666666667 66 720 72 772 c 1
 99.3333333333 794 125.333333333 805 150 805 c 0
 176.666666667 805 203 790.666666667 229 762 c 1
 223.666666667 676 221 629 221 621 c 0
 221 519.666666667 255.333333333 445 324 397 c 0
 358 372.333333333 400.333333333 360 451 360 c 0xbd
 481 360 533.166666667 366.833333333 607.5 380.5 c 0
 681.833333333 394.166666667 740.666666667 401 784 401 c 0
 892 401 991 369 1081 305 c 1x7e
 1081 1081 l 2
 1081 1160.33333333 1054.33333333 1200 1001 1200 c 0
 969.666666667 1200 929 1186.33333333 879 1159 c 0
 757 1096.33333333 696 1004.33333333 696 883 c 0
 696 828.333333333 708.333333333 764 733 690 c 1
 727.666666667 640.666666667 697.666666667 616 643 616 c 0
 617 616 595.333333333 625 578 643 c 1
 546 715.666666667 530 789.333333333 530 864 c 0
 530 977.333333333 563.5 1078.83333333 630.5 1168.5 c 0
 697.5 1258.16666667 788.333333333 1318 903 1348 c 1
 934.333333333 1360 965 1366 995 1366 c 0
 1055 1366 1112.33333333 1342.16666667 1167 1294.5 c 0
 1221.66666667 1246.83333333 1249 1178.66666667 1249 1090 c 2
 1245 891 l 1
 1283.66666667 963.666666667 1323.66666667 1024.33333333 1365 1073 c 0
 1437 1163 1521 1211 1617 1217 c 1
 1690.33333333 1211 1752 1183.5 1802 1134.5 c 0
 1852 1085.5 1877 1029 1877 965 c 0x7d80
 1877 897.666666667 1849 836.666666667 1793 782 c 1
 1863.66666667 723.333333333 1899 652.333333333 1899 569 c 0
 1899 459 1840.33333333 388 1723 356 c 0
 1705 353.333333333 1688 352 1672 352 c 0
 1501.33333333 352 1367 475 1269 721 c 1x7e40
 1249 137 l 2x7d
EndSplineSet
Validated: 33
EndChar

StartChar: u099f
Encoding: 2463 2463 125
Width: 1132
GlyphClass: 2
Flags: W
HStem: 69 209<472.624 652.045> 1205 170<-9 282 450 869 1028.25 1136> 1515 157<163.317 826.449>
VStem: -79 150<1758.07 1934.73> 282 168<307.394 1205> 829 155<498.411 771.896>
AnchorPoint: "Anchor-2" 615 90 basechar 0
AnchorPoint: "Anchor-1" 540 90 basechar 0
AnchorPoint: "Anchor-0" 435 1410 basechar 0
LayerCount: 2
Fore
SplineSet
1136 1205 m 1
 450 1205 l 1
 450 376 l 2
 450 348.666666667 459.166666667 325.5 477.5 306.5 c 0
 495.833333333 287.5 518.666666667 278 546 278 c 0
 589.333333333 278 633.666666667 300.333333333 679 345 c 1
 779 465 829 568 829 654 c 0
 829 666.666666667 828 679 826 691 c 0
 822 727 807.5 755.166666667 782.5 775.5 c 0
 757.5 795.833333333 732.666666667 815 708 833 c 1
 702 842.333333333 699 853.666666667 699 867 c 0
 699 890.333333333 708 911.333333333 726 930 c 0
 744 948.666666667 766.666666667 958 794 958 c 1
 920.666666667 871.333333333 984 775 984 669 c 0
 984 540.333333333 935.666666667 410 839 278 c 0
 736.333333333 138.666666667 628.333333333 69 515 69 c 0
 460.333333333 69 407.833333333 97.6666666667 357.5 155 c 0
 307.166666667 212.333333333 282 275 282 343 c 2
 282 1205 l 1
 263 1208 l 1
 -9 1208 l 1
 -9 1378 l 1
 263 1378 l 1
 425 1375 l 1
 869 1375 l 1
 884.333333333 1468.33333333 791.666666667 1515 591 1515 c 0
 562.333333333 1515 528.5 1513.83333333 489.5 1511.5 c 0
 450.5 1509.16666667 429 1508 425 1508 c 0
 235 1527.33333333 112.666666667 1552.66666667 58 1584 c 0
 -24.6666666667 1633.33333333 -70.3333333333 1733.66666667 -79 1885 c 1
 -76.3333333333 1921 -51.6666666667 1939 -5 1939 c 0
 29 1939 54.3333333333 1927.33333333 71 1904 c 1
 72.3333333333 1809.33333333 105 1745 169 1711 c 0
 215.666666667 1686.33333333 293.666666667 1673.33333333 403 1672 c 2
 560 1672 l 2
 696.666666667 1670.66666667 799.666666667 1654.33333333 869 1623 c 0
 971.666666667 1576.33333333 1026.33333333 1493.66666667 1033 1375 c 1
 1136 1375 l 1
 1136 1205 l 1
EndSplineSet
Validated: 33
EndChar

StartChar: u09a0
Encoding: 2464 2464 126
Width: 1055
GlyphClass: 2
Flags: W
HStem: 80 158<314.19 566.455> 1208 170<-12 362 676 1057> 1999 155<306.338 422.942>
VStem: 66 155<338.172 520.942> 135 160<1768.47 1987.38> 451 149<863.151 1057> 754 151<446.521 851.322>
AnchorPoint: "Anchor-2" 540 45 basechar 0
AnchorPoint: "Anchor-1" 435 75 basechar 0
AnchorPoint: "Anchor-0" 570 1410 basechar 0
LayerCount: 2
Fore
SplineSet
1057 1208 m 1xee
 676 1208 l 1
 828.666666667 1003.33333333 905 805.333333333 905 614 c 0
 905 479.333333333 862.666666667 358.666666667 778 252 c 0
 686.666666667 137.333333333 574.666666667 80 442 80 c 0
 393.333333333 80 343.666666667 88.6666666667 293 106 c 0
 238.333333333 126.666666667 186.833333333 179.333333333 138.5 264 c 0
 90.1666666667 348.666666667 66 428.666666667 66 504 c 0xf6
 66 560 81 601.666666667 111 629 c 1
 229.666666667 677.666666667 316 736.166666667 370 804.5 c 0
 424 872.833333333 451 961 451 1069 c 0
 451 1111.66666667 446.666666667 1158 438 1208 c 1
 -12 1208 l 1
 -12 1378 l 1
 362 1378 l 1
 326.666666667 1444 291.333333333 1509 256 1573 c 0
 214 1653.66666667 182 1726 160 1790 c 0
 143.333333333 1840.66666667 135 1886.33333333 135 1927 c 0
 135 2049.66666667 212.333333333 2125.33333333 367 2154 c 1
 411.666666667 2140.66666667 434 2108.66666667 434 2058 c 0
 434 2026.66666667 423 2007 401 1999 c 1
 330.333333333 1999 295 1972.33333333 295 1919 c 0
 295 1882.33333333 316.666666667 1816.66666667 360 1722 c 0
 400 1637.33333333 461.666666667 1522.66666667 545 1378 c 1
 1057 1378 l 1
 1057 1208 l 1xee
616 322 m 0
 708 410.666666667 754 515.666666667 754 637 c 0
 754 766.333333333 702.666666667 906.333333333 600 1057 c 1
 598.666666667 805.666666667 472.333333333 621.333333333 221 504 c 1
 222.333333333 424.666666667 243.833333333 360.5 285.5 311.5 c 0
 327.166666667 262.5 377.333333333 238 436 238 c 0
 498.666666667 238 558.666666667 266 616 322 c 0
EndSplineSet
Validated: 1
EndChar

StartChar: u09a1
Encoding: 2465 2465 127
Width: 1502
GlyphClass: 2
Flags: W
HStem: 72 164<689.774 1020.45> 541 155<679 858.952> 1208 170<-12 575 745 1503>
VStem: 59 150<936.736 1067.25> 575 170<700.537 1208> 1190 162<410.918 773.458>
AnchorPoint: "Anchor-2" 795 60 basechar 0
AnchorPoint: "Anchor-1" 870 60 basechar 0
AnchorPoint: "Anchor-0" 600 1395 basechar 0
LayerCount: 2
Fore
SplineSet
1503 1208 m 1
 745 1208 l 1
 745 725 l 1
 753.666666667 705.666666667 765.333333333 696 780 696 c 0
 832 696 918.666666667 787 1040 969 c 0
 1052.66666667 986.333333333 1072 995 1098 995 c 0
 1133.33333333 995 1164.66666667 982 1192 956 c 0
 1298.66666667 856.666666667 1352 742.666666667 1352 614 c 0
 1352 547.333333333 1338.33333333 473.666666667 1311 393 c 1
 1209.66666667 183 1067.66666667 76 885 72 c 0
 771.666666667 69.3333333333 659.666666667 104.666666667 549 178 c 0
 456.333333333 238 381.333333333 311 324 397 c 0
 221.333333333 551.666666667 133 757.333333333 59 1014 c 1
 56.3333333333 1034 63.5 1052 80.5 1068 c 0
 97.5 1084 118.333333333 1092 143 1092 c 0
 169 1092 191 1082.33333333 209 1063 c 1
 279.666666667 843 343 686 399 592 c 1
 444.333333333 492 510.666666667 407.666666667 598 339 c 0
 685.333333333 270.333333333 774 236 864 236 c 0
 965.333333333 236 1051.33333333 281 1122 371 c 1
 1167.33333333 439 1190 514.666666667 1190 598 c 0
 1190 677.333333333 1168.66666667 745.666666667 1126 803 c 1
 1048.66666667 717 990 658.333333333 950 627 c 0
 876.666666667 569.666666667 803.666666667 541 731 541 c 1
 627 557 575 636.666666667 575 780 c 2
 575 1208 l 1
 -12 1208 l 1
 -12 1378 l 1
 1503 1378 l 1
 1503 1208 l 1
EndSplineSet
Validated: 33
EndChar

StartChar: u09a2
Encoding: 2466 2466 128
Width: 1070
GlyphClass: 2
Flags: W
HStem: 67 204<417.189 594.757> 1203 170<-12 230 395 1071>
VStem: 231 164<300.909 1203>
AnchorPoint: "Anchor-2" 630 120 basechar 0
AnchorPoint: "Anchor-1" 495 75 basechar 0
AnchorPoint: "Anchor-0" 315 1365 basechar 0
LayerCount: 2
Fore
SplineSet
1071 1203 m 1
 395 1203 l 1
 395 370 l 2
 395 342.666666667 404.166666667 319.333333333 422.5 300 c 0
 440.833333333 280.666666667 464.333333333 271 493 271 c 0
 537 271 579.333333333 293.666666667 620 339 c 0
 729.333333333 457.666666667 778 571.666666667 766 681 c 0
 761.333333333 716.333333333 747.166666667 744.333333333 723.5 765 c 0
 699.833333333 785.666666667 675.666666667 804.666666667 651 822 c 1
 644.333333333 832 641 843.666666667 641 857 c 0
 641 879 649.833333333 899.166666667 667.5 917.5 c 0
 685.166666667 935.833333333 707.666666667 945 735 945 c 1
 796.333333333 900.333333333 840.666666667 860 868 824 c 0
 903.333333333 776.666666667 921 721.666666667 921 659 c 0
 921 533 873.333333333 404.666666667 778 274 c 0
 676.666666667 136 570.666666667 67 460 67 c 0
 407.333333333 67 356 95.3333333333 306 152 c 0
 256 208.666666667 231 270.333333333 231 337 c 2
 231 1226 l 1
 230 1208 l 1
 -12 1208 l 1
 -12 1378 l 1
 230 1378 l 1
 230.666666667 1374.66666667 278 1373 372 1373 c 2
 1071 1373 l 1
 1071 1203 l 1
EndSplineSet
Validated: 33
EndChar

StartChar: u09a3
Encoding: 2467 2467 129
Width: 1060
GlyphClass: 2
Flags: W
HStem: 561 154<315.471 443.488> 1171 156<333.488 628.6> 1208 170<923 1072>
VStem: 81 154<796.808 1072.98> 757 166<99.5625 1048.2>
AnchorPoint: "Anchor-2" 900 270 basechar 0
AnchorPoint: "Anchor-1" 855 75 basechar 0
AnchorPoint: "Anchor-0" 915 1365 basechar 0
LayerCount: 2
Fore
SplineSet
1072 1208 m 1xb8
 923 1208 l 1xb8
 923 158 l 2
 923 112.666666667 897.666666667 90 847 90 c 0
 823.666666667 90 802.833333333 96.1666666667 784.5 108.5 c 0
 766.166666667 120.833333333 757 136.666666667 757 156 c 2
 757 842 l 2
 757 873.333333333 749.333333333 924.333333333 734 995 c 0
 724.666666667 1043 693.666666667 1084.33333333 641 1119 c 0
 588.333333333 1153.66666667 532 1171 472 1171 c 0
 409.333333333 1171 356.666666667 1151.33333333 314 1112 c 0
 261.333333333 1062.66666667 235 1004 235 936 c 0
 235 878.666666667 252.666666667 828.166666667 288 784.5 c 0
 323.333333333 740.833333333 367 717.666666667 419 715 c 1
 443.666666667 708.333333333 456 689 456 657 c 0
 456 634.333333333 449.166666667 612.666666667 435.5 592 c 0
 421.833333333 571.333333333 406 561 388 561 c 1
 238 589.666666667 142.333333333 671 101 805 c 0
 87.6666666667 848.333333333 81 892.666666667 81 938 c 0
 81 1030.66666667 108.666666667 1112.5 164 1183.5 c 0
 219.333333333 1254.5 294.666666667 1298.33333333 390 1315 c 0
 434 1323 473 1327 507 1327 c 0xd8
 595.666666667 1327 679.666666667 1295 759 1231 c 1
 773.666666667 1329 820.666666667 1378 900 1378 c 2
 1072 1378 l 1
 1072 1208 l 1xb8
EndSplineSet
Validated: 1
EndChar

StartChar: u09a4
Encoding: 2468 2468 130
Width: 1474
GlyphClass: 2
Flags: W
HStem: 78 160<701.745 1024.97> 1208 170<-12 1487>
VStem: 59 152<915.896 1107.83> 618 162<728.986 940.682> 1176 159<422.563 850.242>
AnchorPoint: "Anchor-2" 870 120 basechar 0
AnchorPoint: "Anchor-1" 885 90 basechar 0
AnchorPoint: "Anchor-0" 675 1380 basechar 0
LayerCount: 2
Fore
SplineSet
1487 1208 m 1
 -12 1208 l 1
 -12 1378 l 1
 1487 1378 l 1
 1487 1208 l 1
1323 516 m 0
 1297 384.666666667 1247.33333333 280.333333333 1174 203 c 0
 1096 119.666666667 999.666666667 78 885 78 c 0
 856.333333333 78 827 80.6666666667 797 86 c 0
 685 106.666666667 590 145.666666667 512 203 c 0
 468 235.666666667 412.666666667 293 346 375 c 0
 184.666666667 573 89 799.666666667 59 1055 c 1
 53.6666666667 1076.33333333 59.8333333333 1094.16666667 77.5 1108.5 c 0
 95.1666666667 1122.83333333 116.333333333 1130 141 1130 c 0
 175.666666667 1130 199 1116.66666667 211 1090 c 1
 251.666666667 924.666666667 282.333333333 814.666666667 303 760 c 0
 345.666666667 650.666666667 405 549.666666667 481 457 c 0
 541 384.333333333 595.666666667 334.333333333 645 307 c 0
 677.666666667 288.333333333 739 266 829 240 c 0
 843 238.666666667 856.666666667 238 870 238 c 0
 968.666666667 238 1044.66666667 278 1098 358 c 0
 1145.33333333 429.333333333 1171.33333333 523 1176 639 c 0
 1180 748.333333333 1154.66666667 833.666666667 1100 895 c 0
 1048 952.333333333 979.666666667 977.666666667 895 971 c 1
 818.333333333 955.666666667 780 912.666666667 780 842 c 0
 780 810.666666667 789 782.666666667 807 758 c 1
 807 734.666666667 798.5 714.166666667 781.5 696.5 c 0
 764.5 678.833333333 744.333333333 670 721 670 c 0
 703 670 686 675.333333333 670 686 c 1
 635.333333333 740.666666667 618 795.333333333 618 850 c 0
 618 928 650.333333333 994.333333333 715 1049 c 0
 775 1101.66666667 844.666666667 1128 924 1128 c 0
 1053.33333333 1129.33333333 1156.33333333 1080.33333333 1233 981 c 0
 1301 891 1335 779 1335 645 c 0
 1335 601.666666667 1331 558.666666667 1323 516 c 0
EndSplineSet
Validated: 33
EndChar

StartChar: u09a5
Encoding: 2469 2469 131
Width: 1183
GlyphClass: 2
Flags: W
HStem: 1178 161<248.038 492.152> 1208 170<1028 1177>
VStem: 42 154<938.847 1122.88> 540 154<875.411 1129.04> 860 168<297 1208>
AnchorPoint: "Anchor-2" 1035 90 basechar 0
AnchorPoint: "Anchor-1" 975 75 basechar 0
AnchorPoint: "Anchor-0" 945 1380 basechar 0
LayerCount: 2
Fore
SplineSet
1177 1208 m 1x78
 1028 1208 l 1x78
 1028 141 l 2
 1028 125 1016.66666667 111.166666667 994 99.5 c 0
 971.333333333 87.8333333333 947 82 921 82 c 0
 899 82 881.333333333 86.6666666667 868 96 c 2
 262 551 l 1
 252 574.333333333 247 596.666666667 247 618 c 0
 247 650 258.666666667 670.666666667 282 680 c 0
 347.333333333 706 406.666666667 753.5 460 822.5 c 0
 513.333333333 891.5 540 957.333333333 540 1020 c 0
 540 1093.33333333 501 1144.66666667 423 1174 c 1
 400.333333333 1176.66666667 379.333333333 1178 360 1178 c 0
 257.333333333 1178 202.666666667 1115 196 989 c 1
 190.666666667 952.333333333 163.333333333 934 114 934 c 0
 76 934 52 947.666666667 42 975 c 1
 28.6666666667 1197.66666667 118.333333333 1318.33333333 311 1337 c 0
 327 1338.33333333 343.333333333 1339 360 1339 c 0xb8
 460.666666667 1339 541.5 1309.66666667 602.5 1251 c 0
 663.5 1192.33333333 694 1116.66666667 694 1024 c 0
 694 948.666666667 674 871.666666667 634 793 c 0
 606.666666667 738.333333333 548 674.666666667 458 602 c 1
 860 297 l 1
 860 1231 l 2
 860 1280.33333333 876.333333333 1318.66666667 909 1346 c 0
 936.333333333 1367.33333333 968.333333333 1378 1005 1378 c 2
 1177 1378 l 1
 1177 1208 l 1x78
EndSplineSet
Validated: 33
EndChar

StartChar: u09a6
Encoding: 2470 2470 132
Width: 901
GlyphClass: 2
Flags: W
HStem: 1208 170<-12 78 244 915>
VStem: 78 166<821 1208> 510 156<287.309 813.66>
AnchorPoint: "Anchor-2" 780 210 basechar 0
AnchorPoint: "Anchor-1" 735 90 basechar 0
AnchorPoint: "Anchor-0" 315 1380 basechar 0
LayerCount: 2
Fore
SplineSet
915 1208 m 1
 244 1208 l 1
 244 821 l 1
 302.666666667 877 368 928.333333333 440 975 c 0
 532 1033.66666667 604.333333333 1063 657 1063 c 0
 665.666666667 1063 673.333333333 1062.33333333 680 1061 c 0
 740 1057 766.666666667 1025.66666667 760 967 c 1
 697.333333333 793.666666667 666 650.333333333 666 537 c 0
 666 413.666666667 698 290.666666667 762 168 c 1
 768.666666667 134 756.333333333 109.333333333 725 94 c 0
 700.333333333 80.6666666667 669 76.6666666667 631 82 c 1
 550.333333333 225.333333333 510 372 510 522 c 0
 510 623.333333333 527.666666667 736 563 860 c 1
 440.333333333 805.333333333 325.666666667 715.333333333 219 590 c 1
 199.666666667 577.333333333 178.666666667 571 156 571 c 0
 104 571 78 593 78 637 c 2
 78 1208 l 1
 -12 1208 l 1
 -12 1378 l 1
 915 1378 l 1
 915 1208 l 1
EndSplineSet
Validated: 33
EndChar

StartChar: u09a7
Encoding: 2471 2471 133
Width: 978
GlyphClass: 2
Flags: W
HStem: 1208 170<224.054 420.621 844 991>
VStem: 57 160<1047.85 1194.48> 678 166<311 961 1153 1208>
AnchorPoint: "Anchor-2" 870 30 basechar 0
AnchorPoint: "Anchor-1" 780 75 basechar 0
AnchorPoint: "Anchor-0" 750 1380 basechar 0
LayerCount: 2
Fore
SplineSet
991 1208 m 1
 844 1208 l 1
 844 125 l 2
 844 111 832.666666667 99 810 89 c 0
 787.333333333 79 763 74 737 74 c 0
 715.666666667 74 698.666666667 78 686 86 c 1
 78 657 l 1
 68 671 63 689 63 711 c 0
 63 742.333333333 73.3333333333 769.666666667 94 793 c 1
 236 877 l 1
 151.333333333 923 93 989 61 1075 c 1
 58.3333333333 1094.33333333 57 1112 57 1128 c 0
 57 1211.33333333 90.6666666667 1274.33333333 158 1317 c 0
 216.666666667 1355 291 1374 381 1374 c 1
 413.666666667 1364.66666667 430 1342.33333333 430 1307 c 0
 430 1259 415 1228 385 1214 c 1
 273 1214 217 1187.66666667 217 1135 c 0
 217 1123.66666667 219 1111.33333333 223 1098 c 1
 263 1029.33333333 321.666666667 995 399 995 c 0
 410.333333333 995 421.333333333 995.666666667 432 997 c 1
 678 1153 l 1
 678 1231 l 2
 678 1329 725 1378 819 1378 c 2
 991 1378 l 1
 991 1208 l 1
678 311 m 1
 678 961 l 1
 262 698 l 1
 678 311 l 1
EndSplineSet
Validated: 1
EndChar

StartChar: u09a8
Encoding: 2472 2472 134
Width: 1064
GlyphClass: 2
Flags: W
HStem: 780 160<322.788 641.144> 1206 172<-12 762 928 1077>
VStem: 76 162<417.029 697.2> 762 166<69.876 652.883 842 1206>
AnchorPoint: "Anchor-2" 915 0 basechar 0
AnchorPoint: "Anchor-1" 840 75 basechar 0
AnchorPoint: "Anchor-0" 825 1410 basechar 0
LayerCount: 2
Fore
SplineSet
1077 1206 m 1
 928 1206 l 1
 928 115 l 2
 928 82.3333333333 900.666666667 66 846 66 c 0
 790 66 762 82.3333333333 762 115 c 2
 762 532 l 1
 745.333333333 604.666666667 720 660.166666667 686 698.5 c 0
 652 736.833333333 601.666666667 762 535 774 c 0
 514.333333333 778 493 780 471 780 c 0
 404.333333333 780 349.666666667 761 307 723 c 0
 261 682.333333333 238 629 238 563 c 0
 238 547 239.333333333 530.666666667 242 514 c 0
 248.666666667 474.666666667 260.833333333 444 278.5 422 c 0
 296.166666667 400 326.333333333 377.333333333 369 354 c 1
 381 340.666666667 387 325 387 307 c 0
 387 282.333333333 377.833333333 260.833333333 359.5 242.5 c 0
 341.166666667 224.166666667 321 217 299 221 c 1
 209 257.666666667 147 315 113 393 c 0
 88.3333333333 450.333333333 76 508.333333333 76 567 c 0
 76 660.333333333 105.333333333 741.333333333 164 810 c 0
 222.666666667 878.666666667 301.666666667 920 401 934 c 0
 428.333333333 938 455.666666667 940 483 940 c 0
 589.666666667 940 682.666666667 907.333333333 762 842 c 1
 762 1206 l 1
 -12 1206 l 1
 -12 1378 l 1
 1077 1378 l 1
 1077 1206 l 1
EndSplineSet
Validated: 33
EndChar

StartChar: u09aa
Encoding: 2474 2474 135
Width: 1366
GlyphClass: 2
Flags: W
HStem: 1206 172<453.941 735.06 1228 1377>
VStem: 1060 168<76.1924 833.226 1087 1206>
AnchorPoint: "Anchor-2" 1140 -15 basechar 0
AnchorPoint: "Anchor-1" 1170 90 basechar 0
AnchorPoint: "Anchor-0" 1140 1380 basechar 0
LayerCount: 2
Fore
SplineSet
1377 1206 m 1
 1228 1206 l 1
 1228 125 l 2
 1228 89.6666666667 1200.66666667 72 1146 72 c 0
 1088.66666667 72 1060 89 1060 123 c 2
 1060 670 l 2
 1060 746 1018.33333333 848.333333333 935 977 c 1
 497 547 l 1
 489.666666667 545.666666667 482 545 474 545 c 0
 448 545 426.166666667 553.166666667 408.5 569.5 c 0
 390.833333333 585.833333333 382 606.333333333 382 631 c 0
 382 640.333333333 383.333333333 649.666666667 386 659 c 1
 454 731 l 1
 267 958 l 1
 220 883 l 1
 208 875.666666667 195 872 181 872 c 0
 157.666666667 872 135.833333333 881 115.5 899 c 0
 95.1666666667 917 83.6666666667 937.666666667 81 961 c 1
 176.333333333 1175 321 1306 515 1354 c 0
 545 1362 575.666666667 1366 607 1366 c 0
 769.666666667 1366 920.666666667 1273 1060 1087 c 1
 1060 1229 l 2
 1060 1269.66666667 1074 1304.66666667 1102 1334 c 0
 1130 1363.33333333 1163.66666667 1378 1203 1378 c 2
 1377 1378 l 1
 1377 1206 l 1
828 1096 m 1
 749.333333333 1165.33333333 671 1200 593 1200 c 256
 515 1200 437.666666667 1164.66666667 361 1094 c 1
 572 842 l 1
 828 1096 l 1
EndSplineSet
Validated: 1
EndChar

StartChar: u09ab
Encoding: 2475 2475 136
Width: 1414
GlyphClass: 2
Flags: W
HStem: 463 162<970.429 1075.59> 1020 154<854 1013.94> 1208 170<-49 12 236 1421>
VStem: 686 166<311 1020> 1108 162<653.277 932.318>
AnchorPoint: "Anchor-2" 885 30 basechar 0
AnchorPoint: "Anchor-1" 795 60 basechar 0
AnchorPoint: "Anchor-0" 630 1380 basechar 0
LayerCount: 2
Fore
SplineSet
1421 1208 m 1
 236 1208 l 1
 461 952 l 1
 469 929.333333333 473 909.666666667 473 893 c 0
 473 868.333333333 462.666666667 849.333333333 442 836 c 1
 258 662 l 1
 686 311 l 1
 686 1042 l 2
 686 1130 714 1174 770 1174 c 0
 1003.33333333 1174 1155 1107.66666667 1225 975 c 0
 1255 917.666666667 1270 857.666666667 1270 795 c 0
 1270 710.333333333 1245.33333333 635.166666667 1196 569.5 c 0
 1146.66666667 503.833333333 1092 468.333333333 1032 463 c 1
 986 468.333333333 963 498.333333333 963 553 c 0
 963 588.333333333 978 612.333333333 1008 625 c 1
 1034 622.333333333 1057.16666667 638 1077.5 672 c 0
 1097.83333333 706 1108 746.333333333 1108 793 c 0
 1108 833.666666667 1099 871 1081 905 c 0
 1044.33333333 976.333333333 968.666666667 1014.66666667 854 1020 c 1
 852 150 l 1
 857.333333333 102 830.666666667 78 772 78 c 0
 740.666666667 78 714 86.6666666667 692 104 c 2
 86 598 l 1
 74 618.666666667 68 638.333333333 68 657 c 0
 68 681.666666667 78 705 98 727 c 1
 289 901 l 1
 12 1208 l 1
 -49 1208 l 1
 -49 1378 l 1
 1421 1378 l 1
 1421 1208 l 1
EndSplineSet
Validated: 33
EndChar

StartChar: u09ac
Encoding: 2476 2476 137
Width: 985
GlyphClass: 2
Flags: W
HStem: 1208 170<-12 682 848 997>
VStem: 682 164<330 973 1155 1208>
AnchorPoint: "Anchor-2" 915 15 basechar 0
AnchorPoint: "Anchor-1" 780 90 basechar 0
AnchorPoint: "Anchor-0" 720 1380 basechar 0
LayerCount: 2
Fore
SplineSet
997 1208 m 1
 848 1208 l 1
 846 145 l 1
 842 127.666666667 830.666666667 112.5 812 99.5 c 0
 793.333333333 86.5 773.333333333 80 752 80 c 0
 727.333333333 80 706 88 688 104 c 2
 80 664 l 2
 66 676 59 694.333333333 59 719 c 0
 59 751.666666667 68.6666666667 774 88 786 c 2
 682 1155 l 1
 682 1208 l 1
 -12 1208 l 1
 -12 1378 l 1
 997 1378 l 1
 997 1208 l 1
682 330 m 1
 682 973 l 1
 264 709 l 1
 682 330 l 1
EndSplineSet
Validated: 1
EndChar

StartChar: u09ad
Encoding: 2477 2477 138
Width: 1634
GlyphClass: 2
Flags: W
HStem: 49 178<746.925 1118.16> 573 158<826.346 1043.46> 1208 170<-12 1636>
VStem: 59 148<973.721 1194.62> 633 168<753.962 975.392> 1325 166<425.731 734.982>
AnchorPoint: "Anchor-2" 900 90 basechar 0
AnchorPoint: "Anchor-1" 990 60 basechar 0
AnchorPoint: "Anchor-0" 720 1395 basechar 0
LayerCount: 2
Fore
SplineSet
1636 1208 m 1
 -12 1208 l 1
 -12 1378 l 1
 1636 1378 l 1
 1636 1208 l 1
1425 358 m 0
 1305 152 1142.66666667 49 938 49 c 0
 707.333333333 49 501 182.333333333 319 449 c 0
 241.666666667 563.666666667 183.666666667 672 145 774 c 0
 109.666666667 870 81 991.666666667 59 1139 c 1
 69 1179.66666667 94.3333333333 1200 135 1200 c 0
 157 1200 181 1194 207 1182 c 1
 231.666666667 1008.66666667 285.666666667 841.333333333 369 680 c 0
 430.333333333 561.333333333 502.666666667 462.333333333 586 383 c 0
 696.666666667 279 812 227 932 227 c 0
 981.333333333 227 1030.33333333 236 1079 254 c 0
 1146.33333333 278.666666667 1204.16666667 322 1252.5 384 c 0
 1300.83333333 446 1325 512.666666667 1325 584 c 0
 1325 649.333333333 1303.33333333 710 1260 766 c 1
 1169.33333333 660.666666667 1080.33333333 599.333333333 993 582 c 0
 967 576 942.666666667 573 920 573 c 0
 834 573 764.666666667 602.833333333 712 662.5 c 0
 659.333333333 722.166666667 633 794.333333333 633 879 c 0
 633 917 638.333333333 954.333333333 649 991 c 1
 669.666666667 1011.66666667 691.666666667 1022 715 1022 c 0
 749 1022 781 1002.33333333 811 963 c 1
 804.333333333 931 801 902.333333333 801 877 c 0
 801 779.666666667 841.333333333 731 922 731 c 0
 932.666666667 731 943.333333333 731.666666667 954 733 c 0
 1007.33333333 747 1052.66666667 775 1090 817 c 0
 1107.33333333 835 1133.66666667 873.333333333 1169 932 c 1
 1180.33333333 959.333333333 1207 973 1249 973 c 0
 1271 973 1289.66666667 966 1305 952 c 0
 1429 836 1491 714 1491 586 c 0
 1491 510.666666667 1469 434.666666667 1425 358 c 0
EndSplineSet
Validated: 1
EndChar

StartChar: u09ae
Encoding: 2478 2478 139
Width: 1157
GlyphClass: 2
Flags: W
HStem: 129 156<365.268 518.918> 709 163<510.154 658.029> 1208 170<-12 133 322 852 1020 1169>
VStem: 133 154<361.011 628.003> 852 168<86.7852 491.734 717 1208>
AnchorPoint: "Anchor-2" 945 45 basechar 0
AnchorPoint: "Anchor-1" 945 90 basechar 0
AnchorPoint: "Anchor-0" 885 1365 basechar 0
LayerCount: 2
Fore
SplineSet
1169 1208 m 1
 1020 1208 l 1
 1020 131 l 2
 1020 98.3333333333 994 82 942 82 c 0
 882 82 852 99 852 133 c 2
 852 221 l 2
 852 409.666666667 809 542 723 618 c 0
 656.333333333 678.666666667 583.333333333 709 504 709 c 0
 408 709 339 663.666666667 297 573 c 1
 290.333333333 549 287 524.666666667 287 500 c 0
 287 440 304.666666667 390 340 350 c 0
 376.666666667 306.666666667 426.333333333 285 489 285 c 1
 513.666666667 272.333333333 526 249 526 215 c 0
 526 191.666666667 520.333333333 171.166666667 509 153.5 c 0
 497.666666667 135.833333333 483.666666667 127.666666667 467 129 c 0
 299 139.666666667 190.333333333 230.333333333 141 401 c 1
 135.666666667 437 133 470.666666667 133 502 c 0
 133 644 208.666666667 757.333333333 360 842 c 1
 357.333333333 892.666666667 331 928.666666667 281 950 c 0
 241 966.666666667 193 973 137 969 c 1
 83.6666666667 978.333333333 57 1007.66666667 57 1057 c 0
 57 1066.33333333 58.3333333333 1076.33333333 61 1087 c 1
 133 1208 l 1
 -12 1208 l 1
 -12 1378 l 1
 1169 1378 l 1
 1169 1208 l 1
852 717 m 1
 852 1208 l 1
 322 1208 l 1
 270 1122 l 1
 338.666666667 1108.66666667 395.5 1080.16666667 440.5 1036.5 c 0
 485.5 992.833333333 511.333333333 938 518 872 c 1
 635.333333333 873.333333333 746.666666667 821.666666667 852 717 c 1
EndSplineSet
Validated: 33
EndChar

StartChar: u09af
Encoding: 2479 2479 140
Width: 1003
GlyphClass: 2
Flags: W
HStem: 1208 170<-12 51 260 700 866 1016>
VStem: 700 166<293 1208>
AnchorPoint: "Anchor-2" 885 30 basechar 0
AnchorPoint: "Anchor-1" 780 75 basechar 0
AnchorPoint: "Anchor-0" 735 1365 basechar 0
LayerCount: 2
Fore
SplineSet
1016 1208 m 1
 866 1208 l 1
 866 141 l 2
 866 93.6666666667 834.666666667 70 772 70 c 0
 746 70 725 76 709 88 c 2
 70 555 l 2
 49.3333333333 570.333333333 39 589.333333333 39 612 c 0
 39 632.666666667 45.6666666667 653.333333333 59 674 c 1
 311 897 l 1
 51 1208 l 1
 -12 1208 l 1
 -12 1378 l 1
 1016 1378 l 1
 1016 1208 l 1
700 293 m 1
 700 1208 l 1
 260 1208 l 1
 483 930 l 1
 490.333333333 914.666666667 494 898.333333333 494 881 c 0
 494 855 486.333333333 835 471 821 c 2
 238 623 l 1
 700 293 l 1
EndSplineSet
Validated: 1
EndChar

StartChar: u09b0
Encoding: 2480 2480 141
Width: 985
GlyphClass: 2
Flags: W
HStem: 197 223<62.5192 214.997> 1208 170<-12 682 848 997>
VStem: 31 217<228.457 383.903> 682 164<330 973 1155 1208>
AnchorPoint: "Anchor-2" 915 30 basechar 0
AnchorPoint: "Anchor-1" 780 75 basechar 0
AnchorPoint: "Anchor-0" 720 1395 basechar 0
LayerCount: 2
Fore
SplineSet
997 1208 m 1
 848 1208 l 1
 846 145 l 1
 842 127.666666667 830.666666667 112.5 812 99.5 c 0
 793.333333333 86.5 773.333333333 80 752 80 c 0
 727.333333333 80 706 88 688 104 c 2
 80 664 l 2
 66 676 59 694.333333333 59 719 c 0
 59 751.666666667 68.6666666667 774 88 786 c 2
 682 1155 l 1
 682 1208 l 1
 -12 1208 l 1
 -12 1378 l 1
 997 1378 l 1
 997 1208 l 1
248 303 m 0
 248 273 237.333333333 247.833333333 216 227.5 c 0
 194.666666667 207.166666667 169.666666667 197 141 197 c 0
 109.666666667 197 83.1666666667 207.166666667 61.5 227.5 c 0
 39.8333333333 247.833333333 29.6666666667 273 31 303 c 1
 28.3333333333 334.333333333 37.5 361.666666667 58.5 385 c 0
 79.5 408.333333333 106.333333333 420 139 420 c 0
 167.666666667 420 193 408.666666667 215 386 c 0
 237 363.333333333 248 335.666666667 248 303 c 0
682 330 m 1
 682 973 l 1
 264 709 l 1
 682 330 l 1
EndSplineSet
Validated: 33
EndChar

StartChar: u09b0
Encoding: 2482 2482 142
Width: 1411
GlyphClass: 2
Flags: W
HStem: 373 151<436.719 522.547> 911 168<801.438 989.642> 930 164<287.781 544.785> 1208 170<-12 1104 1272 1423>
VStem: 55 162<604.64 859.778> 1104 168<68.2271 785.268 973 1208>
AnchorPoint: "Anchor-2" 1155 -15 basechar 0
AnchorPoint: "Anchor-1" 1200 60 basechar 0
AnchorPoint: "Anchor-0" 1155 1380 basechar 0
LayerCount: 2
Fore
SplineSet
1423 1208 m 1xdc
 1272 1208 l 1
 1272 147 l 2
 1272 89.6666666667 1243.33333333 61 1186 61 c 0
 1131.33333333 61 1104 88.3333333333 1104 143 c 2
 1104 713 l 1
 1031.33333333 845 959.666666667 911 889 911 c 0xdc
 834.333333333 911 788.666666667 868.666666667 752 784 c 1
 738 769.333333333 714 762 680 762 c 256
 646 762 620.666666667 770.666666667 604 788 c 1
 572.666666667 882.666666667 510 930 416 930 c 0
 331.333333333 930 269.666666667 890.333333333 231 811 c 1
 221.666666667 783.666666667 217 757 217 731 c 0
 217 664.333333333 243.333333333 611.166666667 296 571.5 c 0
 348.666666667 531.833333333 409 516 477 524 c 1
 512.333333333 512 530 489.666666667 530 457 c 0
 530 418.333333333 513.666666667 390.333333333 481 373 c 1
 466.333333333 371.666666667 451.333333333 371 436 371 c 0
 328 371 237.5 406.5 164.5 477.5 c 0
 91.5 548.5 55 632.333333333 55 729 c 0
 55 795.666666667 74.3333333333 859.333333333 113 920 c 0
 185 1036 287.333333333 1094 420 1094 c 0xbc
 522 1094 608 1053.66666667 678 973 c 1
 744.666666667 1043.66666667 813 1079 883 1079 c 0
 952.333333333 1079 1026 1043.66666667 1104 973 c 1
 1104 1208 l 1
 -12 1208 l 1
 -12 1378 l 1
 1423 1378 l 1
 1423 1208 l 1xdc
EndSplineSet
Validated: 33
EndChar

StartChar: u09b6
Encoding: 2486 2486 143
Width: 1292
GlyphClass: 2
Flags: W
HStem: 676 155<7.33472 208.145 614.923 819.019> 1208 170<-28.3865 237.512 571.851 889.469 1154 1306>
VStem: 312 203<920.627 1136.21> 984 170<89.1758 1127.81>
AnchorPoint: "Anchor-2" 1035 30 basechar 0
AnchorPoint: "Anchor-1" 1110 75 basechar 0
AnchorPoint: "Anchor-0" 1095 1365 basechar 0
LayerCount: 2
Fore
SplineSet
1306 1208 m 1
 1154 1208 l 1
 1154 137 l 2
 1154 101.666666667 1128 84 1076 84 c 0
 1014.66666667 84 984 101.666666667 984 137 c 2
 984 1038 l 2
 984 1080.66666667 957.333333333 1119.66666667 904 1155 c 0
 846.666666667 1191.66666667 781.333333333 1210 708 1210 c 0
 660 1210 617 1196.33333333 579 1169 c 0
 533.666666667 1137.66666667 512.333333333 1094.66666667 515 1040 c 0
 517.666666667 966.666666667 546.333333333 914.333333333 601 883 c 0
 640.333333333 859.666666667 708 842.333333333 804 831 c 1
 818.666666667 823 826 804 826 774 c 0
 826 728 814.666666667 695.333333333 792 676 c 1
 686.666666667 684 609.333333333 699.666666667 560 723 c 0
 504 747.666666667 455.666666667 792.666666667 415 858 c 1
 371 780 317.666666667 728 255 702 c 0
 211 686 138 675.333333333 36 670 c 1
 12.6666666667 688.666666667 1 713.666666667 1 745 c 0
 1 775.666666667 10 802.333333333 28 825 c 1
 98.6666666667 829 160.666666667 846.833333333 214 878.5 c 0
 267.333333333 910.166666667 300 952.666666667 312 1006 c 1
 317.333333333 1048 306.666666667 1086.66666667 280 1122 c 0
 248 1163.33333333 208.333333333 1189.33333333 161 1200 c 0
 135 1205.33333333 84.3333333333 1208 9 1208 c 0
 -18.3333333333 1208 -32 1237.33333333 -32 1296 c 0
 -32 1350.66666667 -18.3333333333 1378 9 1378 c 0
 117 1378 188.666666667 1373.33333333 224 1364 c 0
 296.666666667 1342 359.666666667 1290 413 1208 c 1
 455 1265.33333333 496.166666667 1306 536.5 1330 c 0
 576.833333333 1354 632.333333333 1370 703 1378 c 0
 751 1383.33333333 803.666666667 1376.16666667 861 1356.5 c 0
 918.333333333 1336.83333333 963.333333333 1311.33333333 996 1280 c 1
 1024.66666667 1345.33333333 1069 1378 1129 1378 c 2
 1306 1378 l 1
 1306 1208 l 1
EndSplineSet
Validated: 33
EndChar

StartChar: u09b7
Encoding: 2487 2487 144
Width: 1003
GlyphClass: 2
Flags: W
HStem: 1208 170<-12 51 260 700 866 1016>
VStem: 700 166<293 659 831 1208>
AnchorPoint: "Anchor-2" 870 60 basechar 0
AnchorPoint: "Anchor-1" 795 45 basechar 0
AnchorPoint: "Anchor-0" 720 1395 basechar 0
LayerCount: 2
Fore
SplineSet
1016 1208 m 1
 866 1208 l 1
 866 141 l 2
 866 93.6666666667 834.666666667 70 772 70 c 0
 746 70 725 76 709 88 c 2
 70 555 l 2
 49.3333333333 570.333333333 39 589.333333333 39 612 c 0
 39 632.666666667 45.6666666667 653.333333333 59 674 c 1
 311 897 l 1
 51 1208 l 1
 -12 1208 l 1
 -12 1378 l 1
 1016 1378 l 1
 1016 1208 l 1
700 831 m 1
 700 1208 l 1
 260 1208 l 1
 442 981 l 1
 442 944.333333333 528 894.333333333 700 831 c 1
700 293 m 1
 700 659 l 1
 424 782 l 1
 238 623 l 1
 700 293 l 1
EndSplineSet
Validated: 1
EndChar

StartChar: u09b8
Encoding: 2488 2488 145
Width: 1343
GlyphClass: 2
Flags: W
HStem: 231 175<261.459 428.912> 788 146<766.303 895.736> 1206 172<-12 266 465 1036 1206 1356>
VStem: 1036 170<64.4688 553.558 799 1206>
AnchorPoint: "Anchor-2" 975 15 basechar 0
AnchorPoint: "Anchor-1" 1125 60 basechar 0
AnchorPoint: "Anchor-0" 1080 1395 basechar 0
LayerCount: 2
Fore
SplineSet
1356 1206 m 1
 1206 1206 l 1
 1206 115 l 2
 1206 77.6666666667 1180 59 1128 59 c 0
 1066.66666667 59 1036 77.6666666667 1036 115 c 2
 1036 250 l 2
 1036 394.666666667 1011 523 961 635 c 0
 914.333333333 737 867 788 819 788 c 0
 795.666666667 788 777.333333333 771.666666667 764 739 c 1
 721.333333333 594.333333333 662.666666667 475 588 381 c 0
 508.666666667 281 426 231 340 231 c 0
 240 231 148.666666667 302 66 444 c 0
 61.3333333333 456.666666667 59 468.333333333 59 479 c 0
 59 527 86.3333333333 551 141 551 c 0
 161.666666667 551 181 545.666666667 199 535 c 1
 247.666666667 449 296.666666667 406 346 406 c 0
 421.333333333 406 504.666666667 521.333333333 596 752 c 1
 555.333333333 830.666666667 513.666666667 885 471 915 c 0
 423 948.333333333 356 966.333333333 270 969 c 1
 245.333333333 965 225.833333333 970.5 211.5 985.5 c 0
 197.166666667 1000.5 190 1019.33333333 190 1042 c 0
 190 1058.66666667 194.333333333 1075.33333333 203 1092 c 2
 266 1206 l 1
 -12 1206 l 1
 -12 1378 l 1
 1356 1378 l 1
 1356 1206 l 1
1036 799 m 1
 1036 1206 l 1
 465 1206 l 1
 408 1112 l 1
 521.333333333 1086 619.333333333 1016.33333333 702 903 c 1
 738 923.666666667 773 934 807 934 c 0
 873.666666667 934 950 889 1036 799 c 1
EndSplineSet
Validated: 1
EndChar

StartChar: u09b9
Encoding: 2489 2489 146
Width: 909
GlyphClass: 2
Flags: W
HStem: 1061 317<343.945 595.389> 1206 172<-12 227 596 928>
VStem: 113 151<804.295 982.5> 692 156<728.99 986.476>
AnchorPoint: "Anchor-2" 810 30 basechar 0
AnchorPoint: "Anchor-1" 660 105 basechar 0
AnchorPoint: "Anchor-0" 450 1380 basechar 0
LayerCount: 2
Fore
SplineSet
596 1206 m 1x70
 764 1157.33333333 848 1037.33333333 848 846 c 0
 848 822.666666667 846.666666667 798.666666667 844 774 c 1
 796 582.666666667 641.666666667 466.666666667 381 426 c 1
 1024 20 l 1
 1028 6.66666666667 1030 -6 1030 -18 c 0
 1030 -71.3333333333 999.333333333 -95.3333333333 938 -90 c 1
 61 453 l 1
 46.3333333333 473 39 495.333333333 39 520 c 0
 39 572 61.3333333333 598 106 598 c 0
 116 598 126.333333333 596 137 592 c 0
 190.333333333 584 241 580 289 580 c 0
 495 580 627.333333333 651.666666667 686 795 c 1
 690 813.666666667 692 832 692 850 c 0
 692 902 678 947.333333333 650 986 c 0
 622 1024.66666667 584.333333333 1049 537 1059 c 0
 523 1060.33333333 510 1061 498 1061 c 0xb0
 350 1061 272 987.333333333 264 840 c 1
 249.333333333 812.666666667 224 799 188 799 c 0
 150 799 125 818 113 856 c 1
 113 914.666666667 128 973.333333333 158 1032 c 0
 188 1090.66666667 228.333333333 1135 279 1165 c 1
 227 1206 l 1
 -12 1206 l 1
 -12 1378 l 1
 928 1378 l 1
 928 1206 l 1
 596 1206 l 1x70
EndSplineSet
Validated: 33
EndChar

StartChar: u09bc
Encoding: 2492 2492 147
Width: 12
GlyphClass: 2
Flags: W
HStem: -238 181<-365.169 -210.831>
VStem: -380 184<-223.535 -69.854>
LayerCount: 2
Fore
SplineSet
-196 -145 m 0
 -196 -169.666666667 -205.5 -191.333333333 -224.5 -210 c 0
 -243.5 -228.666666667 -264.666666667 -238 -288 -238 c 256
 -311.333333333 -238 -332.5 -228.666666667 -351.5 -210 c 0
 -370.5 -191.333333333 -380 -169.666666667 -380 -145 c 0
 -380 -121 -370.833333333 -100.333333333 -352.5 -83 c 0
 -334.166666667 -65.6666666667 -312.666666667 -57 -288 -57 c 256
 -263.333333333 -57 -241.833333333 -65.6666666667 -223.5 -83 c 0
 -205.166666667 -100.333333333 -196 -121 -196 -145 c 0
EndSplineSet
Validated: 1
EndChar

StartChar: u09be
Encoding: 2494 2494 148
Width: 475
GlyphClass: 2
Flags: W
HStem: 1208 170<-12 186 346 487>
VStem: 186 160<99.2432 1208>
LayerCount: 2
Fore
SplineSet
487 1208 m 1
 346 1208 l 1
 346 137 l 2
 346 109.666666667 318 96 262 96 c 0
 211.333333333 96 186 111 186 141 c 2
 186 1208 l 1
 -12 1208 l 1
 -12 1378 l 1
 487 1378 l 1
 487 1208 l 1
EndSplineSet
Validated: 1
EndChar

StartChar: u09bf
Encoding: 2495 2495 149
Width: 475
GlyphClass: 2
Flags: W
HStem: 1208 170<-12 143 367 518> 1499 21G<1219.33 1255> 1794 160<415.793 871.147>
VStem: 88 176<1414.14 1671.05> 199 168<102.759 1208>
LayerCount: 2
Fore
SplineSet
1307 1604 m 1xf0
 1309.66666667 1592.66666667 1311 1582.33333333 1311 1573 c 0
 1311 1523.66666667 1283 1499 1227 1499 c 0
 1211.66666667 1499 1198.66666667 1501 1188 1505 c 1
 1024 1697.66666667 845.666666667 1794 653 1794 c 0
 595.666666667 1794 533 1786.66666667 465 1772 c 1
 331 1720 264 1646.66666667 264 1552 c 0xf0
 264 1494.66666667 287.333333333 1436.66666667 334 1378 c 1
 518 1378 l 1
 518 1208 l 1
 367 1208 l 1
 367 150 l 2
 367 115.333333333 336.666666667 98 276 98 c 0
 224.666666667 98 199 116 199 152 c 2
 199 1208 l 1xe8
 -12 1208 l 1
 -12 1378 l 1
 143 1378 l 1
 106.333333333 1428.66666667 88 1485.33333333 88 1548 c 0
 88 1675.33333333 148.666666667 1779.33333333 270 1860 c 1
 390.666666667 1922.66666667 516.333333333 1954 647 1954 c 0
 910.333333333 1954 1130.33333333 1837.33333333 1307 1604 c 1xf0
EndSplineSet
Validated: 1
EndChar

StartChar: u09c0
Encoding: 2496 2496 150
Width: 475
GlyphClass: 2
Flags: W
HStem: 1208 170<-44 124 323 472> 1761 152<-650.059 -156.693>
VStem: -203 157<1244.45 1402.14> 124 166<1378 1491.21> 153 170<68.04 1208>
LayerCount: 2
Fore
SplineSet
472 1208 m 1xf0
 323 1208 l 1
 323 150 l 2
 323 90.6666666667 294.333333333 61 237 61 c 0
 181 61 153 90.6666666667 153 150 c 2
 153 1208 l 1xe8
 -44 1208 l 1
 -44 1378 l 1
 124 1378 l 1
 68 1581.33333333 -56 1703.66666667 -248 1745 c 0
 -301.333333333 1755.66666667 -355.333333333 1761 -410 1761 c 0
 -532 1761 -633.666666667 1735 -715 1683 c 1
 -723.666666667 1669.66666667 -728 1658.33333333 -728 1649 c 0
 -728 1619 -668.666666667 1603.33333333 -550 1602 c 0
 -395.333333333 1600 -286 1587 -222 1563 c 0
 -104.666666667 1519 -46 1429.33333333 -46 1294 c 1
 -62 1254.66666667 -92 1235 -136 1235 c 0
 -164.666666667 1235 -187 1249.33333333 -203 1278 c 1
 -211.666666667 1343.33333333 -221.333333333 1385 -232 1403 c 0
 -248.666666667 1431.66666667 -284.333333333 1450.66666667 -339 1460 c 1
 -460.333333333 1470 -581 1479.66666667 -701 1489 c 1
 -828.333333333 1509.66666667 -886.333333333 1574.33333333 -875 1683 c 0
 -867 1762.33333333 -811.666666667 1822 -709 1862 c 0
 -623 1896 -518.666666667 1913 -396 1913 c 0
 -326 1913 -264.666666667 1907.33333333 -212 1896 c 0
 82 1834.66666667 249.333333333 1662 290 1378 c 1
 472 1378 l 1
 472 1208 l 1xf0
EndSplineSet
Validated: 33
EndChar

StartChar: u09c1
Encoding: 2497 2497 151
Width: 12
GlyphClass: 4
Flags: W
HStem: -254 92<-446.653 -287>
VStem: -573 124<-157.151 -47.7539>
AnchorPoint: "Anchor-1" -180 105 mark 0
LayerCount: 2
Fore
SplineSet
131 -125 m 2
 141.666666667 -130.333333333 147 -140 147 -154 c 0
 147 -171.333333333 140.666666667 -188.833333333 128 -206.5 c 0
 115.333333333 -224.166666667 102 -233 88 -233 c 0
 84 -233 80 -232.333333333 76 -231 c 2
 -135 -133 l 1
 -185.666666667 -213.666666667 -267 -254 -379 -254 c 0
 -449.666666667 -254 -503.666666667 -232.666666667 -541 -190 c 0
 -562.333333333 -164.666666667 -573 -137.666666667 -573 -109 c 0
 -573 -74.3333333333 -558 -40.6666666667 -528 -8 c 0
 -499.333333333 20.6666666667 -466.666666667 40.3333333333 -430 51 c 0
 -405.333333333 57.6666666667 -348.666666667 54.3333333333 -260 41 c 1
 -265.333333333 55.6666666667 -274.333333333 83.6666666667 -287 125 c 1
 -139 125 l 1
 -105 73 -91.3333333333 26 -98 -16 c 1
 131 -125 l 2
-260 -74 m 1
 -299.333333333 -44 -344.333333333 -34.3333333333 -395 -45 c 0
 -431 -51.6666666667 -449 -70.6666666667 -449 -102 c 0
 -449 -142 -421 -162 -365 -162 c 0
 -349.666666667 -162 -331 -153.833333333 -309 -137.5 c 0
 -287 -121.166666667 -270.666666667 -100 -260 -74 c 1
EndSplineSet
Validated: 33
EndChar

StartChar: u09c2
Encoding: 2498 2498 152
Width: 12
GlyphClass: 4
Flags: W
HStem: -258 131<-340.962 -175.182> -43 168<-291 -120.116> -43 127<-335.953 -270>
VStem: -475 663
AnchorPoint: "Anchor-1" -195 120 mark 0
LayerCount: 2
Fore
SplineSet
178 -285 m 1xd0
 184.666666667 -293 188 -303 188 -315 c 0
 188 -335.666666667 180.5 -354.166666667 165.5 -370.5 c 0
 150.5 -386.833333333 131.666666667 -395 109 -395 c 1
 -158 -227 l 1
 -205.333333333 -247.666666667 -251.666666667 -258 -297 -258 c 0
 -385.666666667 -258 -445 -221 -475 -147 c 1
 -479 -129.666666667 -481 -112.666666667 -481 -96 c 0
 -481 -45.3333333333 -458.666666667 -1.66666666667 -414 35 c 1
 -370 67.6666666667 -322 84 -270 84 c 1xb0
 -274 92 -281 105.666666667 -291 125 c 1
 -139 125 -139 125 -139 125 c 1
 -114.333333333 92.3333333333 -101.333333333 68.3333333333 -100 53 c 0
 -98.6666666667 25.6666666667 -114.166666667 0.833333333333 -146.5 -21.5 c 0
 -178.833333333 -43.8333333333 -203.666666667 -52.3333333333 -221 -47 c 0
 -231 -44.3333333333 -241.333333333 -43 -252 -43 c 0
 -295.333333333 -43 -325.333333333 -61.3333333333 -342 -98 c 1
 -338 -117.333333333 -324.333333333 -127 -301 -127 c 0
 -273.666666667 -127 -239 -115.333333333 -197 -92 c 0
 -180.333333333 -82.6666666667 -165.333333333 -78 -152 -78 c 0
 -135.333333333 -78 -121.666666667 -84 -111 -96 c 1
 178 -285 l 1xd0
EndSplineSet
Validated: 33
EndChar

StartChar: u09c3
Encoding: 2499 2499 153
Width: 12
GlyphClass: 4
Flags: W
HStem: -397 522
VStem: -477 452
AnchorPoint: "Anchor-1" -150 120 mark 0
LayerCount: 2
Fore
SplineSet
-39 -293 m 2
 -29.6666666667 -303.666666667 -25 -316 -25 -330 c 0
 -25 -347.333333333 -31.8333333333 -362.833333333 -45.5 -376.5 c 0
 -59.1666666667 -390.166666667 -75.3333333333 -397 -94 -397 c 0
 -102 -397 -109.666666667 -395.666666667 -117 -393 c 2
 -455 -123 l 2
 -469.666666667 -110.333333333 -477 -94 -477 -74 c 0
 -477 -49.3333333333 -468.333333333 -29.3333333333 -451 -14 c 1
 -209 125 l 1
 -185.666666667 130.333333333 -166.5 125.5 -151.5 110.5 c 0
 -136.5 95.5 -129 77 -129 55 c 0
 -129 39 -134.333333333 25.3333333333 -145 14 c 1
 -303 -78 l 1
 -39 -293 l 2
EndSplineSet
Validated: 1
EndChar

StartChar: u09c4
Encoding: 2500 2500 154
Width: 0
GlyphClass: 2
Flags: W
LayerCount: 2
Fore
SplineSet
-377 125 m 1
 -635 -23 l 1
 -647 -35 -653 -49.3333333333 -653 -66 c 0
 -653 -80.6666666667 -647.666666667 -92.6666666667 -637 -102 c 2
 -272 -393 l 2
 -266.666666667 -394.333333333 -261.333333333 -395 -256 -395 c 0
 -222 -395 -205 -380 -205 -350 c 0
 -205 -340.666666667 -208.333333333 -332 -215 -324 c 2
 -528 -68 l 1
 -330 47 l 2
 -321.333333333 55 -317 64.6666666667 -317 76 c 0
 -317 90.6666666667 -322.5 103.5 -333.5 114.5 c 0
 -344.5 125.5 -359 129 -377 125 c 1
-557 -5 m 1
 -815 -153 l 1
 -827 -165 -833 -179.333333333 -833 -196 c 0
 -833 -210.666666667 -827.666666667 -222.666666667 -817 -232 c 2
 -452 -523 l 2
 -446.666666667 -524.333333333 -441.333333333 -525 -436 -525 c 0
 -402 -525 -385 -510 -385 -480 c 0
 -385 -470.666666667 -388.333333333 -462 -395 -454 c 2
 -708 -198 l 1
 -510 -83 l 2
 -501.333333333 -75 -497 -65.3333333333 -497 -54 c 0
 -497 -39.3333333333 -502.5 -26.5 -513.5 -15.5 c 0
 -524.5 -4.5 -539 -1 -557 -5 c 1
EndSplineSet
Validated: 5
EndChar

StartChar: u09c7
Encoding: 2503 2503 155
Width: 634
GlyphClass: 2
Flags: W
HStem: 82 170<315.612 604.277> 1208 170<-7 187 447.095 632>
VStem: 19 149<432.586 921.938>
LayerCount: 2
Fore
SplineSet
649 1208 m 1
 578.333333333 1208 510 1205 444 1199 c 1
 392.666666667 1168.33333333 341 1121 289 1057 c 0
 208.333333333 958.333333333 168 828 168 666 c 0
 168 562 188 473.666666667 228 401 c 0
 272.666666667 317.666666667 338 265.333333333 424 244 c 0
 444.666666667 238.666666667 467.333333333 238.666666667 492 244 c 0
 524.666666667 249.333333333 545 252 553 252 c 0
 603.666666667 252 629 227.333333333 629 178 c 0
 629 152 621 131 605 115 c 1
 589.666666667 107.666666667 568 100.333333333 540 93 c 0
 512 85.6666666667 484.333333333 82 457 82 c 0
 333 82 228.666666667 140.666666667 144 258 c 0
 67.3333333333 364.666666667 25.6666666667 490.333333333 19 635 c 0
 11 815 56.6666666667 985.666666667 156 1147 c 1
 187 1203 l 1
 -7 1208 l 1
 -7 1378 l 1
 587 1378 l 2
 421 1378 436 1378 632 1378 c 1
 649 1208 l 1
EndSplineSet
Validated: 33
Substitution2: "'init' Initial Forms in Bengali lookup 0 subtable" ekaar_init
EndChar

StartChar: u09c8
Encoding: 2504 2504 156
Width: 716
GlyphClass: 2
Flags: W
HStem: 55 178<409.75 694.445> 1208 170<89 306 614.531 728> 1475 165<-70.1174 384.969>
VStem: -247 162<1659.62 1892.4> 107 164<416.289 914.656>
LayerCount: 2
Fore
SplineSet
740 1208 m 1
 497.333333333 1208 347.333333333 1080.33333333 290 825 c 0
 277.333333333 770.333333333 271 713.666666667 271 655 c 0
 271 554.333333333 289 467 325 393 c 0
 364.333333333 307 422.333333333 250.333333333 499 223 c 1
 538.333333333 216.333333333 569 217.666666667 591 227 c 0
 605.666666667 231 620 233 634 233 c 0
 686 233 712 208 712 158 c 0
 712 138.666666667 707 119.333333333 697 100 c 1
 642.333333333 63.3333333333 597.333333333 48.3333333333 562 55 c 1
 414.666666667 51 299.333333333 116.666666667 216 252 c 0
 143.333333333 368 107 508.666666667 107 674 c 0
 107 730 112 782.333333333 122 831 c 0
 168 1067.66666667 229.333333333 1193.33333333 306 1208 c 1
 290 1208 l 1
 89 1208 l 1
 89 1378 l 1
 420 1378 l 1
 414 1418 376.666666667 1446 308 1462 c 0
 278 1470.66666667 209.666666667 1475 103 1475 c 0
 9 1476.33333333 -64 1487.66666667 -116 1509 c 0
 -203.333333333 1546.33333333 -247 1616.66666667 -247 1720 c 0
 -247 1742 -240 1805 -226 1909 c 1
 -201.333333333 1923.66666667 -177 1931 -153 1931 c 0
 -115.666666667 1931 -84 1915.33333333 -58 1884 c 1
 -76 1812 -85 1763 -85 1737 c 0
 -85 1677 -46 1644.66666667 32 1640 c 0
 220 1630.66666667 341.333333333 1617 396 1599 c 0
 506.666666667 1565 586 1491.33333333 634 1378 c 1
 728 1378 l 1
 740 1208 l 1
EndSplineSet
Validated: 33
Substitution2: "'init' Initial Forms in Bengali lookup 0 subtable" aikaar_init
EndChar

StartChar: u09cd
Encoding: 2509 2509 159
Width: 12
GlyphClass: 4
Flags: W
AnchorPoint: "Anchor-1" -255 105 mark 0
LayerCount: 2
Fore
SplineSet
-145 20 m 1
 -217 -57 l 1
 127 -315 l 1
 193 -227 l 1
 -145 20 l 1
EndSplineSet
Validated: 9
EndChar

StartChar: u09d7
Encoding: 2519 2519 160
Width: 475
GlyphClass: 4
Flags: W
HStem: 1208 170<-39 156 338 487>
VStem: -649 155<1684.16 1868.54> 170 168<112.239 1208>
LayerCount: 2
Fore
SplineSet
487 1208 m 1
 338 1208 l 1
 338 178 l 2
 338 118 310.666666667 88 256 88 c 0
 232.666666667 88 212.5 95.8333333333 195.5 111.5 c 0
 178.5 127.166666667 170 148.666666667 170 176 c 2
 170 1208 l 1
 -39 1208 l 1
 -39 1378 l 1
 156 1378 l 1
 136.666666667 1436.66666667 56 1475 -86 1493 c 0
 -310 1520.33333333 -433.666666667 1537.33333333 -457 1544 c 0
 -585 1582.66666667 -649 1658.66666667 -649 1772 c 0
 -649 1792 -647 1813.66666667 -643 1837 c 1
 -622.333333333 1863 -598.333333333 1876 -571 1876 c 0
 -534.333333333 1876 -506.333333333 1857 -487 1819 c 1
 -491.666666667 1802.33333333 -494 1787.33333333 -494 1774 c 0
 -494 1694.66666667 -428.333333333 1646.66666667 -297 1630 c 1
 -171.666666667 1619.33333333 -46 1607.66666667 80 1595 c 1
 220.666666667 1565 300.333333333 1492.66666667 319 1378 c 1
 487 1378 l 1
 487 1208 l 1
EndSplineSet
Validated: 1
EndChar

StartChar: u09df
Encoding: 2527 2527 163
Width: 1003
GlyphClass: 2
Flags: W
HStem: 92 225<151.488 309.844> 1208 170<-12 51 260 700 866 1016>
VStem: 117 215<127.066 283.481> 700 166<293 1208>
AnchorPoint: "Anchor-2" 870 60 basechar 0
AnchorPoint: "Anchor-1" 795 60 basechar 0
AnchorPoint: "Anchor-0" 675 1365 basechar 0
LayerCount: 2
Fore
SplineSet
1016 1208 m 1
 866 1208 l 1
 866 141 l 2
 866 93.6666666667 834.666666667 70 772 70 c 0
 746 70 725 76 709 88 c 2
 70 555 l 2
 49.3333333333 570.333333333 39 589.333333333 39 612 c 0
 39 632.666666667 45.6666666667 653.333333333 59 674 c 1
 311 897 l 1
 51 1208 l 1
 -12 1208 l 1
 -12 1378 l 1
 1016 1378 l 1
 1016 1208 l 1
332 207 m 0
 332 175.666666667 321.666666667 148.666666667 301 126 c 0
 280.333333333 103.333333333 255.666666667 92 227 92 c 0
 195.666666667 92 169.166666667 103.333333333 147.5 126 c 0
 125.833333333 148.666666667 115.666666667 175.666666667 117 207 c 0
 118.333333333 237 129.5 262.833333333 150.5 284.5 c 0
 171.5 306.166666667 197.666666667 317 229 317 c 0
 257.666666667 317 282 305.833333333 302 283.5 c 0
 322 261.166666667 332 235.666666667 332 207 c 0
700 293 m 1
 700 1208 l 1
 260 1208 l 1
 483 930 l 1
 490.333333333 914.666666667 494 898.333333333 494 881 c 0
 494 855 486.333333333 835 471 821 c 2
 238 623 l 1
 700 293 l 1
EndSplineSet
Validated: 33
Ligature2: "'nukt' Nukta Forms in Bengali lookup 1 subtable" u09af u09bc
EndChar

StartChar: u09e3
Encoding: 2531 2531 167
Width: 9
GlyphClass: 2
Flags: W
HStem: -9 47<-697.488 -589.532> 231 47<-387.488 -279.532>
VStem: -792 47<259.723 315.914> -769 47<-165.796 -29.8794> -566 47<-155.032 -32.625> -482 47<499.723 555.914> -459 47<130.42 210.121> -403 48<-93.0454 61.5808> -256 47<84.9675 207.375> -93 48<146.955 295.604>
LayerCount: 2
Fore
SplineSet
-745 296 m 0xe9c0
 -746.333333333 309.333333333 -755 316 -771 316 c 0
 -784.333333333 316 -791.333333333 308.666666667 -792 294 c 0xe9c0
 -794 262.666666667 -776.666666667 236.666666667 -740 216 c 0
 -725.333333333 208 -685.333333333 192.666666667 -620 170 c 0
 -559.333333333 148.666666667 -516.333333333 130.666666667 -491 116 c 0
 -445 87.3333333333 -417 51.6666666667 -407 9 c 0
 -404.333333333 -1.66666666667 -403 -12.3333333333 -403 -23 c 0
 -403 -56.3333333333 -415.666666667 -85.3333333333 -441 -110 c 0
 -463 -131.333333333 -492.333333333 -146.666666667 -529 -156 c 1
 -522.333333333 -135.333333333 -519 -116.333333333 -519 -99 c 0
 -519 -78.3333333333 -523.5 -56.8333333333 -532.5 -34.5 c 0
 -541.5 -12.1666666667 -556.5 5.5 -577.5 18.5 c 0
 -598.5 31.5 -621 38 -645 38 c 0
 -687.666666667 38 -721.333333333 21.3333333333 -746 -12 c 0
 -761.333333333 -33.3333333333 -769 -59 -769 -89 c 0
 -769 -115 -763 -140.666666667 -751 -166 c 0
 -748.333333333 -171.333333333 -742.333333333 -174 -733 -174 c 0
 -725 -174 -718.333333333 -171.666666667 -713 -167 c 0
 -707.666666667 -162.333333333 -706 -156 -708 -148 c 0
 -717.333333333 -127.333333333 -722 -107.666666667 -722 -89 c 0xd9c0
 -722 -63 -713 -42 -695 -26 c 0
 -680.333333333 -14.6666666667 -664.333333333 -9 -647 -9 c 0
 -614.333333333 -9 -590.666666667 -23 -576 -51 c 0
 -569.333333333 -67.6666666667 -566 -83.3333333333 -566 -98 c 0
 -566 -109.333333333 -568.666666667 -121.833333333 -574 -135.5 c 0
 -579.333333333 -149.166666667 -584.333333333 -163.333333333 -589 -178 c 0
 -593.666666667 -184.666666667 -596 -189.666666667 -596 -193 c 0
 -596 -201.666666667 -586.333333333 -207.666666667 -567 -211 c 1
 -523 -207.666666667 -482.333333333 -194.333333333 -445 -171 c 0
 -405 -146.333333333 -377.666666667 -114.333333333 -363 -75 c 0
 -357.666666667 -55.6666666667 -355 -37 -355 -19 c 0
 -355 39.6666666667 -382.333333333 89.6666666667 -437 131 c 0
 -475 159.666666667 -530.333333333 186.333333333 -603 211 c 0
 -660.333333333 231 -694.333333333 243.666666667 -705 249 c 0
 -733 263 -746.333333333 278.666666667 -745 296 c 0xe9c0
-435 536 m 0xcdc0
 -436.333333333 549.333333333 -445 556 -461 556 c 0
 -474.333333333 556 -481.333333333 548.666666667 -482 534 c 0xcdc0
 -484 502.666666667 -466.666666667 476.666666667 -430 456 c 0
 -415.333333333 448 -375.333333333 432.666666667 -310 410 c 0
 -249.333333333 388.666666667 -206.333333333 370.666666667 -181 356 c 0
 -135 327.333333333 -107 291.666666667 -97 249 c 0
 -94.3333333333 238.333333333 -93 227.666666667 -93 217 c 0
 -93 183.666666667 -105.666666667 154.666666667 -131 130 c 0
 -153 108.666666667 -182.333333333 93.3333333333 -219 84 c 1
 -212.333333333 104.666666667 -209 123.666666667 -209 141 c 0
 -209 161.666666667 -213.5 183.166666667 -222.5 205.5 c 0
 -231.5 227.833333333 -246.5 245.5 -267.5 258.5 c 0
 -288.5 271.5 -311 278 -335 278 c 0
 -377.666666667 278 -411.333333333 261.333333333 -436 228 c 0
 -451.333333333 206.666666667 -459 181 -459 151 c 0
 -459 125 -453 99.3333333333 -441 74 c 0
 -438.333333333 68.6666666667 -432.333333333 66 -423 66 c 0
 -415 66 -408.333333333 68.3333333333 -403 73 c 0
 -397.666666667 77.6666666667 -396 84 -398 92 c 0
 -407.333333333 112.666666667 -412 132.333333333 -412 151 c 0xcbc0
 -412 177 -403 198 -385 214 c 0
 -370.333333333 225.333333333 -354.333333333 231 -337 231 c 0
 -304.333333333 231 -280.666666667 217 -266 189 c 0
 -259.333333333 172.333333333 -256 156.666666667 -256 142 c 0
 -256 130.666666667 -258.666666667 118.166666667 -264 104.5 c 0
 -269.333333333 90.8333333333 -274.333333333 76.6666666667 -279 62 c 0
 -283.666666667 55.3333333333 -286 50.3333333333 -286 47 c 0
 -286 38.3333333333 -276.333333333 32.3333333333 -257 29 c 1
 -213 32.3333333333 -172.333333333 45.6666666667 -135 69 c 0
 -95 93.6666666667 -67.6666666667 125.666666667 -53 165 c 0
 -47.6666666667 184.333333333 -45 203 -45 221 c 0
 -45 279.666666667 -72.3333333333 329.666666667 -127 371 c 0
 -165 399.666666667 -220.333333333 426.333333333 -293 451 c 0
 -350.333333333 471 -384.333333333 483.666666667 -395 489 c 0
 -423 503 -436.333333333 518.666666667 -435 536 c 0xcdc0
EndSplineSet
Validated: 37
EndChar

StartChar: u09e6
Encoding: 2534 2534 168
Width: 1181
GlyphClass: 2
Flags: W
HStem: 240 168<369.251 672.49> 1051 161<450.867 778.322>
VStem: 100 160<518.924 839.521> 879 168<620.573 949.925>
LayerCount: 2
Fore
SplineSet
1038 729 m 0
 984.666666667 463 841.333333333 304 608 252 c 0
 572.666666667 244 538 240 504 240 c 0
 385.333333333 240 287.666666667 283.666666667 211 371 c 0
 137 454.333333333 100 556 100 676 c 0
 100 763.333333333 122.666666667 848.333333333 168 931 c 0
 213.333333333 1013.66666667 275.166666667 1080.16666667 353.5 1130.5 c 0
 431.833333333 1180.83333333 514 1208 600 1212 c 0
 725.333333333 1218 831.166666667 1181.33333333 917.5 1102 c 0
 1003.83333333 1022.66666667 1047 925 1047 809 c 0
 1047 783 1044 756.333333333 1038 729 c 0
834 618 m 0
 864 674 879 732.333333333 879 793 c 0
 879 866.333333333 857.666666667 927 815 975 c 0
 767 1027 702.333333333 1052.33333333 621 1051 c 0
 469 1049.66666667 358.333333333 969 289 809 c 0
 269.666666667 765 260 720 260 674 c 0
 260 616.666666667 275 564.833333333 305 518.5 c 0
 335 472.166666667 376.666666667 440 430 422 c 0
 457.333333333 412.666666667 486 408 516 408 c 0
 580 408 642 429 702 471 c 0
 756.666666667 509 800.666666667 558 834 618 c 0
EndSplineSet
Validated: 33
EndChar

StartChar: u09e7
Encoding: 2535 2535 169
Width: 985
GlyphClass: 2
Flags: W
HStem: 100 146<319.115 598.694>
VStem: 687 152<351.864 732.886>
LayerCount: 2
Fore
SplineSet
837 510 m 0
 817.666666667 336.666666667 767.666666667 221.333333333 687 164 c 0
 642.333333333 132.666666667 590.666666667 112.666666667 532 104 c 0
 508.666666667 101.333333333 452 100 362 100 c 0
 324.666666667 100 261.666666667 136.333333333 173 209 c 1
 167.666666667 227 165 242.666666667 165 256 c 0
 165 312 202 337.333333333 276 332 c 1
 320.666666667 274.666666667 386.666666667 246 474 246 c 0
 518 246 551 253.333333333 573 268 c 0
 651.666666667 322.666666667 689.666666667 441.666666667 687 625 c 1
 667 746.333333333 549.666666667 867 335 987 c 1
 241 1057 180.333333333 1109.66666667 153 1145 c 0
 111.666666667 1197 93 1259.66666667 97 1333 c 1
 101.666666667 1364.33333333 125 1380 167 1380 c 0
 215 1380 241 1364.33333333 245 1333 c 1
 242.333333333 1278.33333333 273.333333333 1227.5 338 1180.5 c 0
 402.666666667 1133.5 468.666666667 1087.33333333 536 1042 c 1
 738 893.333333333 839 732.333333333 839 559 c 0
 839 543 838.333333333 526.666666667 837 510 c 0
EndSplineSet
Validated: 33
EndChar

StartChar: u09e8
Encoding: 2536 2536 170
Width: 983
GlyphClass: 2
Flags: W
VStem: 164 151<1252.97 1334.82> 625 155<683.89 888.297>
LayerCount: 2
Fore
SplineSet
991 4 m 2
 1003.66666667 -8 1010 -22.3333333333 1010 -39 c 0
 1010 -57 1002.16666667 -73.1666666667 986.5 -87.5 c 0
 970.833333333 -101.833333333 951.333333333 -109 928 -109 c 0
 906 -109 884 -102.666666667 862 -90 c 1
 117 518 l 1
 96.3333333333 540 86 562.666666667 86 586 c 0
 86 632 112.666666667 655 166 655 c 0
 176.666666667 655 188.333333333 653 201 649 c 1
 243 624.333333333 296 612 360 612 c 0
 430 612 490.333333333 626.333333333 541 655 c 0
 597 686.333333333 625 728 625 780 c 0
 625 804.666666667 618 830.666666667 604 858 c 1
 548 942.666666667 479.666666667 1010.33333333 399 1061 c 1
 343 1091 287 1120.33333333 231 1149 c 1
 186.333333333 1179 164 1220.66666667 164 1274 c 0
 164 1291.33333333 166 1311.66666667 170 1335 c 1
 188 1372.33333333 218 1391 260 1391 c 0
 296.666666667 1391 320.666666667 1373 332 1337 c 1
 320.666666667 1309.66666667 315 1292.66666667 315 1286 c 0
 315 1278 319.333333333 1272 328 1268 c 0
 446.666666667 1206.66666667 535.333333333 1152 594 1104 c 0
 714 1004 776 897.333333333 780 784 c 0
 782.666666667 695.333333333 748.666666667 621.666666667 678 563 c 0
 618 512.333333333 539.333333333 478.333333333 442 461 c 1
 991 4 l 2
EndSplineSet
Validated: 33
EndChar

StartChar: u09e9
Encoding: 2537 2537 171
Width: 1396
GlyphClass: 2
Flags: W
HStem: 152 159<621.289 900.92> 1165 154<685.363 942.416>
VStem: 81 154<852.938 1139.91> 488 158<833.413 1123.85> 1099 153<533.534 976.287>
LayerCount: 2
Fore
SplineSet
1252 758 m 0
 1258 628 1219.33333333 499 1136 371 c 0
 1040 225 920.333333333 152 777 152 c 0
 661 152 542 207.166666667 420 317.5 c 0
 298 427.833333333 211.666666667 559 161 711 c 0
 118.333333333 837.666666667 91.6666666667 963 81 1087 c 1
 95.6666666667 1127 121 1147 157 1147 c 0
 188.333333333 1147 214.333333333 1131.33333333 235 1100 c 1
 249.666666667 989.333333333 264.666666667 906.666666667 280 852 c 0
 301.333333333 774 335 695.5 381 616.5 c 0
 427 537.5 479.333333333 471.333333333 538 418 c 0
 614 346.666666667 689 311 763 311 c 0
 802.333333333 311 841.333333333 321.333333333 880 342 c 0
 953.333333333 381.333333333 1009.33333333 440.666666667 1048 520 c 0
 1084.66666667 591.333333333 1101.66666667 666.333333333 1099 745 c 0
 1089 1026.33333333 979 1166.33333333 769 1165 c 1
 687 1149 646 1093 646 997 c 0
 646 969.666666667 649.333333333 935.666666667 656 895 c 1
 656 875.666666667 647.166666667 859.166666667 629.5 845.5 c 0
 611.833333333 831.833333333 592 825 570 825 c 0
 536 825 515 839.333333333 507 868 c 0
 494.333333333 908 488 948.333333333 488 989 c 0
 488 1077.66666667 512.666666667 1154.5 562 1219.5 c 0
 611.333333333 1284.5 678.333333333 1317.66666667 763 1319 c 0
 919.666666667 1320.33333333 1041 1266.33333333 1127 1157 c 0
 1203.66666667 1060.33333333 1245.33333333 927.333333333 1252 758 c 0
EndSplineSet
Validated: 33
EndChar

StartChar: u09ea
Encoding: 2538 2538 172
Width: 1046
GlyphClass: 2
Flags: W
HStem: 86 174<322.391 610.034>
VStem: 103 177<880.326 1121.22> 714 188<360.974 612.922 926.687 1175.01>
LayerCount: 2
Fore
SplineSet
749 201 m 0
 654.333333333 124.333333333 558.666666667 86 462 86 c 0
 422 86 381 92 339 104 c 0
 168.333333333 150.666666667 83 251.333333333 83 406 c 0
 83 531.333333333 137.666666667 637.666666667 247 725 c 1
 151 790.333333333 103 876.333333333 103 983 c 0
 103 1085.66666667 145 1179 229 1263 c 0
 313 1347 412.333333333 1389 527 1389 c 0
 645 1389 736.666666667 1358 802 1296 c 0
 860.666666667 1238.66666667 890 1167 890 1081 c 0
 890 959.666666667 838.666666667 856.666666667 736 772 c 1
 846.666666667 708 902 617.333333333 902 500 c 0
 902 384 851 284.333333333 749 201 c 0
693 948 m 0
 711 976.666666667 720 1009.66666667 720 1047 c 0
 720 1097 703.333333333 1140.16666667 670 1176.5 c 0
 636.666666667 1212.83333333 594 1229 542 1225 c 0
 476 1219.66666667 418 1198.33333333 368 1161 c 0
 308 1117.66666667 278.666666667 1064.33333333 280 1001 c 0
 281.333333333 942.333333333 299 898.333333333 333 869 c 0
 367 839.666666667 409.333333333 825 460 825 c 0
 564.666666667 825 642.333333333 866 693 948 c 0
646 334 m 0
 691.333333333 378.666666667 714 432 714 494 c 0
 714 545.333333333 696.833333333 588.166666667 662.5 622.5 c 0
 628.166666667 656.833333333 581 671.333333333 521 666 c 0
 357 652 268.333333333 589.666666667 255 479 c 0
 247 411 264.666666667 356.333333333 308 315 c 0
 348 278.333333333 399.333333333 260 462 260 c 0
 535.333333333 260 596.666666667 284.666666667 646 334 c 0
EndSplineSet
Validated: 33
EndChar

StartChar: u09eb
Encoding: 2539 2539 173
Width: 1175
GlyphClass: 2
Flags: W
HStem: 74 164<477.602 687> 889 147.5<865.152 1028.02>
VStem: 67 159<468.503 829.079> 536 165<414.031 736.373>
LayerCount: 2
Fore
SplineSet
1011 889 m 1
 915 882.333333333 838.333333333 847.333333333 781 784 c 0
 727.666666667 726.666666667 701 658.666666667 701 580 c 0
 701 442 770.666666667 340.666666667 910 276 c 1
 946 254.666666667 964 229 964 199 c 0
 964 173 951.666666667 152.333333333 927 137 c 0
 857 95 778.333333333 74 691 74 c 0
 561.666666667 74 436.5 115.666666667 315.5 199 c 0
 194.5 282.333333333 118.333333333 375.666666667 87 479 c 0
 73.6666666667 523 67 569.333333333 67 618 c 0
 67 794.666666667 139.333333333 967 284 1135 c 0
 423.333333333 1295.66666667 557 1375.33333333 685 1374 c 0
 707 1374 725.5 1366.5 740.5 1351.5 c 0
 755.5 1336.5 763 1318 763 1296 c 0
 763 1288 761.666666667 1279.33333333 759 1270 c 0
 752.333333333 1256 749 1242.33333333 749 1229 c 0
 749 1187.66666667 775.333333333 1146.66666667 828 1106 c 0
 874.666666667 1070.66666667 921.166666667 1047.5 967.5 1036.5 c 0
 1013.83333333 1025.5 1037 996 1037 948 c 0
 1037 924.666666667 1028.33333333 905 1011 889 c 1
759 969 m 1
 711 1008.33333333 676.666666667 1039.66666667 656 1063 c 0
 622 1102.33333333 601.666666667 1144 595 1188 c 1
 511.666666667 1149.33333333 431.666666667 1077.66666667 355 973 c 0
 269 855.666666667 226 743 226 635 c 0
 226 595 232.333333333 558 245 524 c 0
 277.666666667 434 336.333333333 363 421 311 c 0
 499 263.666666667 587.666666667 239.333333333 687 238 c 1
 586.333333333 345.333333333 536 464 536 594 c 0
 536 754 610.333333333 879 759 969 c 1
EndSplineSet
Validated: 33
EndChar

StartChar: u90ec
Encoding: 2540 2540 174
Width: 1306
GlyphClass: 2
Flags: W
HStem: 160 157<542.583 822.235> 684 147<616.349 755.403> 1094 20G<133.667 174.667>
VStem: 83 147<966.469 1109.15> 448 167<831.024 1342.6> 1013 151<547.156 877.847>
LayerCount: 2
Fore
SplineSet
1058 1065 m 1
 1128.66666667 987 1164 886 1164 762 c 0
 1164 613.333333333 1119 477.333333333 1029 354 c 0
 935 226 824.333333333 161.333333333 697 160 c 0
 609.666666667 160 523.666666667 186.166666667 439 238.5 c 0
 354.333333333 290.833333333 285.333333333 359.333333333 232 444 c 0
 130 608 79 781.666666667 79 965 c 0
 79 996.333333333 80.3333333333 1027.66666667 83 1059 c 1
 91 1095.66666667 114.333333333 1114 153 1114 c 0
 196.333333333 1114 222 1093.66666667 230 1053 c 1
 220.666666667 901 245.333333333 759 304 627 c 0
 339.333333333 547.666666667 392 478 462 418 c 0
 540 350.666666667 617.666666667 317 695 317 c 0
 709 317 722.666666667 318.666666667 736 322 c 0
 814 343.333333333 880.333333333 397 935 483 c 0
 987 565 1013 654 1013 750 c 0
 1013 796 1005.33333333 839.666666667 990 881 c 1
 846.666666667 749.666666667 727.333333333 684 632 684 c 0
 551.333333333 684 490 730.333333333 448 823 c 1
 448 1303 l 2
 448 1331.66666667 475.666666667 1346 531 1346 c 0
 587 1346 615 1331.66666667 615 1303 c 2
 615 856 l 1
 627.666666667 839.333333333 643 831 661 831 c 0
 699 831 750.666666667 864 816 930 c 1
 856 974.666666667 896.333333333 1019.66666667 937 1065 c 1
 959 1084.33333333 979.333333333 1094 998 1094 c 0
 1016 1094 1036 1084.33333333 1058 1065 c 1
EndSplineSet
Validated: 33
EndChar

StartChar: u09ed
Encoding: 2541 2541 175
Width: 970
GlyphClass: 2
Flags: W
HStem: 78 147<851.449 943.699> 618 152<272.423 691.637>
VStem: 83 162<802.415 1049.48> 695 135<234.716 632.24> 697 152<790.652 1152.25> 730 240<110.174 222.371>
LayerCount: 2
Fore
SplineSet
906 225 m 0xf0
 948.666666667 227.666666667 970 208.666666667 970 168 c 0
 970 146 961.5 125.5 944.5 106.5 c 0
 927.5 87.5 904.666666667 78 876 78 c 0
 807.333333333 76.6666666667 758.666666667 108 730 172 c 0xe4
 709.333333333 221.333333333 697.666666667 295 695 393 c 0
 695 512 695 512 695 633 c 1xf0
 584.333333333 623 507.333333333 618 464 618 c 0
 238.666666667 618 113.666666667 685.666666667 89 821 c 0
 85 845.666666667 83 871 83 897 c 0
 83 1019.66666667 130.166666667 1127.5 224.5 1220.5 c 0
 318.833333333 1313.5 427.333333333 1364.66666667 550 1374 c 0
 648 1380.66666667 720.333333333 1343.33333333 767 1262 c 0
 798.333333333 1207.33333333 823 1115.66666667 841 987 c 0
 846.333333333 953 849 910.666666667 849 860 c 0xe8
 849 814 845.833333333 741.166666667 839.5 641.5 c 0
 833.166666667 541.833333333 830 470.666666667 830 428 c 0
 830 290 855.333333333 222.333333333 906 225 c 0xf0
697 797 m 1xe8
 693 927.666666667 687 1017 679 1065 c 0
 658.333333333 1174.33333333 620 1224 564 1214 c 1
 474 1208.66666667 399.666666667 1177.33333333 341 1120 c 0
 275.666666667 1054.66666667 243.666666667 965.333333333 245 852 c 1
 265 797.333333333 329 770 437 770 c 0
 475.666666667 770 524.333333333 773.333333333 583 780 c 0
 621 785.333333333 659 791 697 797 c 1xe8
EndSplineSet
Validated: 33
EndChar

StartChar: u09ee
Encoding: 2542 2542 176
Width: 1335
GlyphClass: 2
Flags: W
HStem: 78 153<350.658 515.491> 795 155<356.206 688.515> 1225 153<26.854 133.802>
VStem: 133 150<285.277 739.475 899 1046.69> 154 143<566.953 1215.32> 733 158<473.139 745.543>
LayerCount: 2
Fore
SplineSet
1264 901 m 1xec
 881 741 l 1
 887.666666667 712.333333333 891 683 891 653 c 0
 891 513.666666667 837 382.666666667 729 260 c 0
 615.666666667 133.333333333 491.333333333 72.6666666667 356 78 c 1
 293.333333333 92.6666666667 247.666666667 116.5 219 149.5 c 0
 190.333333333 182.5 168.666666667 231.666666667 154 297 c 1xec
 130.666666667 367.666666667 123.666666667 487.666666667 133 657 c 0xf4
 147 912.333333333 154 1042.33333333 154 1047 c 0
 152.666666667 1168.33333333 128 1227.66666667 80 1225 c 1
 36 1230.33333333 14 1252 14 1290 c 0
 14 1312 22.6666666667 1332.16666667 40 1350.5 c 0
 57.3333333333 1368.83333333 79.3333333333 1378 106 1378 c 0
 174.666666667 1378 223.666666667 1353.16666667 253 1303.5 c 0
 282.333333333 1253.83333333 297 1174.33333333 297 1065 c 0
 297 1017 294.333333333 961.666666667 289 899 c 1
 405 933 499 950 571 950 c 0
 661.666666667 950 735.666666667 926.333333333 793 879 c 1
 1206 1049 l 1
 1230.66666667 1053 1251.16666667 1046.5 1267.5 1029.5 c 0
 1283.83333333 1012.5 1292 991.666666667 1292 967 c 0
 1292 941 1282.66666667 919 1264 901 c 1xec
707 729 m 0
 679.666666667 773 632.333333333 795 565 795 c 0
 497 795 404.333333333 771.666666667 287 725 c 1
 287 715.666666667 286.333333333 689.666666667 285 647 c 0
 283.666666667 613 283 585 283 563 c 0xf4
 283 410.333333333 305.333333333 305.333333333 350 248 c 1
 364 236.666666667 380.333333333 231 399 231 c 0
 465 231 537.166666667 276.166666667 615.5 366.5 c 0
 693.833333333 456.833333333 733 545 733 631 c 0
 733 667.666666667 724.333333333 700.333333333 707 729 c 0
EndSplineSet
Validated: 33
EndChar

StartChar: u09ef
Encoding: 2543 2543 177
Width: 1314
GlyphClass: 2
Flags: W
HStem: 563 156<343.248 561.917>
VStem: 76 158<1248.59 1381.89> 129 160<217.112 512.93> 619 157<261.013 505.753> 1008 162<397.151 712.928>
LayerCount: 2
Fore
SplineSet
1149 416 m 1xd8
 1112.33333333 317.333333333 1043.33333333 236.666666667 942 174 c 1
 848 112.666666667 746.333333333 78.6666666667 637 72 c 1
 575.666666667 82.6666666667 545 102.333333333 545 131 c 0
 545 145 551 162.666666667 563 184 c 1
 575.666666667 215.333333333 588.166666667 247.5 600.5 280.5 c 0
 612.833333333 313.5 619 343 619 369 c 0
 619 400.333333333 611.333333333 435 596 473 c 1
 563.333333333 533 513.666666667 563 447 563 c 0
 408.333333333 563 374 550 344 524 c 0
 307.333333333 492.666666667 289 449 289 393 c 0
 289 348.333333333 300 302 322 254 c 0
 323.333333333 247.333333333 324 240.333333333 324 233 c 0
 324 188.333333333 295.333333333 166 238 166 c 0
 206.666666667 166 186 175.666666667 176 195 c 0
 144.666666667 257.666666667 129 322.333333333 129 389 c 0xb8
 129 467 149.666666667 533.333333333 191 588 c 0
 255 675.333333333 341 719 449 719 c 0
 511.666666667 719 570 702.166666667 624 668.5 c 0
 678 634.833333333 718.666666667 588 746 528 c 1
 766 468 776 411.333333333 776 358 c 0
 776 325.333333333 772 292.666666667 764 260 c 1
 926.666666667 314.666666667 1008 411 1008 549 c 0
 1008 572.333333333 1005.33333333 596.333333333 1000 621 c 0
 976.666666667 720.333333333 911 802 803 866 c 0
 747 900.666666667 646.666666667 943 502 993 c 0
 349.333333333 1046.33333333 250.333333333 1086.66666667 205 1114 c 0
 115 1168.66666667 72 1236.33333333 76 1317 c 0
 78.6666666667 1365 102 1389 146 1389 c 0
 198.666666667 1389 228 1367 234 1323 c 1
 231.333333333 1283.66666667 262.666666667 1249 328 1219 c 0
 340 1211.66666667 416.333333333 1184.33333333 557 1137 c 0
 965.666666667 997.666666667 1170 805 1170 559 c 0
 1170 514.333333333 1163 466.666666667 1149 416 c 1xd8
EndSplineSet
Validated: 33
EndChar

StartChar: u09f0
Encoding: 2544 2544 178
Width: 985
GlyphClass: 2
Flags: W
HStem: 1208 170<-12 682 848 997>
VStem: 682 164<330 473 645 973 1155 1208>
LayerCount: 2
Fore
SplineSet
997 1208 m 1
 848 1208 l 1
 846 145 l 1
 842 127.666666667 830.666666667 112.5 812 99.5 c 0
 793.333333333 86.5 773.333333333 80 752 80 c 0
 727.333333333 80 706 88 688 104 c 2
 80 664 l 2
 66 676 59 694.333333333 59 719 c 0
 59 751.666666667 68.6666666667 774 88 786 c 2
 682 1155 l 1
 682 1208 l 1
 -12 1208 l 1
 -12 1378 l 1
 997 1378 l 1
 997 1208 l 1
682 645 m 1
 682 973 l 1
 479 844 l 1
 682 645 l 1
682 330 m 1
 682 473 l 1
 371 776 l 1
 264 709 l 1
 682 330 l 1
EndSplineSet
Validated: 1
EndChar

StartChar: u09f1
Encoding: 2545 2545 179
Width: 985
GlyphClass: 2
Flags: W
HStem: 1208 170<-12 682 848 997>
VStem: 682 164<330 973 1155 1208>
LayerCount: 2
Fore
SplineSet
997 1208 m 1
 848 1208 l 1
 846 145 l 1
 842 127.666666667 830.666666667 112.5 812 99.5 c 0
 793.333333333 86.5 773.333333333 80 752 80 c 0
 727.333333333 80 706 88 688 104 c 2
 80 664 l 2
 66 676 59 694.333333333 59 719 c 0
 59 751.666666667 68.6666666667 774 88 786 c 2
 682 1155 l 1
 682 1208 l 1
 -12 1208 l 1
 -12 1378 l 1
 997 1378 l 1
 997 1208 l 1
446 162 m 1
 375 88 l 1
 63 385 l 1
 150 444 l 1
 446 162 l 1
682 330 m 1
 682 973 l 1
 264 709 l 1
 682 330 l 1
EndSplineSet
Validated: 1
EndChar

StartChar: janya
Encoding: 65540 -1 181
Width: 1810
GlyphClass: 2
Flags: W
HStem: 57 146<625.335 911.064> 451 155<1336.11 1475.6> 1208 170<-12 559 852 1823>
VStem: 59 162<846.414 1081.56> 418 164<728.792 1024.55> 1059 174<397.25 601.377> 1505 164<300.319 428.507 634.402 763.963>
AnchorPoint: "Anchor-2" 735 150 basechar 0
AnchorPoint: "Anchor-1" 795 60 basechar 0
AnchorPoint: "Anchor-0" 705 1350 basechar 0
LayerCount: 2
Fore
SplineSet
1823 1208 m 1
 852 1208 l 1
 1018 842 l 1
 1057.33333333 822.666666667 1092.66666667 796.666666667 1124 764 c 1
 1212.66666667 881.333333333 1312.33333333 940 1423 940 c 0
 1481.66666667 940 1535.66666667 919.666666667 1585 879 c 0
 1642.33333333 831 1671 773.666666667 1671 707 c 0
 1671 642.333333333 1645 585.666666667 1593 537 c 1
 1643.66666667 489 1669 430.666666667 1669 362 c 0
 1669 269.333333333 1628 200 1546 154 c 1
 1520 144 1492.66666667 139 1464 139 c 0
 1354.66666667 139 1254.33333333 187 1163 283 c 1
 1117 214.333333333 1072.66666667 164.333333333 1030 133 c 0
 976.666666667 92.3333333333 912.666666667 67.6666666667 838 59 c 0
 820 57.6666666667 802 57 784 57 c 0
 589.333333333 57 418.666666667 173.333333333 272 406 c 0
 150.666666667 600.666666667 79.6666666667 808.666666667 59 1030 c 1
 77 1070 102.333333333 1090 135 1090 c 0
 161 1090 189.666666667 1079 221 1057 c 1
 251 845 315.333333333 653.666666667 414 483 c 0
 524.666666667 296.333333333 643.333333333 203 770 203 c 0
 842.666666667 203 913.666666667 236.333333333 983 303 c 1
 1033.66666667 363 1059 428.666666667 1059 500 c 0
 1059 577.333333333 1028.33333333 640 967 688 c 1
 945 681.333333333 891 654 805 606 c 0
 738.333333333 569.333333333 683 551 639 551 c 0
 613 551 588.333333333 556.333333333 565 567 c 1
 467 650.333333333 418 752 418 872 c 0
 418 998 465 1110 559 1208 c 1
 -12 1208 l 1
 -12 1378 l 1
 1823 1378 l 1
 1823 1208 l 1
1452 299 m 1
 1487.33333333 301.666666667 1505 322 1505 360 c 0
 1505 383.333333333 1495.5 404.333333333 1476.5 423 c 0
 1457.5 441.666666667 1430.33333333 451 1395 451 c 1
 1351 465.666666667 1329 491.333333333 1329 528 c 0
 1329 566.666666667 1350.33333333 592.666666667 1393 606 c 1
 1424.33333333 610 1450.16666667 622.333333333 1470.5 643 c 0
 1490.83333333 663.666666667 1501 685 1501 707 c 0
 1501 746.333333333 1472.33333333 768.666666667 1415 774 c 1
 1361.66666667 762 1320.66666667 743.666666667 1292 719 c 0
 1268.66666667 697 1242 658.666666667 1212 604 c 1
 1234 548 1241 495.333333333 1233 446 c 1
 1272.33333333 398.666666667 1304.33333333 366 1329 348 c 0
 1364.33333333 320.666666667 1405.33333333 304.333333333 1452 299 c 1
860 809 m 1
 832.666666667 875.666666667 784.333333333 983.666666667 715 1133 c 1
 677.666666667 1105.66666667 646.166666667 1065.66666667 620.5 1013 c 0
 594.833333333 960.333333333 582 908 582 856 c 0
 582 793.333333333 602.333333333 745.666666667 643 713 c 1
 860 809 l 1
EndSplineSet
Validated: 33
Ligature2: "'akhn' Akhand in Bengali lookup 2 subtable" u099c u09cd u099e
EndChar

StartChar: kassa
Encoding: 65541 -1 182
Width: 1709
GlyphClass: 2
Flags: W
HStem: 1208 170<-12 245.148 399 666 823.005 975 1145 1714>
VStem: 268 146<1050.81 1182.35> 584 166<587.902 823.513> 662 161<1099.56 1207.41> 975 170<338 797 1036 1208> 1374 182<549.109 697.382>
AnchorPoint: "Anchor-2" 1065 90 basechar 0
AnchorPoint: "Anchor-1" 1065 90 basechar 0
AnchorPoint: "Anchor-0" 870 1380 basechar 0
LayerCount: 2
Fore
SplineSet
1714 1208 m 1xec
 1145 1208 l 1
 1145 973 l 1
 1262.33333333 931.666666667 1358.66666667 879 1434 815 c 0
 1515.33333333 747 1556 678.666666667 1556 610 c 0
 1556 516 1478.33333333 435 1323 367 c 1
 1302.33333333 362.333333333 1282.16666667 369.333333333 1262.5 388 c 0
 1242.83333333 406.666666667 1233 430.333333333 1233 459 c 0
 1233 472.333333333 1235 485.333333333 1239 498 c 1
 1329 534.666666667 1374 574.666666667 1374 618 c 0
 1374 680 1297.66666667 739.666666667 1145 797 c 1
 1145 158 l 2
 1145 138.666666667 1132.33333333 121.833333333 1107 107.5 c 0
 1081.66666667 93.1666666667 1056 86 1030 86 c 0
 1008 86 991.666666667 90.6666666667 981 100 c 2
 621 430 l 1
 573 390.666666667 510.666666667 350.333333333 434 309 c 1
 409.333333333 313 388.166666667 324.666666667 370.5 344 c 0
 352.833333333 363.333333333 344 384 344 406 c 0
 344 422 350 436.333333333 362 449 c 1
 485.333333333 517 557.333333333 587 578 659 c 0
 582 674.333333333 584 689.666666667 584 705 c 0
 584 756.333333333 563.166666667 802.166666667 521.5 842.5 c 0
 479.833333333 882.833333333 433.666666667 903 383 903 c 0
 373.666666667 903 364 902.333333333 354 901 c 1
 314.666666667 839.666666667 251.333333333 783 164 731 c 1
 132.666666667 728.333333333 108 735.5 90 752.5 c 0
 72 769.5 63 789.666666667 63 813 c 0
 63 828.333333333 67.3333333333 842 76 854 c 1
 122 877.333333333 165 912 205 958 c 0
 247 1010 268 1058 268 1102 c 0
 268 1154 233.333333333 1189.33333333 164 1208 c 1
 -12 1208 l 1
 -12 1378 l 1
 1714 1378 l 1
 1714 1208 l 1xec
975 1036 m 1
 975 1208 l 1
 842 1208 l 1
 829.333333333 1194.66666667 823 1180.33333333 823 1165 c 0xdc
 823 1125.66666667 873.666666667 1082.66666667 975 1036 c 1
975 338 m 1
 975 860 l 1
 766.333333333 950 662 1053 662 1169 c 0xdc
 662 1183 663.333333333 1196 666 1208 c 1
 399 1208 l 1
 417 1163.33333333 422 1113.66666667 414 1059 c 1
 506.666666667 1043.66666667 585.833333333 1002.66666667 651.5 936 c 0
 717.166666667 869.333333333 750 791.333333333 750 702 c 0xec
 750 656 739.666666667 609.666666667 719 563 c 1
 975 338 l 1
EndSplineSet
Validated: 33
Ligature2: "'akhn' Akhand in Bengali lookup 2 subtable" u0995 u09cd u09b7
EndChar

StartChar: hama
Encoding: 65542 -1 183
Width: 1605
GlyphClass: 2
Flags: W
HStem: 852 149<701.26 928> 922 149<1099.4 1290.15> 1208 170<-12 219.594 373 928 1096 1618>
VStem: 240 163<1087.91 1183.58> 561 164<614.273 851.039> 928 168<412 850 1047 1208> 1327 131<250.297 892.21>
AnchorPoint: "Anchor-2" 1065 75 basechar 0
AnchorPoint: "Anchor-1" 1020 165 basechar 0
AnchorPoint: "Anchor-0" 915 1410 basechar 0
LayerCount: 2
Fore
SplineSet
1618 1208 m 1x7e
 1096 1208 l 1
 1096 1047 l 1
 1154.66666667 1063 1207 1071 1253 1071 c 0
 1294.33333333 1071 1326 1064.33333333 1348 1051 c 1
 1421.33333333 993.666666667 1458 871.333333333 1458 684 c 0
 1458 659 1458 659 1458 608 c 0
 1458 557 1458 557 1458 532 c 0
 1458 356 1489.33333333 237.333333333 1552 176 c 1
 1558 165.333333333 1561 154.333333333 1561 143 c 0
 1561 118.333333333 1548.66666667 98.5 1524 83.5 c 0
 1499.33333333 68.5 1472 62.6666666667 1442 66 c 1
 1379.33333333 122 1341 225.666666667 1327 377 c 1
 1324.33333333 499.666666667 1320.33333333 621.166666667 1315 741.5 c 0
 1309.66666667 861.833333333 1283 922 1235 922 c 0
 1229.66666667 922 1183.33333333 910.333333333 1096 887 c 1
 1096 197 l 1
 944 164 l 1
 635 487 l 1
 579 435.666666667 507.333333333 392.666666667 420 358 c 1
 372 373.333333333 348 402 348 444 c 0
 348 460.666666667 352.666666667 478.666666667 362 498 c 1
 494.666666667 538.666666667 561 616.333333333 561 731 c 0
 561 787 542.333333333 835.166666667 505 875.5 c 0
 467.666666667 915.833333333 418.666666667 935.333333333 358 934 c 1
 328 874 262 808.333333333 160 737 c 1
 136.666666667 737 115.166666667 748.333333333 95.5 771 c 0
 75.8333333333 793.666666667 66 817.333333333 66 842 c 0
 66 852.666666667 68.6666666667 862 74 870 c 1
 114.666666667 886.666666667 152.5 918.833333333 187.5 966.5 c 0
 222.5 1014.16666667 240 1059.33333333 240 1102 c 0
 240 1172.66666667 187.333333333 1208 82 1208 c 2
 -12 1208 l 1
 -12 1378 l 1
 1618 1378 l 1
 1618 1208 l 1x7e
928 1010 m 1
 928 1208 l 1
 373 1208 l 1
 393 1163.33333333 403 1125.33333333 403 1094 c 1
 465 1086.66666667 519 1066.66666667 565 1034 c 1
 670.333333333 1012 757.666666667 1001 827 1001 c 0xbe
 863 1001 896.666666667 1004 928 1010 c 1
928 412 m 1
 928 850 l 1
 852.666666667 846 776.666666667 846.666666667 700 852 c 1
 716.666666667 811.333333333 725 769 725 725 c 0
 725 693.666666667 721 663 713 633 c 1
 928 412 l 1
EndSplineSet
Validated: 33
Ligature2: "'akhn' Akhand in Bengali lookup 2 subtable" u09b9 u09cd u09ae
EndChar

StartChar: tata
Encoding: 65543 -1 184
Width: 1419
GlyphClass: 2
Flags: W
HStem: 63 164<695.999 1038.4> 1028 158<742.372 972.422> 1208 170<-12 1413>
VStem: 39 151<947.172 1143.59> 530 162<689.927 977.514> 1040 162<743.143 960.99> 1098 166<284.66 521.787>
AnchorPoint: "Anchor-2" 900 45 basechar 0
AnchorPoint: "Anchor-1" 855 45 basechar 0
AnchorPoint: "Anchor-0" 795 1410 basechar 0
LayerCount: 2
Fore
SplineSet
1413 1208 m 1xf8
 -12 1208 l 1
 -12 1378 l 1
 1413 1378 l 1
 1413 1208 l 1xf8
1141 664 m 1
 1223 584.666666667 1264 495.666666667 1264 397 c 0
 1264 304.333333333 1228.33333333 226.666666667 1157 164 c 0
 1080.33333333 96.6666666667 979.333333333 63 854 63 c 0
 778.666666667 63 694.333333333 89.6666666667 601 143 c 0
 507.666666667 196.333333333 425.333333333 262.666666667 354 342 c 0
 205.333333333 508.666666667 100.333333333 748.333333333 39 1061 c 1
 33.6666666667 1122.33333333 56 1153 106 1153 c 0
 142 1153 170 1134 190 1096 c 1
 217.333333333 1000 244.666666667 903.666666667 272 807 c 1
 306.666666667 703 353.333333333 611.333333333 412 532 c 0
 562 328.666666667 716 227 874 227 c 0
 903.333333333 227 932.333333333 230.666666667 961 238 c 0
 1052.33333333 259.333333333 1098 314.333333333 1098 403 c 0xfa
 1098 467.666666667 1071.33333333 517 1018 551 c 1
 963.333333333 574.333333333 936 603 936 637 c 0
 936 664.333333333 953.666666667 697.666666667 989 737 c 1
 1023 765.666666667 1040 802 1040 846 c 0
 1040 894 1021.66666667 936.333333333 985 973 c 0
 948.333333333 1009.66666667 902.666666667 1028 848 1028 c 0
 830 1028 812.333333333 1026 795 1022 c 1
 726.333333333 985.333333333 692 932 692 862 c 0
 692 828 700.333333333 790 717 748 c 1
 721 687.333333333 695 657 639 657 c 0
 611.666666667 657 589.666666667 668 573 690 c 1
 544.333333333 742 530 797.333333333 530 856 c 0
 530 944.666666667 559.833333333 1021.83333333 619.5 1087.5 c 0
 679.166666667 1153.16666667 754 1186 844 1186 c 0
 870 1186 896 1183.33333333 922 1178 c 0
 1008 1158.66666667 1076.16666667 1118 1126.5 1056 c 0
 1176.83333333 994 1202 925.333333333 1202 850 c 0xfc
 1202 782 1181.66666667 720 1141 664 c 1
EndSplineSet
Validated: 33
Ligature2: "'pres' Pre Base Substitutions in Bengali lookup 6 subtable" u09a4_u09cd.half u09a4
EndChar

StartChar: glyph220
Encoding: 65579 -1 220
Width: 1026
GlyphClass: 2
Flags: W
HStem: 1214 160<301 533.75>
VStem: 79 151<888.677 1145.78> 822 156<77.0188 186.341>
LayerCount: 2
Fore
SplineSet
976 143 m 0
 977.333333333 138.333333333 978 133.666666667 978 129 c 0
 978 113.666666667 971.333333333 101 958 91 c 0
 940 77 918.666666667 70 894 70 c 0
 857.333333333 70 833.333333333 82 822 106 c 0
 782.666666667 198 708.333333333 288.333333333 599 377 c 0
 503.666666667 451.666666667 408 526.666666667 312 602 c 1
 207.333333333 697.333333333 136.333333333 800.333333333 99 911 c 0
 85.6666666667 951 79 990 79 1028 c 0
 79 1126.66666667 118 1210.66666667 196 1280 c 0
 264 1342.66666667 336 1374 412 1374 c 2
 417 1374 l 2
 503 1372.66666667 572.666666667 1349 626 1303 c 0
 672 1261.66666667 711.333333333 1197.33333333 744 1110 c 1
 744 1088 733.833333333 1069.83333333 713.5 1055.5 c 0
 693.166666667 1041.16666667 671.333333333 1034 648 1034 c 0
 626 1034 611 1040.33333333 603 1053 c 1
 566.333333333 1160.33333333 507.666666667 1214 427 1214 c 0
 412.333333333 1214 396 1212 378 1208 c 0
 279.333333333 1176.66666667 230 1114.66666667 230 1022 c 0
 230 976.666666667 245 931.666666667 275 887 c 0
 328.333333333 803.666666667 407.666666667 720.333333333 513 637 c 0
 682.333333333 501.666666667 769 432 773 428 c 0
 865.666666667 342 933.333333333 247 976 143 c 0
EndSplineSet
Validated: 1
EndChar

StartChar: u09b0_u09cd.rphf
Encoding: 65584 -1 225
Width: 12
GlyphClass: 4
Flags: W
HStem: 1407 455
VStem: -299 676
AnchorPoint: "Anchor-0" -285 1350 mark 0
LayerCount: 2
Fore
SplineSet
354 1755 m 2
 -80 1411 l 1
 -299 1407 l 1
 262 1853 l 2
 268.666666667 1859 277.666666667 1862 289 1862 c 0
 309 1862 328.666666667 1855.16666667 348 1841.5 c 0
 367.333333333 1827.83333333 377 1812 377 1794 c 0
 377 1780.66666667 369.333333333 1767.66666667 354 1755 c 2
EndSplineSet
Validated: 1
Ligature2: "'rphf' Reph Form in Bengali lookup 3 subtable" u09b0 u09cd
EndChar

StartChar: u09af_u09cd.pstf
Encoding: 65585 -1 226
Width: 544
GlyphClass: 4
Flags: W
HStem: -31 146<61.5613 195.559> 1208 170<-12 190 333 557>
LayerCount: 2
Fore
SplineSet
557 1208 m 1
 459 1208 l 2
 385 1208 335 1181.33333333 309 1128 c 1
 294.333333333 1087.33333333 287 1040.33333333 287 987 c 0
 287 916.333333333 305.666666667 802.166666667 343 644.5 c 0
 380.333333333 486.833333333 399 373 399 303 c 0
 399 132.333333333 313.666666667 21 143 -31 c 1
 84.3333333333 -22.3333333333 55 2.33333333333 55 43 c 0
 55 71.6666666667 69.3333333333 95.6666666667 98 115 c 1
 221.333333333 147.666666667 283 224 283 344 c 0
 283 404 260.333333333 512.833333333 215 670.5 c 0
 169.666666667 828.166666667 147 945.333333333 147 1022 c 0
 147 1094 161.333333333 1156 190 1208 c 1
 -12 1208 l 1
 -12 1378 l 1
 557 1378 l 1
 557 1208 l 1
EndSplineSet
Validated: 1
Ligature2: "'pstf' Post Base Forms in Bengali lookup 7 subtable" u09af u09cd
EndChar

StartChar: u09b0_u09cd.blwf
Encoding: 65586 -1 227
Width: 12
GlyphClass: 4
Flags: W
HStem: -76 303<-316.657 -153.376> -66 152<-854.745 -476.76> -18 143<-688.759 -318.699>
VStem: -318 166<117 227>
LayerCount: 2
Fore
SplineSet
-152 -20 m 2x90
 -152 -57.3333333333 -190.333333333 -76 -267 -76 c 0x90
 -289 -76 -304 -73.3333333333 -312 -68 c 0
 -344.666666667 -34.6666666667 -387 -18 -439 -18 c 0x30
 -467.666666667 -18 -516.5 -26.3333333333 -585.5 -43 c 0
 -654.5 -59.6666666667 -706.666666667 -67.3333333333 -742 -66 c 0
 -830.666666667 -62.6666666667 -896.833333333 -45.3333333333 -940.5 -14 c 0
 -984.166666667 17.3333333333 -1028 79.3333333333 -1072 172 c 1
 -1077.33333333 228 -1053.33333333 256 -1000 256 c 0
 -976.666666667 256 -953.666666667 248.333333333 -931 233 c 1
 -907.666666667 177.666666667 -882.666666667 139.333333333 -856 118 c 0
 -829.333333333 96.6666666667 -795.333333333 86 -754 86 c 0x50
 -727.333333333 86 -684.333333333 90.6666666667 -625 100 c 0
 -532.333333333 116.666666667 -458.666666667 125 -404 125 c 0x30
 -371.333333333 125 -342.666666667 122.333333333 -318 117 c 1
 -318 227 l 1
 -152 227 l 1
 -152 -20 l 2x90
EndSplineSet
Validated: 33
Ligature2: "'blwf' Below Base Forms in Bengali lookup 4 subtable" u09b0 u09cd
EndChar

StartChar: u09ac_u09cd.blwf
Encoding: 65587 -1 228
Width: 12
GlyphClass: 4
Flags: W
HStem: -285 514<-298.219 -147.781>
VStem: -303 160<-109 45>
AnchorPoint: "Anchor-2" -120 15 mark 0
LayerCount: 2
Fore
SplineSet
-143 -219 m 2
 -143 -239.666666667 -154.333333333 -255.833333333 -177 -267.5 c 0
 -199.666666667 -279.166666667 -224 -285 -250 -285 c 0
 -267.333333333 -285 -281.666666667 -282 -293 -276 c 2
 -653 -68 l 1
 -663 -54 -668 -39.6666666667 -668 -25 c 0
 -668 2.33333333333 -654.333333333 26.3333333333 -627 47 c 1
 -293 219 l 2
 -280.333333333 225.666666667 -265.333333333 229 -248 229 c 0
 -222 229 -198 223 -176 211 c 0
 -154 199 -143 184 -143 166 c 2
 -143 -219 l 2
-303 -109 m 1
 -303 45 l 1
 -453 -25 l 1
 -303 -109 l 1
EndSplineSet
Validated: 1
Ligature2: "'blwf' Below Base Forms in Bengali lookup 4 subtable" u09ac u09cd
EndChar

StartChar: u099c_u09b0_u09cd.blwf.vatu
Encoding: 65595 -1 236
Width: 1363
GlyphClass: 2
Flags: W
HStem: 98 158<316.352 746.787> 168 158<660.173 1075.49> 322 155<525.621 798.631> 1208 170<-12 492 646.156 824.625 1042 1376>
VStem: 84 158<925.313 1143.71> 375 151<846.597 1078.78> 858 152<532.667 764.826> 1061 158<315.774 806.261>
AnchorPoint: "Anchor-1" 1245 105 basechar 0
LayerCount: 2
Fore
SplineSet
1376 1208 m 1x3f
 1042 1208 l 1
 1282 1049 l 1
 1316 1033.66666667 1333 1000.66666667 1333 950 c 0
 1333 938 1331 928.666666667 1327 922 c 0
 1255 827.333333333 1219 701 1219 543 c 0
 1219 425.666666667 1238 296.666666667 1276 156 c 1
 1266.66666667 104 1234.66666667 78 1180 78 c 0
 1166 78 1153 80.6666666667 1141 86 c 1
 1089 140.666666667 1021.33333333 168 938 168 c 0x5f
 887.333333333 168 809.5 156.333333333 704.5 133 c 0
 599.5 109.666666667 519.666666667 98 465 98 c 0
 263 98 128.333333333 199 61 401 c 1
 68.3333333333 453 94.3333333333 479 139 479 c 0
 162.333333333 479 185.666666667 470.333333333 209 453 c 1
 255.666666667 321.666666667 339 256 459 256 c 0x9f
 513.666666667 256 594.833333333 267.666666667 702.5 291 c 0
 810.166666667 314.333333333 892 326 948 326 c 0x5f
 993.333333333 326 1036.33333333 321 1077 311 c 1
 1066.33333333 419 1061 501.666666667 1061 559 c 0
 1061 701 1091 830.666666667 1151 948 c 1
 778 1198 l 2
 768.666666667 1204.66666667 757 1208 743 1208 c 0
 699.666666667 1208 652.666666667 1178.66666667 602 1120 c 0
 551.333333333 1061.33333333 526 1002.66666667 526 944 c 0
 526 903.333333333 541 870 571 844 c 1
 590.333333333 840 627.333333333 853 682 883 c 0
 742 914.333333333 792.666666667 930 834 930 c 0
 846 930 858.666666667 928.666666667 872 926 c 1
 964 871.333333333 1010 781.666666667 1010 657 c 0
 1010 575.666666667 988 504.666666667 944 444 c 0
 897.333333333 377.333333333 834.666666667 338.666666667 756 328 c 0
 728.666666667 324 702.666666667 322 678 322 c 0
 362.666666667 322 164.666666667 584.666666667 84 1110 c 1
 114 1140 143.333333333 1155 172 1155 c 0
 194 1155 217.333333333 1146.66666667 242 1130 c 1
 274.666666667 906.666666667 334 737.666666667 420 623 c 0
 493.333333333 525.666666667 576 477 668 477 c 0
 718 477 762.166666667 491.666666667 800.5 521 c 0
 838.833333333 550.333333333 858 590.333333333 858 641 c 0
 858 683.666666667 843 726 813 768 c 1
 792.333333333 764 749.333333333 748.333333333 684 721 c 0
 630.666666667 700.333333333 588.333333333 690 557 690 c 0
 539 690 522.666666667 692 508 696 c 1
 419.333333333 750.666666667 375 827.333333333 375 926 c 0
 375 1024 414 1118 492 1208 c 1
 -12 1208 l 1
 -12 1378 l 1
 1376 1378 l 1
 1376 1208 l 1x3f
EndSplineSet
Validated: 33
Ligature2: "'vatu' Vattu Variants in Bengali lookup 8 subtable" u099c u09b0_u09cd.blwf
EndChar

